  999
DXF file created by gear template generator.  2011-12-27T11:02:08
  0
SECTION
  2
HEADER
  9
$ACADVER
  1
AC1006
  9
$INSBASE
  10
0.0
  20
0.0
  30
0.0
  9
$EXTMIN
  10
0.0
  20
0.0
  9
$EXTMAX
  10
10000.0
  20
10000.0
  0
ENDSEC
  0
SECTION
  2
ENTITIES
 0
LWPOLYLINE
 8
profile
 90
540
 70
1
 10
0.4991
 20
0.39596
 10
0.50018
 20
0.39411
 10
0.50126
 20
0.39343
 10
0.50232
 20
0.39297
 10
0.50339
 20
0.39264
 10
0.50553
 20
0.3922
 10
0.50767
 20
0.39195
 10
0.51194
 20
0.39115
 10
0.5162
 20
0.38997
 10
0.52046
 20
0.3885
 10
0.5247
 20
0.38677
 10
0.52892
 20
0.38481
 10
0.53313
 20
0.38263
 10
0.5373
 20
0.38024
 10
0.54145
 20
0.37764
 10
0.53867
 20
0.35118
 10
0.53407
 20
0.34951
 10
0.52949
 20
0.34804
 10
0.52493
 20
0.34678
 10
0.52039
 20
0.34573
 10
0.51588
 20
0.34492
 10
0.51141
 20
0.34437
 10
0.507
 20
0.34411
 10
0.50265
 20
0.34422
 10
0.50051
 20
0.34441
 10
0.49833
 20
0.34443
 10
0.49721
 20
0.34432
 10
0.49607
 20
0.34409
 10
0.49488
 20
0.34366
 10
0.49343
 20
0.34207
 10
0.48645
 20
0.31773
 10
0.48684
 20
0.31562
 10
0.48762
 20
0.31461
 10
0.48846
 20
0.31382
 10
0.48935
 20
0.31314
 10
0.49121
 20
0.31199
 10
0.49313
 20
0.31102
 10
0.49687
 20
0.30881
 10
0.50048
 20
0.30625
 10
0.50398
 20
0.30341
 10
0.50737
 20
0.30034
 10
0.51067
 20
0.29705
 10
0.51387
 20
0.29356
 10
0.51698
 20
0.28988
 10
0.51999
 20
0.28603
 10
0.50832
 20
0.26212
 10
0.50343
 20
0.26211
 10
0.49862
 20
0.2623
 10
0.4939
 20
0.26268
 10
0.48928
 20
0.26325
 10
0.48477
 20
0.26403
 10
0.48038
 20
0.26504
 10
0.47614
 20
0.2663
 10
0.4721
 20
0.26789
 10
0.47015
 20
0.26881
 10
0.4681
 20
0.26957
 10
0.46702
 20
0.26985
 10
0.46587
 20
0.27003
 10
0.4646
 20
0.27002
 10
0.4627
 20
0.26902
 10
0.44781
 20
0.24854
 10
0.44746
 20
0.24642
 10
0.44784
 20
0.24521
 10
0.44837
 20
0.24418
 10
0.44897
 20
0.24323
 10
0.45032
 20
0.24152
 10
0.4518
 20
0.23995
 10
0.45456
 20
0.2366
 10
0.45707
 20
0.23296
 10
0.45938
 20
0.22909
 10
0.46152
 20
0.22504
 10
0.4635
 20
0.22082
 10
0.46531
 20
0.21645
 10
0.46697
 20
0.21193
 10
0.46849
 20
0.20728
 10
0.44935
 20
0.1888
 10
0.44475
 20
0.19047
 10
0.44029
 20
0.19229
 10
0.43599
 20
0.19426
 10
0.43184
 20
0.19638
 10
0.42786
 20
0.19866
 10
0.42409
 20
0.2011
 10
0.42053
 20
0.20374
 10
0.41728
 20
0.20662
 10
0.41576
 20
0.20814
 10
0.4141
 20
0.20956
 10
0.41318
 20
0.21019
 10
0.41216
 20
0.21075
 10
0.41096
 20
0.21118
 10
0.40883
 20
0.2109
 10
0.38784
 20
0.19674
 10
0.38678
 20
0.19487
 10
0.38673
 20
0.1936
 10
0.38687
 20
0.19245
 10
0.38711
 20
0.19135
 10
0.3878
 20
0.18928
 10
0.38865
 20
0.18731
 10
0.39009
 20
0.18321
 10
0.39121
 20
0.17893
 10
0.39206
 20
0.17451
 10
0.39269
 20
0.16997
 10
0.3931
 20
0.16533
 10
0.39331
 20
0.1606
 10
0.39333
 20
0.15579
 10
0.39315
 20
0.1509
 10
0.36885
 20
0.14007
 10
0.3651
 20
0.14322
 10
0.36154
 20
0.14645
 10
0.35816
 20
0.14977
 10
0.35499
 20
0.15318
 10
0.35203
 20
0.15668
 10
0.34932
 20
0.16028
 10
0.34688
 20
0.16397
 10
0.34481
 20
0.16779
 10
0.34391
 20
0.16974
 10
0.34283
 20
0.17164
 10
0.34218
 20
0.17255
 10
0.34141
 20
0.17343
 10
0.34043
 20
0.17424
 10
0.33834
 20
0.1747
 10
0.31377
 20
0.16857
 10
0.31213
 20
0.16718
 10
0.31165
 20
0.16601
 10
0.31139
 20
0.16487
 10
0.31124
 20
0.16376
 10
0.31118
 20
0.16158
 10
0.3113
 20
0.15943
 10
0.31126
 20
0.15509
 10
0.31084
 20
0.15068
 10
0.31013
 20
0.14624
 10
0.30917
 20
0.14176
 10
0.30797
 20
0.13726
 10
0.30655
 20
0.13274
 10
0.30492
 20
0.12821
 10
0.30308
 20
0.12368
 10
0.27654
 20
0.12182
 10
0.27409
 20
0.12606
 10
0.27185
 20
0.13032
 10
0.26981
 20
0.13459
 10
0.268
 20
0.13888
 10
0.26642
 20
0.14318
 10
0.2651
 20
0.14748
 10
0.26407
 20
0.15179
 10
0.26343
 20
0.15608
 10
0.26325
 20
0.15823
 10
0.26288
 20
0.16038
 10
0.26258
 20
0.16146
 10
0.26216
 20
0.16255
 10
0.26152
 20
0.16364
 10
0.25971
 20
0.16479
 10
0.23453
 20
0.16744
 10
0.23252
 20
0.16669
 10
0.23166
 20
0.16575
 10
0.23103
 20
0.16478
 10
0.23051
 20
0.16378
 10
0.2297
 20
0.16175
 10
0.22908
 20
0.15969
 10
0.22756
 20
0.15563
 10
0.22566
 20
0.15163
 10
0.22347
 20
0.14769
 10
0.22103
 20
0.14382
 10
0.21837
 20
0.14
 10
0.21549
 20
0.13624
 10
0.21241
 20
0.13254
 10
0.20913
 20
0.12891
 10
0.18356
 20
0.13624
 10
0.18271
 20
0.14106
 10
0.18205
 20
0.14583
 10
0.1816
 20
0.15054
 10
0.18137
 20
0.15519
 10
0.18135
 20
0.15977
 10
0.18158
 20
0.16427
 10
0.18209
 20
0.16866
 10
0.18295
 20
0.17292
 10
0.18352
 20
0.175
 10
0.18391
 20
0.17714
 10
0.184
 20
0.17826
 10
0.18398
 20
0.17943
 10
0.18375
 20
0.18067
 10
0.18244
 20
0.18238
 10
0.15968
 20
0.19347
 10
0.15753
 20
0.19346
 10
0.15641
 20
0.19287
 10
0.15548
 20
0.19217
 10
0.15465
 20
0.19141
 10
0.1532
 20
0.18978
 10
0.15192
 20
0.18806
 10
0.14909
 20
0.18476
 10
0.14594
 20
0.18165
 10
0.14254
 20
0.1787
 10
0.13892
 20
0.17589
 10
0.13511
 20
0.17322
 10
0.13112
 20
0.17067
 10
0.12696
 20
0.16825
 10
0.12264
 20
0.16595
 10
0.10111
 20
0.18159
 10
0.10196
 20
0.18641
 10
0.10298
 20
0.19111
 10
0.10417
 20
0.1957
 10
0.10554
 20
0.20015
 10
0.10709
 20
0.20446
 10
0.10884
 20
0.2086
 10
0.11082
 20
0.21256
 10
0.11309
 20
0.21627
 10
0.11433
 20
0.21802
 10
0.11544
 20
0.21991
 10
0.1159
 20
0.22093
 10
0.11628
 20
0.22203
 10
0.11649
 20
0.22328
 10
0.11584
 20
0.22533
 10
0.09825
 20
0.24354
 10
0.09623
 20
0.24426
 10
0.09497
 20
0.24409
 10
0.09386
 20
0.24375
 10
0.09282
 20
0.24332
 10
0.0909
 20
0.24229
 10
0.0891
 20
0.24111
 10
0.08532
 20
0.23897
 10
0.0813
 20
0.23713
 10
0.07709
 20
0.23552
 10
0.07273
 20
0.23412
 10
0.06823
 20
0.23291
 10
0.06361
 20
0.23188
 10
0.05887
 20
0.23103
 10
0.05403
 20
0.23035
 10
0.03915
 20
0.25241
 10
0.0416
 20
0.25664
 10
0.04416
 20
0.26072
 10
0.04685
 20
0.26462
 10
0.04966
 20
0.26833
 10
0.05259
 20
0.27185
 10
0.05566
 20
0.27515
 10
0.05887
 20
0.27819
 10
0.06227
 20
0.28089
 10
0.06404
 20
0.28212
 10
0.06572
 20
0.28351
 10
0.0665
 20
0.28431
 10
0.06723
 20
0.28522
 10
0.06786
 20
0.28632
 10
0.06795
 20
0.28847
 10
0.05765
 20
0.3116
 10
0.056
 20
0.31297
 10
0.05476
 20
0.31324
 10
0.05359
 20
0.3133
 10
0.05247
 20
0.31325
 10
0.05032
 20
0.31293
 10
0.04822
 20
0.31244
 10
0.04394
 20
0.31173
 10
0.03953
 20
0.31137
 10
0.03502
 20
0.3113
 10
0.03045
 20
0.31147
 10
0.02581
 20
0.31187
 10
0.02111
 20
0.31249
 10
0.01637
 20
0.31331
 10
0.01158
 20
0.31432
 10
0.00515
 20
0.34014
 10
0.00889
 20
0.34329
 10
0.0127
 20
0.34624
 10
0.01655
 20
0.34898
 10
0.02046
 20
0.35151
 10
0.02442
 20
0.35382
 10
0.02843
 20
0.35586
 10
0.03249
 20
0.35762
 10
0.03661
 20
0.35901
 10
0.03869
 20
0.35955
 10
0.04075
 20
0.36029
 10
0.04176
 20
0.36077
 10
0.04275
 20
0.36137
 10
0.04372
 20
0.36219
 10
0.04454
 20
0.36418
 10
0.04278
 20
0.38943
 10
0.04169
 20
0.39129
 10
0.04062
 20
0.39196
 10
0.03955
 20
0.39242
 10
0.03848
 20
0.39276
 10
0.03634
 20
0.3932
 10
0.0342
 20
0.39345
 10
0.02993
 20
0.39425
 10
0.02567
 20
0.39542
 10
0.02141
 20
0.3969
 10
0.01717
 20
0.39862
 10
0.01295
 20
0.40059
 10
0.00874
 20
0.40277
 10
0.00457
 20
0.40516
 10
0.00042
 20
0.40775
 10
0.0032
 20
0.43422
 10
0.0078
 20
0.43589
 10
0.01238
 20
0.43736
 10
0.01694
 20
0.43862
 10
0.02148
 20
0.43966
 10
0.02599
 20
0.44047
 10
0.03046
 20
0.44103
 10
0.03488
 20
0.44129
 10
0.03922
 20
0.44118
 10
0.04136
 20
0.44098
 10
0.04354
 20
0.44097
 10
0.04466
 20
0.44108
 10
0.0458
 20
0.4413
 10
0.04699
 20
0.44174
 10
0.04844
 20
0.44333
 10
0.05542
 20
0.46767
 10
0.05503
 20
0.46978
 10
0.05425
 20
0.47078
 10
0.05341
 20
0.47158
 10
0.05252
 20
0.47226
 10
0.05066
 20
0.47341
 10
0.04874
 20
0.47437
 10
0.045
 20
0.47658
 10
0.04139
 20
0.47915
 10
0.03789
 20
0.48198
 10
0.0345
 20
0.48506
 10
0.0312
 20
0.48835
 10
0.028
 20
0.49184
 10
0.02489
 20
0.49551
 10
0.02188
 20
0.49937
 10
0.03355
 20
0.52328
 10
0.03844
 20
0.52328
 10
0.04325
 20
0.5231
 10
0.04797
 20
0.52272
 10
0.05259
 20
0.52215
 10
0.0571
 20
0.52137
 10
0.06149
 20
0.52036
 10
0.06573
 20
0.5191
 10
0.06978
 20
0.51751
 10
0.07172
 20
0.51659
 10
0.07377
 20
0.51583
 10
0.07485
 20
0.51555
 10
0.076
 20
0.51537
 10
0.07727
 20
0.51538
 10
0.07917
 20
0.51637
 10
0.09406
 20
0.53686
 10
0.09441
 20
0.53898
 10
0.09403
 20
0.54018
 10
0.0935
 20
0.54122
 10
0.0929
 20
0.54217
 10
0.09155
 20
0.54388
 10
0.09007
 20
0.54545
 10
0.08731
 20
0.5488
 10
0.0848
 20
0.55244
 10
0.08249
 20
0.5563
 10
0.08035
 20
0.56035
 10
0.07837
 20
0.56457
 10
0.07656
 20
0.56895
 10
0.0749
 20
0.57347
 10
0.07339
 20
0.57812
 10
0.09252
 20
0.5966
 10
0.09712
 20
0.59493
 10
0.10158
 20
0.59311
 10
0.10589
 20
0.59114
 10
0.11003
 20
0.58902
 10
0.11401
 20
0.58674
 10
0.11778
 20
0.5843
 10
0.12134
 20
0.58166
 10
0.12459
 20
0.57878
 10
0.12611
 20
0.57725
 10
0.12777
 20
0.57584
 10
0.12869
 20
0.57521
 10
0.12971
 20
0.57465
 10
0.13091
 20
0.57422
 10
0.13304
 20
0.5745
 10
0.15403
 20
0.58866
 10
0.15509
 20
0.59053
 10
0.15514
 20
0.59179
 10
0.155
 20
0.59295
 10
0.15476
 20
0.59404
 10
0.15407
 20
0.59612
 10
0.15322
 20
0.59809
 10
0.15178
 20
0.60219
 10
0.15066
 20
0.60647
 10
0.14981
 20
0.61089
 10
0.14918
 20
0.61543
 10
0.14877
 20
0.62007
 10
0.14856
 20
0.6248
 10
0.14854
 20
0.62961
 10
0.14872
 20
0.6345
 10
0.17302
 20
0.64532
 10
0.17677
 20
0.64218
 10
0.18034
 20
0.63895
 10
0.18371
 20
0.63562
 10
0.18688
 20
0.63221
 10
0.18984
 20
0.62871
 10
0.19255
 20
0.62512
 10
0.19499
 20
0.62143
 10
0.19706
 20
0.61761
 10
0.19796
 20
0.61566
 10
0.19904
 20
0.61376
 10
0.19969
 20
0.61285
 10
0.20046
 20
0.61197
 10
0.20144
 20
0.61116
 10
0.20354
 20
0.6107
 10
0.2281
 20
0.61683
 10
0.22974
 20
0.61822
 10
0.23022
 20
0.61939
 10
0.23048
 20
0.62053
 10
0.23063
 20
0.62164
 10
0.23069
 20
0.62382
 10
0.23057
 20
0.62597
 10
0.23061
 20
0.63031
 10
0.23103
 20
0.63472
 10
0.23174
 20
0.63916
 10
0.2327
 20
0.64364
 10
0.2339
 20
0.64814
 10
0.23532
 20
0.65266
 10
0.23695
 20
0.65719
 10
0.23879
 20
0.66172
 10
0.26533
 20
0.66358
 10
0.26778
 20
0.65934
 10
0.27002
 20
0.65508
 10
0.27206
 20
0.65081
 10
0.27387
 20
0.64652
 10
0.27545
 20
0.64222
 10
0.27677
 20
0.63791
 10
0.2778
 20
0.63361
 10
0.27844
 20
0.62931
 10
0.27862
 20
0.62717
 10
0.27899
 20
0.62502
 10
0.27929
 20
0.62394
 10
0.27971
 20
0.62285
 10
0.28035
 20
0.62176
 10
0.28216
 20
0.62061
 10
0.30734
 20
0.61796
 10
0.30935
 20
0.61871
 10
0.31021
 20
0.61965
 10
0.31084
 20
0.62062
 10
0.31136
 20
0.62162
 10
0.31217
 20
0.62364
 10
0.31279
 20
0.6257
 10
0.31431
 20
0.62977
 10
0.31621
 20
0.63377
 10
0.3184
 20
0.6377
 10
0.32084
 20
0.64158
 10
0.3235
 20
0.6454
 10
0.32638
 20
0.64916
 10
0.32946
 20
0.65286
 10
0.33274
 20
0.65649
 10
0.35831
 20
0.64916
 10
0.35916
 20
0.64434
 10
0.35982
 20
0.63957
 10
0.36027
 20
0.63486
 10
0.3605
 20
0.63021
 10
0.36052
 20
0.62563
 10
0.36029
 20
0.62113
 10
0.35978
 20
0.61674
 10
0.35892
 20
0.61248
 10
0.35835
 20
0.6104
 10
0.35796
 20
0.60825
 10
0.35787
 20
0.60714
 10
0.3579
 20
0.60597
 10
0.35812
 20
0.60473
 10
0.35943
 20
0.60302
 10
0.38219
 20
0.59192
 10
0.38434
 20
0.59194
 10
0.38546
 20
0.59253
 10
0.38639
 20
0.59323
 10
0.38722
 20
0.59398
 10
0.38867
 20
0.59561
 10
0.38995
 20
0.59734
 10
0.39278
 20
0.60064
 10
0.39593
 20
0.60375
 10
0.39933
 20
0.6067
 10
0.40295
 20
0.6095
 10
0.40676
 20
0.61218
 10
0.41075
 20
0.61473
 10
0.41491
 20
0.61715
 10
0.41923
 20
0.61945
 10
0.44076
 20
0.60381
 10
0.43991
 20
0.59899
 10
0.43889
 20
0.59428
 10
0.4377
 20
0.5897
 10
0.43633
 20
0.58525
 10
0.43478
 20
0.58094
 10
0.43303
 20
0.57679
 10
0.43105
 20
0.57284
 10
0.42878
 20
0.56913
 10
0.42754
 20
0.56737
 10
0.42643
 20
0.56549
 10
0.42597
 20
0.56447
 10
0.42559
 20
0.56337
 10
0.42538
 20
0.56212
 10
0.42603
 20
0.56007
 10
0.44362
 20
0.54186
 10
0.44564
 20
0.54114
 10
0.4469
 20
0.54131
 10
0.44801
 20
0.54164
 10
0.44905
 20
0.54207
 10
0.45097
 20
0.54311
 10
0.45277
 20
0.54429
 10
0.45655
 20
0.54643
 10
0.46057
 20
0.54827
 10
0.46478
 20
0.54988
 10
0.46914
 20
0.55128
 10
0.47364
 20
0.55249
 10
0.47826
 20
0.55352
 10
0.483
 20
0.55437
 10
0.48784
 20
0.55505
 10
0.50272
 20
0.53299
 10
0.50027
 20
0.52876
 10
0.49771
 20
0.52468
 10
0.49502
 20
0.52078
 10
0.49222
 20
0.51707
 10
0.48928
 20
0.51355
 10
0.48622
 20
0.51025
 10
0.483
 20
0.50721
 10
0.4796
 20
0.5045
 10
0.47784
 20
0.50328
 10
0.47616
 20
0.50189
 10
0.47537
 20
0.50109
 10
0.47464
 20
0.50018
 10
0.47401
 20
0.49908
 10
0.47392
 20
0.49693
 10
0.48422
 20
0.4738
 10
0.48588
 20
0.47243
 10
0.48711
 20
0.47216
 10
0.48828
 20
0.4721
 10
0.4894
 20
0.47215
 10
0.49155
 20
0.47246
 10
0.49365
 20
0.47296
 10
0.49794
 20
0.47367
 10
0.50234
 20
0.47402
 10
0.50685
 20
0.4741
 10
0.51142
 20
0.47392
 10
0.51606
 20
0.47352
 10
0.52076
 20
0.47291
 10
0.5255
 20
0.47209
 10
0.53029
 20
0.47107
 10
0.53672
 20
0.44526
 10
0.53298
 20
0.44211
 10
0.52917
 20
0.43916
 10
0.52532
 20
0.43642
 10
0.52141
 20
0.43388
 10
0.51745
 20
0.43158
 10
0.51344
 20
0.42953
 10
0.50938
 20
0.42778
 10
0.50526
 20
0.42639
 10
0.50318
 20
0.42585
 10
0.50112
 20
0.42511
 10
0.50011
 20
0.42463
 10
0.49912
 20
0.42403
 10
0.49815
 20
0.42321
 10
0.49733
 20
0.42122
 0
CIRCLE
 8
profile
 10
0.27094
 20
0.3927
 40
0.0315
 0
LINE
 8
profile
 10
0.49912
 20
-0.0123
 30
0
 11
0.49912
 21
-0.04006
 31
 0
 0
LINE
 8
profile
 10
0.49912
 20
-0.04006
 30
0
 11
0.54187
 21
-0.05562
 31
 0
 0
LINE
 8
profile
 10
0.54187
 20
-0.05562
 30
0
 11
0.54187
 21
-0.08401
 31
 0
 0
LINE
 8
profile
 10
0.54187
 20
-0.08401
 30
0
 11
0.49912
 21
-0.09957
 31
 0
 0
LINE
 8
profile
 10
0.49912
 20
0.07496
 30
0
 11
0.49912
 21
0.04721
 31
 0
 0
LINE
 8
profile
 10
0.49912
 20
0.04721
 30
0
 11
0.54187
 21
0.03165
 31
 0
 0
LINE
 8
profile
 10
0.54187
 20
0.03165
 30
0
 11
0.54187
 21
0.00326
 31
 0
 0
LINE
 8
profile
 10
0.54187
 20
0.00326
 30
0
 11
0.49912
 21
-0.0123
 31
 0
 0
LINE
 8
profile
 10
0.49912
 20
0.16223
 30
0
 11
0.49912
 21
0.13448
 31
 0
 0
LINE
 8
profile
 10
0.49912
 20
0.13448
 30
0
 11
0.54187
 21
0.11892
 31
 0
 0
LINE
 8
profile
 10
0.54187
 20
0.11892
 30
0
 11
0.54187
 21
0.09052
 31
 0
 0
LINE
 8
profile
 10
0.54187
 20
0.09052
 30
0
 11
0.49912
 21
0.07496
 31
 0
 0
LINE
 8
profile
 10
0.49912
 20
0.2495
 30
0
 11
0.49912
 21
0.22174
 31
 0
 0
LINE
 8
profile
 10
0.49912
 20
0.22174
 30
0
 11
0.54187
 21
0.20618
 31
 0
 0
LINE
 8
profile
 10
0.54187
 20
0.20618
 30
0
 11
0.54187
 21
0.17779
 31
 0
 0
LINE
 8
profile
 10
0.54187
 20
0.17779
 30
0
 11
0.49912
 21
0.16223
 31
 0
 0
LINE
 8
profile
 10
0.49912
 20
0.33676
 30
0
 11
0.49912
 21
0.30901
 31
 0
 0
LINE
 8
profile
 10
0.49912
 20
0.30901
 30
0
 11
0.54187
 21
0.29345
 31
 0
 0
LINE
 8
profile
 10
0.54187
 20
0.29345
 30
0
 11
0.54187
 21
0.26506
 31
 0
 0
LINE
 8
profile
 10
0.54187
 20
0.26506
 30
0
 11
0.49912
 21
0.2495
 31
 0
 0
LINE
 8
profile
 10
0.49912
 20
0.42403
 30
0
 11
0.49912
 21
0.39628
 31
 0
 0
LINE
 8
profile
 10
0.49912
 20
0.39628
 30
0
 11
0.54187
 21
0.38072
 31
 0
 0
LINE
 8
profile
 10
0.54187
 20
0.38072
 30
0
 11
0.54187
 21
0.35232
 31
 0
 0
LINE
 8
profile
 10
0.54187
 20
0.35232
 30
0
 11
0.49912
 21
0.33676
 31
 0
 0
LINE
 8
profile
 10
0.49912
 20
0.51129
 30
0
 11
0.49912
 21
0.48354
 31
 0
 0
LINE
 8
profile
 10
0.49912
 20
0.48354
 30
0
 11
0.54187
 21
0.46798
 31
 0
 0
LINE
 8
profile
 10
0.54187
 20
0.46798
 30
0
 11
0.54187
 21
0.43959
 31
 0
 0
LINE
 8
profile
 10
0.54187
 20
0.43959
 30
0
 11
0.49912
 21
0.42403
 31
 0
 0
LINE
 8
profile
 10
0.49912
 20
0.59856
 30
0
 11
0.49912
 21
0.57081
 31
 0
 0
LINE
 8
profile
 10
0.49912
 20
0.57081
 30
0
 11
0.54187
 21
0.55525
 31
 0
 0
LINE
 8
profile
 10
0.54187
 20
0.55525
 30
0
 11
0.54187
 21
0.52686
 31
 0
 0
LINE
 8
profile
 10
0.54187
 20
0.52686
 30
0
 11
0.49912
 21
0.51129
 31
 0
 0
LINE
 8
profile
 10
0.49912
 20
0.68583
 30
0
 11
0.49912
 21
0.65808
 31
 0
 0
LINE
 8
profile
 10
0.49912
 20
0.65808
 30
0
 11
0.54187
 21
0.64252
 31
 0
 0
LINE
 8
profile
 10
0.54187
 20
0.64252
 30
0
 11
0.54187
 21
0.61412
 31
 0
 0
LINE
 8
profile
 10
0.54187
 20
0.61412
 30
0
 11
0.49912
 21
0.59856
 31
 0
 0
LINE
 8
profile
 10
0.49912
 20
0.77309
 30
0
 11
0.49912
 21
0.74534
 31
 0
 0
LINE
 8
profile
 10
0.49912
 20
0.74534
 30
0
 11
0.54187
 21
0.72978
 31
 0
 0
LINE
 8
profile
 10
0.54187
 20
0.72978
 30
0
 11
0.54187
 21
0.70139
 31
 0
 0
LINE
 8
profile
 10
0.54187
 20
0.70139
 30
0
 11
0.49912
 21
0.68583
 31
 0
  0
ENDSEC
  0
EOF
