  999
DXF file created by gear template generator.  2011-12-27T13:59:51
  0
SECTION
  2
HEADER
  9
$ACADVER
  1
AC1006
  9
$INSBASE
  10
0.0
  20
0.0
  30
0.0
  9
$EXTMIN
  10
0.0
  20
0.0
  9
$EXTMAX
  10
10000.0
  20
10000.0
  0
ENDSEC
  0
SECTION
  2
ENTITIES
 0
LWPOLYLINE
 8
profile
 90
540
 70
1
 10
0.49997
 20
0.52489
 10
0.50104
 20
0.52276
 10
0.50209
 20
0.52197
 10
0.50314
 20
0.52142
 10
0.50419
 20
0.52101
 10
0.50628
 20
0.52032
 10
0.50837
 20
0.52008
 10
0.51256
 20
0.51924
 10
0.51673
 20
0.51804
 10
0.5209
 20
0.51657
 10
0.52505
 20
0.51486
 10
0.52918
 20
0.51292
 10
0.5333
 20
0.51077
 10
0.53739
 20
0.50842
 10
0.54145
 20
0.50588
 10
0.53867
 20
0.47942
 10
0.53417
 20
0.47778
 10
0.52968
 20
0.47633
 10
0.52521
 20
0.47508
 10
0.52076
 20
0.47405
 10
0.51634
 20
0.47323
 10
0.51196
 20
0.47266
 10
0.50763
 20
0.47236
 10
0.50336
 20
0.4724
 10
0.50127
 20
0.47261
 10
0.49907
 20
0.47237
 10
0.49796
 20
0.47218
 10
0.49682
 20
0.47186
 10
0.49563
 20
0.47131
 10
0.49414
 20
0.46945
 10
0.48751
 20
0.44632
 10
0.48779
 20
0.44395
 10
0.48851
 20
0.44285
 10
0.4893
 20
0.44197
 10
0.49015
 20
0.44123
 10
0.49188
 20
0.43986
 10
0.49376
 20
0.43893
 10
0.4974
 20
0.4367
 10
0.50092
 20
0.43415
 10
0.50433
 20
0.43134
 10
0.50765
 20
0.42831
 10
0.51087
 20
0.42508
 10
0.514
 20
0.42165
 10
0.51704
 20
0.41804
 10
0.51999
 20
0.41427
 10
0.50832
 20
0.39035
 10
0.50353
 20
0.39035
 10
0.49882
 20
0.39052
 10
0.49419
 20
0.39088
 10
0.48966
 20
0.39143
 10
0.48523
 20
0.39218
 10
0.48091
 20
0.39314
 10
0.47674
 20
0.39434
 10
0.47275
 20
0.39584
 10
0.47085
 20
0.39674
 10
0.46871
 20
0.39727
 10
0.4676
 20
0.39747
 10
0.46642
 20
0.39756
 10
0.46511
 20
0.39745
 10
0.46307
 20
0.39621
 10
0.44893
 20
0.37675
 10
0.44838
 20
0.37443
 10
0.44868
 20
0.37315
 10
0.44913
 20
0.37205
 10
0.44966
 20
0.37106
 10
0.45082
 20
0.36919
 10
0.45228
 20
0.36766
 10
0.45493
 20
0.36432
 10
0.45737
 20
0.36072
 10
0.45961
 20
0.35692
 10
0.46169
 20
0.35294
 10
0.46361
 20
0.34879
 10
0.46538
 20
0.3445
 10
0.46701
 20
0.34007
 10
0.46849
 20
0.33552
 10
0.44935
 20
0.31703
 10
0.44484
 20
0.31867
 10
0.44047
 20
0.32045
 10
0.43625
 20
0.32237
 10
0.43217
 20
0.32443
 10
0.42827
 20
0.32665
 10
0.42454
 20
0.32903
 10
0.42103
 20
0.33158
 10
0.41779
 20
0.33436
 10
0.41631
 20
0.33586
 10
0.41448
 20
0.33709
 10
0.41351
 20
0.33766
 10
0.41243
 20
0.33814
 10
0.41116
 20
0.33849
 10
0.40882
 20
0.33802
 10
0.38888
 20
0.32457
 10
0.38757
 20
0.32257
 10
0.38741
 20
0.32127
 10
0.38746
 20
0.32008
 10
0.38762
 20
0.31897
 10
0.38807
 20
0.31681
 10
0.38892
 20
0.31488
 10
0.39027
 20
0.31084
 10
0.39133
 20
0.30662
 10
0.39214
 20
0.30228
 10
0.39273
 20
0.29783
 10
0.39312
 20
0.29328
 10
0.39331
 20
0.28864
 10
0.39332
 20
0.28392
 10
0.39315
 20
0.27913
 10
0.36885
 20
0.26831
 10
0.36518
 20
0.27139
 10
0.36168
 20
0.27455
 10
0.35836
 20
0.2778
 10
0.35524
 20
0.28114
 10
0.35233
 20
0.28456
 10
0.34964
 20
0.28806
 10
0.34722
 20
0.29167
 10
0.34512
 20
0.29538
 10
0.34425
 20
0.2973
 10
0.34294
 20
0.29908
 10
0.34223
 20
0.29994
 10
0.34138
 20
0.30077
 10
0.3403
 20
0.30153
 10
0.33795
 20
0.30189
 10
0.3146
 20
0.29607
 10
0.31269
 20
0.29464
 10
0.3121
 20
0.29347
 10
0.31174
 20
0.29234
 10
0.31151
 20
0.29124
 10
0.31119
 20
0.28906
 10
0.31133
 20
0.28696
 10
0.31122
 20
0.28269
 10
0.31077
 20
0.27837
 10
0.31004
 20
0.27401
 10
0.30908
 20
0.26963
 10
0.30788
 20
0.26522
 10
0.30648
 20
0.26079
 10
0.30488
 20
0.25636
 10
0.30308
 20
0.25191
 10
0.27654
 20
0.25006
 10
0.27414
 20
0.25421
 10
0.27194
 20
0.25838
 10
0.26993
 20
0.26256
 10
0.26814
 20
0.26676
 10
0.26657
 20
0.27097
 10
0.26525
 20
0.27519
 10
0.2642
 20
0.2794
 10
0.2635
 20
0.28361
 10
0.26334
 20
0.28571
 10
0.26272
 20
0.28783
 10
0.26234
 20
0.28889
 10
0.26183
 20
0.28996
 10
0.26108
 20
0.29103
 10
0.25899
 20
0.29218
 10
0.23506
 20
0.2947
 10
0.23278
 20
0.29401
 10
0.23182
 20
0.29311
 10
0.23109
 20
0.29217
 10
0.2305
 20
0.29121
 10
0.22946
 20
0.28927
 10
0.22887
 20
0.28725
 10
0.2273
 20
0.28328
 10
0.2254
 20
0.27938
 10
0.22323
 20
0.27553
 10
0.22082
 20
0.27174
 10
0.2182
 20
0.268
 10
0.21536
 20
0.26432
 10
0.21234
 20
0.2607
 10
0.20913
 20
0.25714
 10
0.18356
 20
0.26448
 10
0.18272
 20
0.26919
 10
0.18208
 20
0.27387
 10
0.18163
 20
0.27849
 10
0.18138
 20
0.28305
 10
0.18134
 20
0.28754
 10
0.18154
 20
0.29195
 10
0.182
 20
0.29627
 10
0.18278
 20
0.30047
 10
0.18335
 20
0.3025
 10
0.18349
 20
0.3047
 10
0.1835
 20
0.30582
 10
0.18338
 20
0.307
 10
0.18304
 20
0.30827
 10
0.18147
 20
0.31006
 10
0.15985
 20
0.32061
 10
0.15747
 20
0.32074
 10
0.15625
 20
0.32023
 10
0.15526
 20
0.3196
 10
0.15437
 20
0.3189
 10
0.15273
 20
0.31743
 10
0.15148
 20
0.31573
 10
0.14865
 20
0.31254
 10
0.14553
 20
0.30952
 10
0.14218
 20
0.30664
 10
0.13861
 20
0.3039
 10
0.13487
 20
0.30129
 10
0.13095
 20
0.2988
 10
0.12687
 20
0.29644
 10
0.12264
 20
0.29419
 10
0.10111
 20
0.30983
 10
0.10194
 20
0.31455
 10
0.10293
 20
0.31916
 10
0.10409
 20
0.32365
 10
0.10542
 20
0.32802
 10
0.10692
 20
0.33226
 10
0.10862
 20
0.33634
 10
0.11052
 20
0.34024
 10
0.11269
 20
0.34391
 10
0.11392
 20
0.34563
 10
0.1148
 20
0.34764
 10
0.1152
 20
0.3487
 10
0.11549
 20
0.34985
 10
0.11561
 20
0.35116
 10
0.11474
 20
0.35338
 10
0.09803
 20
0.37069
 10
0.09584
 20
0.37163
 10
0.09453
 20
0.37156
 10
0.09337
 20
0.3713
 10
0.0923
 20
0.37095
 10
0.09025
 20
0.37013
 10
0.0885
 20
0.36897
 10
0.08475
 20
0.36693
 10
0.08079
 20
0.36516
 10
0.07665
 20
0.36361
 10
0.07237
 20
0.36225
 10
0.06795
 20
0.36108
 10
0.06342
 20
0.36008
 10
0.05877
 20
0.35925
 10
0.05403
 20
0.35858
 10
0.03915
 20
0.38064
 10
0.04155
 20
0.38479
 10
0.04405
 20
0.38879
 10
0.04668
 20
0.39262
 10
0.04942
 20
0.39627
 10
0.05228
 20
0.39973
 10
0.05527
 20
0.40299
 10
0.0584
 20
0.406
 10
0.06169
 20
0.40871
 10
0.06343
 20
0.4099
 10
0.06495
 20
0.41149
 10
0.06568
 20
0.41235
 10
0.06635
 20
0.41333
 10
0.06691
 20
0.41452
 10
0.06686
 20
0.4169
 10
0.05707
 20
0.43889
 10
0.05533
 20
0.44052
 10
0.05407
 20
0.4409
 10
0.0529
 20
0.44106
 10
0.05178
 20
0.44109
 10
0.04957
 20
0.44102
 10
0.04753
 20
0.44053
 10
0.04331
 20
0.43989
 10
0.03897
 20
0.43959
 10
0.03456
 20
0.43954
 10
0.03007
 20
0.43973
 10
0.02552
 20
0.44014
 10
0.02092
 20
0.44075
 10
0.01627
 20
0.44156
 10
0.01158
 20
0.44256
 10
0.00515
 20
0.46838
 10
0.00882
 20
0.47146
 10
0.01254
 20
0.47435
 10
0.01631
 20
0.47705
 10
0.02014
 20
0.47955
 10
0.02401
 20
0.48183
 10
0.02793
 20
0.48386
 10
0.0319
 20
0.48562
 10
0.03593
 20
0.48705
 10
0.03797
 20
0.48757
 10
0.03994
 20
0.48855
 10
0.04092
 20
0.4891
 10
0.04188
 20
0.48979
 10
0.04282
 20
0.49072
 10
0.04358
 20
0.49298
 10
0.0419
 20
0.51698
 10
0.04083
 20
0.51911
 10
0.03978
 20
0.5199
 10
0.03873
 20
0.52045
 10
0.03768
 20
0.52086
 10
0.03559
 20
0.52155
 10
0.0335
 20
0.52179
 10
0.02932
 20
0.52264
 10
0.02514
 20
0.52383
 10
0.02097
 20
0.5253
 10
0.01682
 20
0.52701
 10
0.01269
 20
0.52895
 10
0.00857
 20
0.5311
 10
0.00448
 20
0.53345
 10
0.00042
 20
0.53599
 10
0.0032
 20
0.56245
 10
0.0077
 20
0.56409
 10
0.01219
 20
0.56554
 10
0.01666
 20
0.56679
 10
0.02111
 20
0.56782
 10
0.02553
 20
0.56864
 10
0.02991
 20
0.56921
 10
0.03424
 20
0.56951
 10
0.03851
 20
0.56947
 10
0.04061
 20
0.56926
 10
0.0428
 20
0.5695
 10
0.04391
 20
0.56969
 10
0.04505
 20
0.57001
 10
0.04624
 20
0.57056
 10
0.04773
 20
0.57242
 10
0.05436
 20
0.59555
 10
0.05408
 20
0.59792
 10
0.05337
 20
0.59902
 10
0.05257
 20
0.5999
 10
0.05173
 20
0.60064
 10
0.04999
 20
0.60201
 10
0.04811
 20
0.60294
 10
0.04447
 20
0.60517
 10
0.04095
 20
0.60772
 10
0.03754
 20
0.61053
 10
0.03422
 20
0.61356
 10
0.031
 20
0.6168
 10
0.02787
 20
0.62022
 10
0.02483
 20
0.62383
 10
0.02188
 20
0.62761
 10
0.03355
 20
0.65152
 10
0.03834
 20
0.65152
 10
0.04305
 20
0.65135
 10
0.04768
 20
0.65099
 10
0.05221
 20
0.65044
 10
0.05664
 20
0.64969
 10
0.06096
 20
0.64873
 10
0.06513
 20
0.64753
 10
0.06913
 20
0.64604
 10
0.07102
 20
0.64513
 10
0.07317
 20
0.6446
 10
0.07427
 20
0.6444
 10
0.07545
 20
0.64431
 10
0.07676
 20
0.64442
 10
0.0788
 20
0.64566
 10
0.09295
 20
0.66512
 10
0.09349
 20
0.66744
 10
0.09319
 20
0.66873
 10
0.09274
 20
0.66982
 10
0.09221
 20
0.67081
 10
0.09105
 20
0.67268
 10
0.0896
 20
0.67421
 10
0.08694
 20
0.67755
 10
0.0845
 20
0.68115
 10
0.08226
 20
0.68495
 10
0.08018
 20
0.68893
 10
0.07826
 20
0.69308
 10
0.07649
 20
0.69737
 10
0.07486
 20
0.7018
 10
0.07339
 20
0.70635
 10
0.09252
 20
0.72484
 10
0.09703
 20
0.7232
 10
0.1014
 20
0.72142
 10
0.10562
 20
0.7195
 10
0.1097
 20
0.71744
 10
0.11361
 20
0.71522
 10
0.11733
 20
0.71284
 10
0.12084
 20
0.71029
 10
0.12408
 20
0.70751
 10
0.12556
 20
0.70601
 10
0.12739
 20
0.70479
 10
0.12836
 20
0.70421
 10
0.12944
 20
0.70373
 10
0.13071
 20
0.70339
 10
0.13305
 20
0.70385
 10
0.15299
 20
0.7173
 10
0.1543
 20
0.7193
 10
0.15446
 20
0.7206
 10
0.15441
 20
0.72179
 10
0.15425
 20
0.7229
 10
0.1538
 20
0.72506
 10
0.15295
 20
0.72699
 10
0.1516
 20
0.73103
 10
0.15054
 20
0.73525
 10
0.14973
 20
0.73959
 10
0.14914
 20
0.74404
 10
0.14875
 20
0.74859
 10
0.14856
 20
0.75323
 10
0.14855
 20
0.75795
 10
0.14872
 20
0.76274
 10
0.17302
 20
0.77356
 10
0.17669
 20
0.77048
 10
0.18019
 20
0.76732
 10
0.18351
 20
0.76407
 10
0.18663
 20
0.76073
 10
0.18954
 20
0.75731
 10
0.19223
 20
0.75381
 10
0.19465
 20
0.7502
 10
0.19675
 20
0.74649
 10
0.19762
 20
0.74457
 10
0.19893
 20
0.74279
 10
0.19964
 20
0.74193
 10
0.20049
 20
0.7411
 10
0.20157
 20
0.74034
 10
0.20392
 20
0.73998
 10
0.22727
 20
0.7458
 10
0.22918
 20
0.74723
 10
0.22977
 20
0.7484
 10
0.23013
 20
0.74953
 10
0.23036
 20
0.75063
 10
0.23068
 20
0.75281
 10
0.23054
 20
0.75491
 10
0.23065
 20
0.75918
 10
0.2311
 20
0.7635
 10
0.23183
 20
0.76786
 10
0.23279
 20
0.77224
 10
0.23399
 20
0.77665
 10
0.23539
 20
0.78108
 10
0.23699
 20
0.78551
 10
0.23879
 20
0.78996
 10
0.26533
 20
0.79181
 10
0.26773
 20
0.78766
 10
0.26993
 20
0.78349
 10
0.27194
 20
0.77931
 10
0.27373
 20
0.77511
 10
0.2753
 20
0.7709
 10
0.27662
 20
0.76668
 10
0.27767
 20
0.76247
 10
0.27837
 20
0.75826
 10
0.27853
 20
0.75616
 10
0.27915
 20
0.75404
 10
0.27953
 20
0.75298
 10
0.28004
 20
0.75191
 10
0.28079
 20
0.75084
 10
0.28288
 20
0.74969
 10
0.30681
 20
0.74717
 10
0.30909
 20
0.74786
 10
0.31005
 20
0.74876
 10
0.31078
 20
0.7497
 10
0.31137
 20
0.75066
 10
0.31241
 20
0.7526
 10
0.313
 20
0.75462
 10
0.31457
 20
0.75859
 10
0.31647
 20
0.76249
 10
0.31864
 20
0.76634
 10
0.32105
 20
0.77013
 10
0.32367
 20
0.77387
 10
0.32651
 20
0.77755
 10
0.32953
 20
0.78117
 10
0.33274
 20
0.78473
 10
0.35831
 20
0.77739
 10
0.35915
 20
0.77268
 10
0.35979
 20
0.768
 10
0.36024
 20
0.76338
 10
0.36049
 20
0.75882
 10
0.36053
 20
0.75433
 10
0.36033
 20
0.74992
 10
0.35987
 20
0.7456
 10
0.35909
 20
0.7414
 10
0.35852
 20
0.73937
 10
0.35838
 20
0.73718
 10
0.35837
 20
0.73605
 10
0.35849
 20
0.73487
 10
0.35883
 20
0.7336
 10
0.3604
 20
0.73181
 10
0.38203
 20
0.72126
 10
0.3844
 20
0.72113
 10
0.38562
 20
0.72164
 10
0.38662
 20
0.72227
 10
0.3875
 20
0.72297
 10
0.38914
 20
0.72444
 10
0.39039
 20
0.72614
 10
0.39322
 20
0.72933
 10
0.39634
 20
0.73235
 10
0.39969
 20
0.73523
 10
0.40326
 20
0.73797
 10
0.407
 20
0.74058
 10
0.41092
 20
0.74307
 10
0.415
 20
0.74543
 10
0.41923
 20
0.74768
 10
0.44076
 20
0.73204
 10
0.43993
 20
0.72732
 10
0.43894
 20
0.72271
 10
0.43778
 20
0.71822
 10
0.43645
 20
0.71385
 10
0.43495
 20
0.70961
 10
0.43326
 20
0.70553
 10
0.43135
 20
0.70163
 10
0.42918
 20
0.69796
 10
0.42795
 20
0.69624
 10
0.42707
 20
0.69423
 10
0.42667
 20
0.69317
 10
0.42638
 20
0.69202
 10
0.42626
 20
0.69071
 10
0.42713
 20
0.68849
 10
0.44384
 20
0.67118
 10
0.44603
 20
0.67024
 10
0.44734
 20
0.67031
 10
0.4485
 20
0.67057
 10
0.44957
 20
0.67092
 10
0.45162
 20
0.67174
 10
0.45337
 20
0.6729
 10
0.45712
 20
0.67494
 10
0.46109
 20
0.67671
 10
0.46522
 20
0.67827
 10
0.4695
 20
0.67962
 10
0.47392
 20
0.68079
 10
0.47845
 20
0.68179
 10
0.4831
 20
0.68262
 10
0.48784
 20
0.68329
 10
0.50272
 20
0.66123
 10
0.50033
 20
0.65708
 10
0.49782
 20
0.65308
 10
0.49519
 20
0.64925
 10
0.49245
 20
0.6456
 10
0.48959
 20
0.64214
 10
0.4866
 20
0.63888
 10
0.48347
 20
0.63587
 10
0.48018
 20
0.63316
 10
0.47844
 20
0.63197
 10
0.47692
 20
0.63038
 10
0.47619
 20
0.62952
 10
0.47552
 20
0.62854
 10
0.47496
 20
0.62735
 10
0.47501
 20
0.62497
 10
0.4848
 20
0.60298
 10
0.48654
 20
0.60135
 10
0.4878
 20
0.60097
 10
0.48897
 20
0.60081
 10
0.4901
 20
0.60078
 10
0.4923
 20
0.60085
 10
0.49434
 20
0.60134
 10
0.49857
 20
0.60198
 10
0.5029
 20
0.60228
 10
0.50731
 20
0.60233
 10
0.5118
 20
0.60214
 10
0.51635
 20
0.60173
 10
0.52095
 20
0.60112
 10
0.5256
 20
0.60031
 10
0.53029
 20
0.59931
 10
0.53672
 20
0.57349
 10
0.53305
 20
0.57041
 10
0.52933
 20
0.56752
 10
0.52556
 20
0.56482
 10
0.52173
 20
0.56232
 10
0.51786
 20
0.56004
 10
0.51394
 20
0.55801
 10
0.50997
 20
0.55625
 10
0.50594
 20
0.55482
 10
0.5039
 20
0.5543
 10
0.50193
 20
0.55333
 10
0.50095
 20
0.55277
 10
0.49999
 20
0.55208
 10
0.49905
 20
0.55115
 10
0.49829
 20
0.54889
 0
CIRCLE
 8
profile
 10
0.27094
 20
0.52094
 40
0.0315
 0
LWPOLYLINE
 8
profile
 90
648
 70
1
 10
0.54198
 20
0.51085
 10
0.54022
 20
0.51117
 10
0.53847
 20
0.51153
 10
0.53497
 20
0.51234
 10
0.52796
 20
0.51427
 10
0.52095
 20
0.51657
 10
0.51396
 20
0.51922
 10
0.50698
 20
0.52218
 10
0.50002
 20
0.52543
 10
0.50097
 20
0.55279
 10
0.50815
 20
0.55555
 10
0.51531
 20
0.55802
 10
0.52248
 20
0.56016
 10
0.52962
 20
0.56197
 10
0.53675
 20
0.56341
 10
0.5403
 20
0.56397
 10
0.54208
 20
0.56421
 10
0.54385
 20
0.56441
 10
0.5475
 20
0.59417
 10
0.54583
 20
0.5948
 10
0.54417
 20
0.59545
 10
0.54086
 20
0.59686
 10
0.53429
 20
0.59997
 10
0.52779
 20
0.60346
 10
0.52136
 20
0.60728
 10
0.515
 20
0.6114
 10
0.50871
 20
0.61582
 10
0.5144
 20
0.64259
 10
0.52195
 20
0.64407
 10
0.52944
 20
0.64525
 10
0.53686
 20
0.64613
 10
0.54422
 20
0.64667
 10
0.55148
 20
0.64684
 10
0.55508
 20
0.64678
 10
0.55687
 20
0.6467
 10
0.55864
 20
0.6466
 10
0.56741
 20
0.67527
 10
0.56588
 20
0.67617
 10
0.56435
 20
0.67711
 10
0.56134
 20
0.67907
 10
0.55541
 20
0.68328
 10
0.54961
 20
0.68784
 10
0.54395
 20
0.69272
 10
0.5384
 20
0.69788
 10
0.53297
 20
0.70333
 10
0.54323
 20
0.7287
 10
0.55091
 20
0.72885
 10
0.55849
 20
0.72871
 10
0.56595
 20
0.72828
 10
0.57329
 20
0.72754
 10
0.58048
 20
0.72645
 10
0.58401
 20
0.72576
 10
0.58576
 20
0.72538
 10
0.58749
 20
0.72496
 10
0.6011
 20
0.75168
 10
0.59975
 20
0.75284
 10
0.59841
 20
0.75402
 10
0.59578
 20
0.75647
 10
0.59067
 20
0.76165
 10
0.58576
 20
0.76715
 10
0.58102
 20
0.77293
 10
0.57646
 20
0.77899
 10
0.57206
 20
0.78529
 10
0.58656
 20
0.8085
 10
0.59415
 20
0.80731
 10
0.60159
 20
0.80586
 10
0.60887
 20
0.80414
 10
0.61597
 20
0.80213
 10
0.62286
 20
0.79981
 10
0.62621
 20
0.79852
 10
0.62787
 20
0.79784
 10
0.6295
 20
0.79713
 10
0.64755
 20
0.82107
 10
0.64641
 20
0.82245
 10
0.6453
 20
0.82385
 10
0.64314
 20
0.82672
 10
0.63901
 20
0.83271
 10
0.63512
 20
0.83897
 10
0.63146
 20
0.8455
 10
0.62802
 20
0.85225
 10
0.62478
 20
0.85922
 10
0.6431
 20
0.87956
 10
0.65037
 20
0.87707
 10
0.65744
 20
0.87435
 10
0.66431
 20
0.87139
 10
0.67095
 20
0.86818
 10
0.67733
 20
0.8647
 10
0.68041
 20
0.86285
 10
0.68192
 20
0.86189
 10
0.68341
 20
0.86091
 10
0.70534
 20
0.88135
 10
0.70446
 20
0.88291
 10
0.70361
 20
0.88448
 10
0.70198
 20
0.88768
 10
0.69895
 20
0.89429
 10
0.69621
 20
0.90114
 10
0.69374
 20
0.9082
 10
0.69152
 20
0.91544
 10
0.68954
 20
0.92287
 10
0.71111
 20
0.93972
 10
0.71784
 20
0.936
 10
0.72433
 20
0.9321
 10
0.73058
 20
0.92799
 10
0.73657
 20
0.92368
 10
0.74225
 20
0.91914
 10
0.74496
 20
0.91678
 10
0.74628
 20
0.91558
 10
0.74757
 20
0.91435
 10
0.77272
 20
0.93068
 10
0.77213
 20
0.93236
 10
0.77156
 20
0.93406
 10
0.77051
 20
0.9375
 10
0.76867
 20
0.94453
 10
0.76717
 20
0.95175
 10
0.76596
 20
0.95913
 10
0.76503
 20
0.96665
 10
0.76437
 20
0.97431
 10
0.78854
 20
0.98716
 10
0.79452
 20
0.98233
 10
0.80024
 20
0.97736
 10
0.80568
 20
0.97223
 10
0.81082
 20
0.96694
 10
0.81563
 20
0.96149
 10
0.81789
 20
0.95869
 10
0.81898
 20
0.95727
 10
0.82004
 20
0.95584
 10
0.84764
 20
0.96756
 10
0.84735
 20
0.96932
 10
0.84709
 20
0.97109
 10
0.84665
 20
0.97465
 10
0.84606
 20
0.9819
 10
0.84583
 20
0.98927
 10
0.84592
 20
0.99675
 10
0.84632
 20
1.00432
 10
0.847
 20
1.01197
 10
0.87303
 20
1.02043
 10
0.87808
 20
1.01464
 10
0.88285
 20
1.00875
 10
0.88732
 20
1.00275
 10
0.89146
 20
0.99665
 10
0.89525
 20
0.99045
 10
0.89699
 20
0.9873
 10
0.89782
 20
0.98571
 10
0.89862
 20
0.98412
 10
0.92783
 20
0.99087
 10
0.92785
 20
0.99265
 10
0.9279
 20
0.99444
 10
0.92808
 20
0.99803
 10
0.92876
 20
1.00526
 10
0.92982
 20
1.01256
 10
0.93121
 20
1.01991
 10
0.93291
 20
1.0273
 10
0.93491
 20
1.03472
 10
0.96201
 20
1.03853
 10
0.96598
 20
1.03195
 10
0.96965
 20
1.02531
 10
0.97301
 20
1.01863
 10
0.97604
 20
1.01191
 10
0.97869
 20
1.00514
 10
0.97986
 20
1.00174
 10
0.9804
 20
1.00003
 10
0.9809
 20
0.99832
 10
1.01085
 20
0.99989
 10
1.01117
 20
1.00165
 10
1.01153
 20
1.0034
 10
1.01234
 20
1.0069
 10
1.01427
 20
1.01391
 10
1.01657
 20
1.02092
 10
1.01922
 20
1.02791
 10
1.02218
 20
1.03489
 10
1.02543
 20
1.04185
 10
1.05279
 20
1.0409
 10
1.05555
 20
1.03373
 10
1.05802
 20
1.02656
 10
1.06016
 20
1.01939
 10
1.06197
 20
1.01225
 10
1.06341
 20
1.00512
 10
1.06397
 20
1.00157
 10
1.06421
 20
0.99979
 10
1.06441
 20
0.99802
 10
1.09417
 20
0.99437
 10
1.0948
 20
0.99604
 10
1.09545
 20
0.9977
 10
1.09686
 20
1.00101
 10
1.09997
 20
1.00758
 10
1.10346
 20
1.01408
 10
1.10728
 20
1.02051
 10
1.1114
 20
1.02687
 10
1.11582
 20
1.03316
 10
1.14259
 20
1.02747
 10
1.14407
 20
1.01992
 10
1.14525
 20
1.01244
 10
1.14613
 20
1.00501
 10
1.14667
 20
0.99766
 10
1.14684
 20
0.99039
 10
1.14678
 20
0.98679
 10
1.1467
 20
0.985
 10
1.1466
 20
0.98323
 10
1.17527
 20
0.97446
 10
1.17617
 20
0.97599
 10
1.17711
 20
0.97752
 10
1.17907
 20
0.98054
 10
1.18328
 20
0.98646
 10
1.18784
 20
0.99226
 10
1.19272
 20
0.99792
 10
1.19788
 20
1.00347
 10
1.20333
 20
1.0089
 10
1.2287
 20
0.99864
 10
1.22885
 20
0.99096
 10
1.22871
 20
0.98338
 10
1.22828
 20
0.97592
 10
1.22754
 20
0.96858
 10
1.22645
 20
0.96139
 10
1.22576
 20
0.95786
 10
1.22538
 20
0.95612
 10
1.22496
 20
0.95438
 10
1.25168
 20
0.94077
 10
1.25284
 20
0.94212
 10
1.25402
 20
0.94346
 10
1.25647
 20
0.94609
 10
1.26165
 20
0.9512
 10
1.26715
 20
0.95611
 10
1.27293
 20
0.96085
 10
1.27899
 20
0.96541
 10
1.28529
 20
0.96981
 10
1.3085
 20
0.95531
 10
1.30731
 20
0.94772
 10
1.30586
 20
0.94028
 10
1.30414
 20
0.933
 10
1.30213
 20
0.9259
 10
1.29981
 20
0.91901
 10
1.29852
 20
0.91566
 10
1.29784
 20
0.914
 10
1.29713
 20
0.91237
 10
1.32107
 20
0.89432
 10
1.32245
 20
0.89546
 10
1.32385
 20
0.89657
 10
1.32672
 20
0.89873
 10
1.33271
 20
0.90286
 10
1.33897
 20
0.90675
 10
1.3455
 20
0.91041
 10
1.35225
 20
0.91385
 10
1.35922
 20
0.91709
 10
1.37956
 20
0.89877
 10
1.37707
 20
0.89151
 10
1.37435
 20
0.88443
 10
1.37139
 20
0.87756
 10
1.36818
 20
0.87092
 10
1.3647
 20
0.86454
 10
1.36285
 20
0.86146
 10
1.36189
 20
0.85995
 10
1.36091
 20
0.85846
 10
1.38135
 20
0.83653
 10
1.38291
 20
0.83741
 10
1.38448
 20
0.83826
 10
1.38768
 20
0.83989
 10
1.39429
 20
0.84292
 10
1.40114
 20
0.84566
 10
1.4082
 20
0.84813
 10
1.41544
 20
0.85035
 10
1.42287
 20
0.85233
 10
1.43972
 20
0.83076
 10
1.436
 20
0.82403
 10
1.4321
 20
0.81754
 10
1.42799
 20
0.81129
 10
1.42368
 20
0.80531
 10
1.41914
 20
0.79962
 10
1.41678
 20
0.79691
 10
1.41558
 20
0.79559
 10
1.41435
 20
0.7943
 10
1.43068
 20
0.76915
 10
1.43236
 20
0.76974
 10
1.43406
 20
0.77031
 10
1.4375
 20
0.77136
 10
1.44453
 20
0.7732
 10
1.45175
 20
0.7747
 10
1.45913
 20
0.77591
 10
1.46665
 20
0.77684
 10
1.47431
 20
0.7775
 10
1.48716
 20
0.75333
 10
1.48233
 20
0.74735
 10
1.47736
 20
0.74163
 10
1.47223
 20
0.73619
 10
1.46694
 20
0.73105
 10
1.46149
 20
0.72624
 10
1.45869
 20
0.72398
 10
1.45727
 20
0.72289
 10
1.45584
 20
0.72183
 10
1.46756
 20
0.69423
 10
1.46932
 20
0.69452
 10
1.47109
 20
0.69478
 10
1.47465
 20
0.69522
 10
1.4819
 20
0.69581
 10
1.48927
 20
0.69604
 10
1.49675
 20
0.69595
 10
1.50432
 20
0.69555
 10
1.51197
 20
0.69487
 10
1.52043
 20
0.66884
 10
1.51464
 20
0.66379
 10
1.50875
 20
0.65902
 10
1.50275
 20
0.65455
 10
1.49665
 20
0.65041
 10
1.49045
 20
0.64662
 10
1.4873
 20
0.64488
 10
1.48571
 20
0.64405
 10
1.48412
 20
0.64326
 10
1.49087
 20
0.61404
 10
1.49265
 20
0.61402
 10
1.49444
 20
0.61397
 10
1.49803
 20
0.61379
 10
1.50526
 20
0.61311
 10
1.51256
 20
0.61205
 10
1.51991
 20
0.61066
 10
1.5273
 20
0.60896
 10
1.53472
 20
0.60696
 10
1.53853
 20
0.57986
 10
1.53195
 20
0.57589
 10
1.52531
 20
0.57222
 10
1.51863
 20
0.56886
 10
1.51191
 20
0.56583
 10
1.50514
 20
0.56318
 10
1.50174
 20
0.56201
 10
1.50003
 20
0.56147
 10
1.49832
 20
0.56097
 10
1.49989
 20
0.53102
 10
1.50165
 20
0.5307
 10
1.5034
 20
0.53034
 10
1.5069
 20
0.52953
 10
1.51391
 20
0.5276
 10
1.52092
 20
0.5253
 10
1.52791
 20
0.52265
 10
1.53489
 20
0.5197
 10
1.54185
 20
0.51644
 10
1.5409
 20
0.48908
 10
1.53373
 20
0.48632
 10
1.52656
 20
0.48386
 10
1.51939
 20
0.48171
 10
1.51225
 20
0.4799
 10
1.50512
 20
0.47846
 10
1.50157
 20
0.4779
 10
1.49979
 20
0.47766
 10
1.49802
 20
0.47746
 10
1.49437
 20
0.4477
 10
1.49604
 20
0.44707
 10
1.4977
 20
0.44642
 10
1.50101
 20
0.44501
 10
1.50758
 20
0.4419
 10
1.51408
 20
0.43841
 10
1.52051
 20
0.43459
 10
1.52687
 20
0.43047
 10
1.53316
 20
0.42605
 10
1.52747
 20
0.39928
 10
1.51992
 20
0.3978
 10
1.51244
 20
0.39662
 10
1.50501
 20
0.39575
 10
1.49766
 20
0.3952
 10
1.49039
 20
0.39503
 10
1.48679
 20
0.39509
 10
1.485
 20
0.39517
 10
1.48323
 20
0.39527
 10
1.47446
 20
0.3666
 10
1.47599
 20
0.3657
 10
1.47752
 20
0.36476
 10
1.48054
 20
0.3628
 10
1.48646
 20
0.35859
 10
1.49226
 20
0.35403
 10
1.49792
 20
0.34916
 10
1.50347
 20
0.34399
 10
1.5089
 20
0.33855
 10
1.49864
 20
0.31317
 10
1.49096
 20
0.31302
 10
1.48338
 20
0.31316
 10
1.47592
 20
0.31359
 10
1.46858
 20
0.31433
 10
1.46139
 20
0.31542
 10
1.45786
 20
0.31611
 10
1.45612
 20
0.31649
 10
1.45438
 20
0.31691
 10
1.44077
 20
0.29019
 10
1.44212
 20
0.28903
 10
1.44346
 20
0.28785
 10
1.44609
 20
0.2854
 10
1.4512
 20
0.28022
 10
1.45611
 20
0.27472
 10
1.46085
 20
0.26894
 10
1.46541
 20
0.26288
 10
1.46981
 20
0.25658
 10
1.45531
 20
0.23337
 10
1.44772
 20
0.23456
 10
1.44028
 20
0.23601
 10
1.433
 20
0.23773
 10
1.4259
 20
0.23974
 10
1.41901
 20
0.24206
 10
1.41566
 20
0.24335
 10
1.414
 20
0.24403
 10
1.41237
 20
0.24474
 10
1.39432
 20
0.2208
 10
1.39546
 20
0.21942
 10
1.39657
 20
0.21802
 10
1.39873
 20
0.21515
 10
1.40286
 20
0.20916
 10
1.40675
 20
0.2029
 10
1.41041
 20
0.19637
 10
1.41385
 20
0.18962
 10
1.41709
 20
0.18265
 10
1.39877
 20
0.16231
 10
1.39151
 20
0.1648
 10
1.38443
 20
0.16752
 10
1.37756
 20
0.17048
 10
1.37092
 20
0.17369
 10
1.36454
 20
0.17717
 10
1.36146
 20
0.17902
 10
1.35995
 20
0.17998
 10
1.35846
 20
0.18096
 10
1.33653
 20
0.16052
 10
1.33741
 20
0.15896
 10
1.33826
 20
0.15739
 10
1.33989
 20
0.15419
 10
1.34292
 20
0.14758
 10
1.34566
 20
0.14073
 10
1.34813
 20
0.13367
 10
1.35035
 20
0.12643
 10
1.35233
 20
0.119
 10
1.33076
 20
0.10215
 10
1.32403
 20
0.10587
 10
1.31754
 20
0.10977
 10
1.31129
 20
0.11388
 10
1.30531
 20
0.11819
 10
1.29962
 20
0.12273
 10
1.29691
 20
0.12509
 10
1.29559
 20
0.12629
 10
1.2943
 20
0.12752
 10
1.26915
 20
0.11119
 10
1.26974
 20
0.10951
 10
1.27031
 20
0.10781
 10
1.27136
 20
0.10437
 10
1.2732
 20
0.09734
 10
1.2747
 20
0.09012
 10
1.27591
 20
0.08274
 10
1.27684
 20
0.07522
 10
1.2775
 20
0.06756
 10
1.25333
 20
0.05471
 10
1.24735
 20
0.05954
 10
1.24163
 20
0.06451
 10
1.23619
 20
0.06964
 10
1.23105
 20
0.07493
 10
1.22624
 20
0.08038
 10
1.22398
 20
0.08318
 10
1.22289
 20
0.0846
 10
1.22183
 20
0.08603
 10
1.19423
 20
0.07431
 10
1.19452
 20
0.07255
 10
1.19478
 20
0.07078
 10
1.19522
 20
0.06722
 10
1.19581
 20
0.05997
 10
1.19604
 20
0.0526
 10
1.19595
 20
0.04512
 10
1.19555
 20
0.03755
 10
1.19487
 20
0.0299
 10
1.16884
 20
0.02144
 10
1.16379
 20
0.02723
 10
1.15902
 20
0.03313
 10
1.15455
 20
0.03912
 10
1.15041
 20
0.04522
 10
1.14662
 20
0.05142
 10
1.14488
 20
0.05457
 10
1.14405
 20
0.05616
 10
1.14326
 20
0.05775
 10
1.11404
 20
0.05101
 10
1.11402
 20
0.04922
 10
1.11397
 20
0.04744
 10
1.11379
 20
0.04384
 10
1.11311
 20
0.03661
 10
1.11205
 20
0.02931
 10
1.11066
 20
0.02196
 10
1.10896
 20
0.01457
 10
1.10696
 20
0.00715
 10
1.07986
 20
0.00334
 10
1.07589
 20
0.00993
 10
1.07222
 20
0.01656
 10
1.06886
 20
0.02324
 10
1.06583
 20
0.02996
 10
1.06318
 20
0.03673
 10
1.06201
 20
0.04013
 10
1.06147
 20
0.04184
 10
1.06097
 20
0.04355
 10
1.03102
 20
0.04198
 10
1.0307
 20
0.04022
 10
1.03034
 20
0.03847
 10
1.02953
 20
0.03497
 10
1.0276
 20
0.02796
 10
1.0253
 20
0.02095
 10
1.02265
 20
0.01396
 10
1.0197
 20
0.00698
 10
1.01644
 20
0.00002
 10
0.98908
 20
0.00097
 10
0.98632
 20
0.00815
 10
0.98386
 20
0.01531
 10
0.98171
 20
0.02248
 10
0.9799
 20
0.02962
 10
0.97846
 20
0.03675
 10
0.9779
 20
0.0403
 10
0.97766
 20
0.04208
 10
0.97746
 20
0.04385
 10
0.9477
 20
0.0475
 10
0.94707
 20
0.04583
 10
0.94642
 20
0.04417
 10
0.94501
 20
0.04086
 10
0.9419
 20
0.03429
 10
0.93841
 20
0.02779
 10
0.93459
 20
0.02136
 10
0.93047
 20
0.015
 10
0.92605
 20
0.00871
 10
0.89928
 20
0.0144
 10
0.8978
 20
0.02195
 10
0.89662
 20
0.02944
 10
0.89575
 20
0.03686
 10
0.8952
 20
0.04422
 10
0.89503
 20
0.05148
 10
0.89509
 20
0.05508
 10
0.89517
 20
0.05687
 10
0.89527
 20
0.05864
 10
0.8666
 20
0.06741
 10
0.8657
 20
0.06588
 10
0.86476
 20
0.06435
 10
0.8628
 20
0.06134
 10
0.85859
 20
0.05541
 10
0.85403
 20
0.04961
 10
0.84916
 20
0.04395
 10
0.84399
 20
0.0384
 10
0.83855
 20
0.03297
 10
0.81317
 20
0.04323
 10
0.81302
 20
0.05091
 10
0.81316
 20
0.05849
 10
0.81359
 20
0.06595
 10
0.81433
 20
0.07329
 10
0.81542
 20
0.08048
 10
0.81611
 20
0.08401
 10
0.81649
 20
0.08576
 10
0.81691
 20
0.08749
 10
0.79019
 20
0.1011
 10
0.78903
 20
0.09975
 10
0.78785
 20
0.09841
 10
0.7854
 20
0.09578
 10
0.78022
 20
0.09067
 10
0.77472
 20
0.08576
 10
0.76894
 20
0.08102
 10
0.76288
 20
0.07646
 10
0.75658
 20
0.07206
 10
0.73337
 20
0.08656
 10
0.73456
 20
0.09415
 10
0.73601
 20
0.10159
 10
0.73773
 20
0.10887
 10
0.73974
 20
0.11597
 10
0.74206
 20
0.12286
 10
0.74335
 20
0.12621
 10
0.74403
 20
0.12787
 10
0.74474
 20
0.1295
 10
0.7208
 20
0.14755
 10
0.71942
 20
0.14641
 10
0.71802
 20
0.1453
 10
0.71515
 20
0.14314
 10
0.70916
 20
0.13901
 10
0.7029
 20
0.13512
 10
0.69637
 20
0.13146
 10
0.68962
 20
0.12802
 10
0.68265
 20
0.12478
 10
0.66231
 20
0.1431
 10
0.6648
 20
0.15037
 10
0.66752
 20
0.15744
 10
0.67048
 20
0.16431
 10
0.67369
 20
0.17095
 10
0.67717
 20
0.17733
 10
0.67902
 20
0.18041
 10
0.67998
 20
0.18192
 10
0.68096
 20
0.18341
 10
0.66052
 20
0.20534
 10
0.65896
 20
0.20446
 10
0.65739
 20
0.20361
 10
0.65419
 20
0.20198
 10
0.64758
 20
0.19895
 10
0.64073
 20
0.19621
 10
0.63367
 20
0.19374
 10
0.62643
 20
0.19152
 10
0.619
 20
0.18954
 10
0.60215
 20
0.21111
 10
0.60587
 20
0.21784
 10
0.60977
 20
0.22433
 10
0.61388
 20
0.23058
 10
0.61819
 20
0.23657
 10
0.62273
 20
0.24225
 10
0.62509
 20
0.24496
 10
0.62629
 20
0.24628
 10
0.62752
 20
0.24757
 10
0.61119
 20
0.27272
 10
0.60951
 20
0.27213
 10
0.60781
 20
0.27156
 10
0.60437
 20
0.27051
 10
0.59734
 20
0.26867
 10
0.59012
 20
0.26717
 10
0.58274
 20
0.26596
 10
0.57522
 20
0.26503
 10
0.56756
 20
0.26437
 10
0.55471
 20
0.28854
 10
0.55954
 20
0.29452
 10
0.56451
 20
0.30024
 10
0.56964
 20
0.30568
 10
0.57493
 20
0.31082
 10
0.58038
 20
0.31563
 10
0.58318
 20
0.31789
 10
0.5846
 20
0.31898
 10
0.58603
 20
0.32004
 10
0.57431
 20
0.34764
 10
0.57255
 20
0.34735
 10
0.57078
 20
0.34709
 10
0.56722
 20
0.34665
 10
0.55997
 20
0.34606
 10
0.5526
 20
0.34583
 10
0.54512
 20
0.34592
 10
0.53755
 20
0.34632
 10
0.5299
 20
0.347
 10
0.52144
 20
0.37303
 10
0.52723
 20
0.37808
 10
0.53313
 20
0.38285
 10
0.53912
 20
0.38732
 10
0.54522
 20
0.39146
 10
0.55142
 20
0.39525
 10
0.55457
 20
0.39699
 10
0.55616
 20
0.39782
 10
0.55775
 20
0.39862
 10
0.55101
 20
0.42783
 10
0.54922
 20
0.42785
 10
0.54744
 20
0.4279
 10
0.54384
 20
0.42808
 10
0.53661
 20
0.42876
 10
0.52931
 20
0.42982
 10
0.52196
 20
0.43121
 10
0.51457
 20
0.43291
 10
0.50715
 20
0.43491
 10
0.50334
 20
0.46201
 10
0.50993
 20
0.46598
 10
0.51656
 20
0.46965
 10
0.52324
 20
0.47301
 10
0.52996
 20
0.47604
 10
0.53673
 20
0.47869
 10
0.54013
 20
0.47986
 10
0.54184
 20
0.4804
 10
0.54355
 20
0.4809
 0
CIRCLE
 8
profile
 10
1.02094
 20
0.52094
 40
0.0315
  0
ENDSEC
  0
EOF
