  999
DXF file created by gear template generator.  2011-12-27T14:24:43
  0
SECTION
  2
HEADER
  9
$ACADVER
  1
AC1006
  9
$INSBASE
  10
0.0
  20
0.0
  30
0.0
  9
$EXTMIN
  10
0.0
  20
0.0
  9
$EXTMAX
  10
10000.0
  20
10000.0
  0
ENDSEC
  0
SECTION
  2
ENTITIES
 0
LWPOLYLINE
 8
profile
 90
540
 70
1
 10
0.49995
 20
0.27567
 10
0.50104
 20
0.27326
 10
0.50209
 20
0.27235
 10
0.50314
 20
0.27171
 10
0.50419
 20
0.27123
 10
0.50628
 20
0.27032
 10
0.50837
 20
0.27008
 10
0.51256
 20
0.26924
 10
0.51673
 20
0.26804
 10
0.5209
 20
0.26657
 10
0.52505
 20
0.26486
 10
0.52918
 20
0.26292
 10
0.5333
 20
0.26077
 10
0.53739
 20
0.25842
 10
0.54145
 20
0.25588
 10
0.53867
 20
0.22942
 10
0.53417
 20
0.22778
 10
0.52968
 20
0.22633
 10
0.52521
 20
0.22508
 10
0.52076
 20
0.22405
 10
0.51634
 20
0.22323
 10
0.51196
 20
0.22266
 10
0.50763
 20
0.22236
 10
0.50336
 20
0.2224
 10
0.50127
 20
0.22261
 10
0.49903
 20
0.22215
 10
0.4979
 20
0.22189
 10
0.49674
 20
0.22149
 10
0.49552
 20
0.22082
 10
0.49396
 20
0.21868
 10
0.48776
 20
0.19706
 10
0.48795
 20
0.19442
 10
0.48863
 20
0.19321
 10
0.4894
 20
0.19225
 10
0.49022
 20
0.19143
 10
0.49188
 20
0.18986
 10
0.49376
 20
0.18893
 10
0.4974
 20
0.1867
 10
0.50092
 20
0.18415
 10
0.50433
 20
0.18134
 10
0.50765
 20
0.17831
 10
0.51087
 20
0.17508
 10
0.514
 20
0.17165
 10
0.51704
 20
0.16804
 10
0.51999
 20
0.16427
 10
0.50832
 20
0.14035
 10
0.50353
 20
0.14035
 10
0.49882
 20
0.14052
 10
0.49419
 20
0.14088
 10
0.48966
 20
0.14143
 10
0.48523
 20
0.14218
 10
0.48091
 20
0.14314
 10
0.47674
 20
0.14434
 10
0.47275
 20
0.14584
 10
0.47085
 20
0.14674
 10
0.46859
 20
0.14708
 10
0.46744
 20
0.14722
 10
0.46621
 20
0.14724
 10
0.46484
 20
0.14703
 10
0.46264
 20
0.14556
 10
0.44942
 20
0.12736
 10
0.4487
 20
0.12481
 10
0.44892
 20
0.12344
 10
0.44931
 20
0.12227
 10
0.4498
 20
0.12123
 10
0.45082
 20
0.11919
 10
0.45228
 20
0.11766
 10
0.45493
 20
0.11432
 10
0.45737
 20
0.11072
 10
0.45961
 20
0.10692
 10
0.46169
 20
0.10294
 10
0.46361
 20
0.09879
 10
0.46538
 20
0.0945
 10
0.46701
 20
0.09007
 10
0.46849
 20
0.08552
 10
0.44935
 20
0.06703
 10
0.44484
 20
0.06867
 10
0.44047
 20
0.07045
 10
0.43625
 20
0.07237
 10
0.43217
 20
0.07443
 10
0.42827
 20
0.07665
 10
0.42454
 20
0.07903
 10
0.42103
 20
0.08158
 10
0.41779
 20
0.08436
 10
0.41631
 20
0.08586
 10
0.41431
 20
0.08695
 10
0.41328
 20
0.08748
 10
0.41213
 20
0.08791
 10
0.41077
 20
0.08818
 10
0.4082
 20
0.08755
 10
0.38955
 20
0.07497
 10
0.388
 20
0.07283
 10
0.38774
 20
0.07146
 10
0.38771
 20
0.07023
 10
0.38781
 20
0.06908
 10
0.38807
 20
0.06681
 10
0.38892
 20
0.06488
 10
0.39027
 20
0.06084
 10
0.39133
 20
0.05662
 10
0.39214
 20
0.05228
 10
0.39273
 20
0.04783
 10
0.39312
 20
0.04328
 10
0.39331
 20
0.03864
 10
0.39332
 20
0.03392
 10
0.39315
 20
0.02913
 10
0.36885
 20
0.01831
 10
0.36518
 20
0.02139
 10
0.36168
 20
0.02455
 10
0.35836
 20
0.0278
 10
0.35524
 20
0.03114
 10
0.35233
 20
0.03456
 10
0.34964
 20
0.03806
 10
0.34722
 20
0.04167
 10
0.34512
 20
0.04538
 10
0.34425
 20
0.0473
 10
0.34274
 20
0.04901
 10
0.34195
 20
0.04986
 10
0.34102
 20
0.05066
 10
0.33983
 20
0.05138
 10
0.3372
 20
0.05166
 10
0.31537
 20
0.04622
 10
0.31318
 20
0.04473
 10
0.31247
 20
0.04354
 10
0.31202
 20
0.04239
 10
0.31173
 20
0.04128
 10
0.31119
 20
0.03906
 10
0.31133
 20
0.03696
 10
0.31122
 20
0.03269
 10
0.31077
 20
0.02837
 10
0.31004
 20
0.02401
 10
0.30908
 20
0.01963
 10
0.30788
 20
0.01522
 10
0.30648
 20
0.01079
 10
0.30488
 20
0.00636
 10
0.30308
 20
0.00191
 10
0.27654
 20
0.00006
 10
0.27414
 20
0.00421
 10
0.27194
 20
0.00838
 10
0.26993
 20
0.01256
 10
0.26814
 20
0.01676
 10
0.26657
 20
0.02097
 10
0.26525
 20
0.02519
 10
0.2642
 20
0.0294
 10
0.2635
 20
0.03361
 10
0.26334
 20
0.03571
 10
0.2625
 20
0.03784
 10
0.26205
 20
0.0389
 10
0.26145
 20
0.03997
 10
0.26058
 20
0.04106
 10
0.25821
 20
0.04222
 10
0.23583
 20
0.04458
 10
0.23327
 20
0.04393
 10
0.23219
 20
0.04305
 10
0.23138
 20
0.04212
 10
0.23072
 20
0.04118
 10
0.22946
 20
0.03927
 10
0.22887
 20
0.03725
 10
0.2273
 20
0.03328
 10
0.2254
 20
0.02938
 10
0.22323
 20
0.02553
 10
0.22082
 20
0.02174
 10
0.2182
 20
0.018
 10
0.21536
 20
0.01432
 10
0.21234
 20
0.0107
 10
0.20913
 20
0.00714
 10
0.18356
 20
0.01448
 10
0.18272
 20
0.01919
 10
0.18208
 20
0.02387
 10
0.18163
 20
0.02849
 10
0.18138
 20
0.03305
 10
0.18134
 20
0.03754
 10
0.18154
 20
0.04195
 10
0.182
 20
0.04627
 10
0.18278
 20
0.05047
 10
0.18335
 20
0.0525
 10
0.18329
 20
0.05478
 10
0.18323
 20
0.05593
 10
0.18303
 20
0.05714
 10
0.18258
 20
0.05846
 10
0.18075
 20
0.06037
 10
0.16053
 20
0.07023
 10
0.1579
 20
0.0705
 10
0.15659
 20
0.07004
 10
0.15551
 20
0.06945
 10
0.15456
 20
0.06879
 10
0.15273
 20
0.06743
 10
0.15148
 20
0.06573
 10
0.14865
 20
0.06254
 10
0.14553
 20
0.05952
 10
0.14218
 20
0.05664
 10
0.13861
 20
0.0539
 10
0.13487
 20
0.05129
 10
0.13095
 20
0.0488
 10
0.12687
 20
0.04644
 10
0.12264
 20
0.04419
 10
0.10111
 20
0.05983
 10
0.10194
 20
0.06455
 10
0.10293
 20
0.06916
 10
0.10409
 20
0.07365
 10
0.10542
 20
0.07802
 10
0.10692
 20
0.08226
 10
0.10862
 20
0.08634
 10
0.11052
 20
0.09024
 10
0.11269
 20
0.09391
 10
0.11392
 20
0.09563
 10
0.11464
 20
0.09779
 10
0.11498
 20
0.0989
 10
0.11521
 20
0.1001
 10
0.11524
 20
0.10149
 10
0.11417
 20
0.10391
 10
0.09855
 20
0.1201
 10
0.09616
 20
0.12125
 10
0.09477
 20
0.12127
 10
0.09356
 20
0.12108
 10
0.09244
 20
0.12078
 10
0.09025
 20
0.12013
 10
0.0885
 20
0.11897
 10
0.08475
 20
0.11693
 10
0.08079
 20
0.11516
 10
0.07665
 20
0.11361
 10
0.07237
 20
0.11225
 10
0.06795
 20
0.11108
 10
0.06342
 20
0.11008
 10
0.05877
 20
0.10925
 10
0.05403
 20
0.10858
 10
0.03915
 20
0.13064
 10
0.04155
 20
0.13479
 10
0.04405
 20
0.13879
 10
0.04668
 20
0.14262
 10
0.04942
 20
0.14627
 10
0.05228
 20
0.14973
 10
0.05527
 20
0.15299
 10
0.0584
 20
0.156
 10
0.06169
 20
0.15871
 10
0.06343
 20
0.1599
 10
0.06485
 20
0.16169
 10
0.06555
 20
0.16261
 10
0.06617
 20
0.16367
 10
0.06668
 20
0.16496
 10
0.0665
 20
0.1676
 10
0.05735
 20
0.18815
 10
0.05551
 20
0.19005
 10
0.05421
 20
0.19054
 10
0.053
 20
0.19078
 10
0.05185
 20
0.19088
 10
0.04957
 20
0.19102
 10
0.04753
 20
0.19053
 10
0.04331
 20
0.18989
 10
0.03897
 20
0.18959
 10
0.03456
 20
0.18954
 10
0.03007
 20
0.18973
 10
0.02552
 20
0.19014
 10
0.02092
 20
0.19075
 10
0.01627
 20
0.19156
 10
0.01158
 20
0.19256
 10
0.00515
 20
0.21838
 10
0.00882
 20
0.22146
 10
0.01254
 20
0.22435
 10
0.01631
 20
0.22705
 10
0.02014
 20
0.22955
 10
0.02401
 20
0.23183
 10
0.02793
 20
0.23386
 10
0.0319
 20
0.23562
 10
0.03593
 20
0.23705
 10
0.03797
 20
0.23757
 10
0.03991
 20
0.23876
 10
0.04088
 20
0.23939
 10
0.04183
 20
0.24017
 10
0.04275
 20
0.24121
 10
0.04349
 20
0.24376
 10
0.04192
 20
0.2662
 10
0.04084
 20
0.26861
 10
0.03978
 20
0.26952
 10
0.03873
 20
0.27016
 10
0.03768
 20
0.27064
 10
0.03559
 20
0.27155
 10
0.0335
 20
0.27179
 10
0.02932
 20
0.27264
 10
0.02514
 20
0.27383
 10
0.02097
 20
0.2753
 10
0.01682
 20
0.27701
 10
0.01269
 20
0.27895
 10
0.00857
 20
0.2811
 10
0.00448
 20
0.28345
 10
0.00042
 20
0.28599
 10
0.0032
 20
0.31245
 10
0.0077
 20
0.31409
 10
0.01219
 20
0.31554
 10
0.01666
 20
0.31679
 10
0.02111
 20
0.31782
 10
0.02553
 20
0.31864
 10
0.02991
 20
0.31921
 10
0.03424
 20
0.31951
 10
0.03851
 20
0.31947
 10
0.04061
 20
0.31926
 10
0.04284
 20
0.31972
 10
0.04397
 20
0.31998
 10
0.04513
 20
0.32038
 10
0.04635
 20
0.32105
 10
0.04791
 20
0.32319
 10
0.05411
 20
0.34481
 10
0.05392
 20
0.34745
 10
0.05324
 20
0.34866
 10
0.05247
 20
0.34962
 10
0.05165
 20
0.35044
 10
0.04999
 20
0.35201
 10
0.04811
 20
0.35294
 10
0.04447
 20
0.35517
 10
0.04095
 20
0.35772
 10
0.03754
 20
0.36053
 10
0.03422
 20
0.36356
 10
0.031
 20
0.3668
 10
0.02787
 20
0.37022
 10
0.02483
 20
0.37383
 10
0.02188
 20
0.37761
 10
0.03355
 20
0.40152
 10
0.03834
 20
0.40152
 10
0.04305
 20
0.40135
 10
0.04768
 20
0.40099
 10
0.05221
 20
0.40044
 10
0.05664
 20
0.39969
 10
0.06096
 20
0.39873
 10
0.06513
 20
0.39753
 10
0.06913
 20
0.39604
 10
0.07102
 20
0.39513
 10
0.07328
 20
0.39479
 10
0.07443
 20
0.39465
 10
0.07566
 20
0.39463
 10
0.07703
 20
0.39484
 10
0.07923
 20
0.39631
 10
0.09245
 20
0.41451
 10
0.09317
 20
0.41706
 10
0.09295
 20
0.41843
 10
0.09256
 20
0.4196
 10
0.09207
 20
0.42064
 10
0.09105
 20
0.42268
 10
0.0896
 20
0.42421
 10
0.08694
 20
0.42755
 10
0.0845
 20
0.43115
 10
0.08226
 20
0.43495
 10
0.08018
 20
0.43893
 10
0.07826
 20
0.44308
 10
0.07649
 20
0.44737
 10
0.07486
 20
0.4518
 10
0.07339
 20
0.45635
 10
0.09252
 20
0.47484
 10
0.09703
 20
0.4732
 10
0.1014
 20
0.47142
 10
0.10562
 20
0.4695
 10
0.1097
 20
0.46744
 10
0.11361
 20
0.46522
 10
0.11733
 20
0.46284
 10
0.12084
 20
0.46029
 10
0.12408
 20
0.45751
 10
0.12556
 20
0.45601
 10
0.12756
 20
0.45492
 10
0.12859
 20
0.45439
 10
0.12974
 20
0.45396
 10
0.1311
 20
0.45369
 10
0.13367
 20
0.45432
 10
0.15232
 20
0.4669
 10
0.15387
 20
0.46904
 10
0.15413
 20
0.47041
 10
0.15416
 20
0.47164
 10
0.15406
 20
0.47279
 10
0.1538
 20
0.47506
 10
0.15295
 20
0.47699
 10
0.1516
 20
0.48103
 10
0.15054
 20
0.48525
 10
0.14973
 20
0.48959
 10
0.14914
 20
0.49404
 10
0.14875
 20
0.49859
 10
0.14856
 20
0.50323
 10
0.14855
 20
0.50795
 10
0.14872
 20
0.51274
 10
0.17302
 20
0.52356
 10
0.17669
 20
0.52048
 10
0.18019
 20
0.51732
 10
0.18351
 20
0.51407
 10
0.18663
 20
0.51073
 10
0.18954
 20
0.50731
 10
0.19223
 20
0.50381
 10
0.19465
 20
0.5002
 10
0.19675
 20
0.49649
 10
0.19762
 20
0.49457
 10
0.19913
 20
0.49286
 10
0.19992
 20
0.49202
 10
0.20085
 20
0.49121
 10
0.20204
 20
0.49049
 10
0.20467
 20
0.49021
 10
0.2265
 20
0.49565
 10
0.22869
 20
0.49714
 10
0.2294
 20
0.49833
 10
0.22985
 20
0.49948
 10
0.23014
 20
0.50059
 10
0.23068
 20
0.50281
 10
0.23054
 20
0.50491
 10
0.23065
 20
0.50918
 10
0.2311
 20
0.5135
 10
0.23183
 20
0.51786
 10
0.23279
 20
0.52224
 10
0.23399
 20
0.52665
 10
0.23539
 20
0.53108
 10
0.23699
 20
0.53551
 10
0.23879
 20
0.53996
 10
0.26533
 20
0.54181
 10
0.26773
 20
0.53766
 10
0.26993
 20
0.53349
 10
0.27194
 20
0.52931
 10
0.27373
 20
0.52511
 10
0.2753
 20
0.5209
 10
0.27662
 20
0.51668
 10
0.27767
 20
0.51247
 10
0.27837
 20
0.50826
 10
0.27853
 20
0.50616
 10
0.27937
 20
0.50403
 10
0.27982
 20
0.50297
 10
0.28042
 20
0.5019
 10
0.28129
 20
0.50081
 10
0.28366
 20
0.49965
 10
0.30604
 20
0.49729
 10
0.3086
 20
0.49794
 10
0.30968
 20
0.49882
 10
0.31049
 20
0.49975
 10
0.31115
 20
0.50069
 10
0.31241
 20
0.5026
 10
0.313
 20
0.50462
 10
0.31457
 20
0.50859
 10
0.31647
 20
0.51249
 10
0.31864
 20
0.51634
 10
0.32105
 20
0.52013
 10
0.32367
 20
0.52387
 10
0.32651
 20
0.52755
 10
0.32953
 20
0.53117
 10
0.33274
 20
0.53473
 10
0.35831
 20
0.52739
 10
0.35915
 20
0.52268
 10
0.35979
 20
0.518
 10
0.36024
 20
0.51338
 10
0.36049
 20
0.50882
 10
0.36053
 20
0.50433
 10
0.36033
 20
0.49992
 10
0.35987
 20
0.4956
 10
0.35909
 20
0.4914
 10
0.35852
 20
0.48937
 10
0.35858
 20
0.48709
 10
0.35864
 20
0.48594
 10
0.35884
 20
0.48473
 10
0.35929
 20
0.48341
 10
0.36112
 20
0.4815
 10
0.38134
 20
0.47164
 10
0.38397
 20
0.47137
 10
0.38528
 20
0.47183
 10
0.38636
 20
0.47242
 10
0.38731
 20
0.47308
 10
0.38914
 20
0.47444
 10
0.39039
 20
0.47614
 10
0.39322
 20
0.47933
 10
0.39634
 20
0.48235
 10
0.39969
 20
0.48523
 10
0.40326
 20
0.48797
 10
0.407
 20
0.49058
 10
0.41092
 20
0.49307
 10
0.415
 20
0.49543
 10
0.41923
 20
0.49768
 10
0.44076
 20
0.48204
 10
0.43993
 20
0.47732
 10
0.43894
 20
0.47271
 10
0.43778
 20
0.46822
 10
0.43645
 20
0.46385
 10
0.43495
 20
0.45961
 10
0.43326
 20
0.45553
 10
0.43135
 20
0.45163
 10
0.42918
 20
0.44796
 10
0.42795
 20
0.44624
 10
0.42723
 20
0.44408
 10
0.42689
 20
0.44297
 10
0.42666
 20
0.44177
 10
0.42663
 20
0.44038
 10
0.4277
 20
0.43796
 10
0.44333
 20
0.42177
 10
0.44571
 20
0.42062
 10
0.4471
 20
0.4206
 10
0.44831
 20
0.42079
 10
0.44943
 20
0.42109
 10
0.45162
 20
0.42174
 10
0.45337
 20
0.4229
 10
0.45712
 20
0.42494
 10
0.46109
 20
0.42671
 10
0.46522
 20
0.42827
 10
0.4695
 20
0.42962
 10
0.47392
 20
0.43079
 10
0.47845
 20
0.43179
 10
0.4831
 20
0.43262
 10
0.48784
 20
0.43329
 10
0.50272
 20
0.41123
 10
0.50033
 20
0.40708
 10
0.49782
 20
0.40308
 10
0.49519
 20
0.39925
 10
0.49245
 20
0.3956
 10
0.48959
 20
0.39214
 10
0.4866
 20
0.38888
 10
0.48347
 20
0.38587
 10
0.48018
 20
0.38316
 10
0.47844
 20
0.38197
 10
0.47702
 20
0.38018
 10
0.47633
 20
0.37926
 10
0.4757
 20
0.3782
 10
0.47519
 20
0.37691
 10
0.47537
 20
0.37427
 10
0.48452
 20
0.35372
 10
0.48636
 20
0.35182
 10
0.48766
 20
0.35133
 10
0.48887
 20
0.35109
 10
0.49002
 20
0.35099
 10
0.4923
 20
0.35085
 10
0.49434
 20
0.35134
 10
0.49857
 20
0.35198
 10
0.5029
 20
0.35228
 10
0.50731
 20
0.35233
 10
0.5118
 20
0.35214
 10
0.51635
 20
0.35173
 10
0.52095
 20
0.35112
 10
0.5256
 20
0.35031
 10
0.53029
 20
0.34931
 10
0.53672
 20
0.32349
 10
0.53305
 20
0.32041
 10
0.52933
 20
0.31752
 10
0.52556
 20
0.31482
 10
0.52173
 20
0.31232
 10
0.51786
 20
0.31004
 10
0.51394
 20
0.30801
 10
0.50997
 20
0.30625
 10
0.50594
 20
0.30482
 10
0.5039
 20
0.3043
 10
0.50196
 20
0.30311
 10
0.50099
 20
0.30248
 10
0.50004
 20
0.3017
 10
0.49912
 20
0.30066
 10
0.49838
 20
0.29811
 0
CIRCLE
 8
profile
 10
0.27094
 20
0.27094
 40
0.0315
 0
LWPOLYLINE
 8
profile
 90
540
 70
1
 10
0.54222
 20
0.25821
 10
0.54106
 20
0.26058
 10
0.53997
 20
0.26145
 10
0.5389
 20
0.26205
 10
0.53784
 20
0.2625
 10
0.53571
 20
0.26334
 10
0.53361
 20
0.2635
 10
0.5294
 20
0.2642
 10
0.52519
 20
0.26525
 10
0.52097
 20
0.26657
 10
0.51676
 20
0.26814
 10
0.51256
 20
0.26993
 10
0.50838
 20
0.27194
 10
0.50421
 20
0.27414
 10
0.50006
 20
0.27654
 10
0.50191
 20
0.30308
 10
0.50636
 20
0.30488
 10
0.51079
 20
0.30648
 10
0.51522
 20
0.30788
 10
0.51963
 20
0.30908
 10
0.52401
 20
0.31004
 10
0.52837
 20
0.31077
 10
0.53269
 20
0.31122
 10
0.53696
 20
0.31133
 10
0.53906
 20
0.31119
 10
0.54128
 20
0.31173
 10
0.54239
 20
0.31202
 10
0.54354
 20
0.31247
 10
0.54473
 20
0.31318
 10
0.54622
 20
0.31537
 10
0.55166
 20
0.3372
 10
0.55138
 20
0.33983
 10
0.55066
 20
0.34102
 10
0.54986
 20
0.34195
 10
0.54901
 20
0.34274
 10
0.5473
 20
0.34425
 10
0.54538
 20
0.34512
 10
0.54167
 20
0.34722
 10
0.53806
 20
0.34964
 10
0.53456
 20
0.35233
 10
0.53114
 20
0.35524
 10
0.5278
 20
0.35836
 10
0.52455
 20
0.36168
 10
0.52139
 20
0.36518
 10
0.51831
 20
0.36885
 10
0.52913
 20
0.39315
 10
0.53392
 20
0.39332
 10
0.53864
 20
0.39331
 10
0.54328
 20
0.39312
 10
0.54783
 20
0.39273
 10
0.55228
 20
0.39214
 10
0.55662
 20
0.39133
 10
0.56084
 20
0.39027
 10
0.56488
 20
0.38892
 10
0.56681
 20
0.38807
 10
0.56908
 20
0.38781
 10
0.57023
 20
0.38771
 10
0.57146
 20
0.38774
 10
0.57283
 20
0.388
 10
0.57497
 20
0.38955
 10
0.58755
 20
0.4082
 10
0.58818
 20
0.41077
 10
0.58791
 20
0.41213
 10
0.58748
 20
0.41328
 10
0.58695
 20
0.41431
 10
0.58586
 20
0.41631
 10
0.58436
 20
0.41779
 10
0.58158
 20
0.42103
 10
0.57903
 20
0.42454
 10
0.57665
 20
0.42827
 10
0.57443
 20
0.43217
 10
0.57237
 20
0.43625
 10
0.57045
 20
0.44047
 10
0.56867
 20
0.44484
 10
0.56703
 20
0.44935
 10
0.58552
 20
0.46849
 10
0.59007
 20
0.46701
 10
0.5945
 20
0.46538
 10
0.59879
 20
0.46361
 10
0.60294
 20
0.46169
 10
0.60692
 20
0.45961
 10
0.61072
 20
0.45737
 10
0.61432
 20
0.45493
 10
0.61766
 20
0.45228
 10
0.61919
 20
0.45082
 10
0.62123
 20
0.4498
 10
0.62227
 20
0.44931
 10
0.62344
 20
0.44892
 10
0.62481
 20
0.4487
 10
0.62736
 20
0.44942
 10
0.64556
 20
0.46264
 10
0.64703
 20
0.46484
 10
0.64724
 20
0.46621
 10
0.64722
 20
0.46744
 10
0.64708
 20
0.46859
 10
0.64674
 20
0.47085
 10
0.64584
 20
0.47275
 10
0.64434
 20
0.47674
 10
0.64314
 20
0.48091
 10
0.64218
 20
0.48523
 10
0.64143
 20
0.48966
 10
0.64088
 20
0.49419
 10
0.64052
 20
0.49882
 10
0.64035
 20
0.50353
 10
0.64035
 20
0.50832
 10
0.66427
 20
0.51999
 10
0.66804
 20
0.51704
 10
0.67165
 20
0.514
 10
0.67508
 20
0.51087
 10
0.67831
 20
0.50765
 10
0.68134
 20
0.50433
 10
0.68415
 20
0.50092
 10
0.6867
 20
0.4974
 10
0.68893
 20
0.49376
 10
0.68986
 20
0.49188
 10
0.69143
 20
0.49022
 10
0.69225
 20
0.4894
 10
0.69321
 20
0.48863
 10
0.69442
 20
0.48795
 10
0.69706
 20
0.48776
 10
0.71868
 20
0.49396
 10
0.72082
 20
0.49552
 10
0.72149
 20
0.49674
 10
0.72189
 20
0.4979
 10
0.72215
 20
0.49903
 10
0.72261
 20
0.50127
 10
0.7224
 20
0.50336
 10
0.72236
 20
0.50763
 10
0.72266
 20
0.51196
 10
0.72323
 20
0.51634
 10
0.72405
 20
0.52076
 10
0.72508
 20
0.52521
 10
0.72633
 20
0.52968
 10
0.72778
 20
0.53417
 10
0.72942
 20
0.53867
 10
0.75588
 20
0.54145
 10
0.75842
 20
0.53739
 10
0.76077
 20
0.5333
 10
0.76292
 20
0.52918
 10
0.76486
 20
0.52505
 10
0.76657
 20
0.5209
 10
0.76804
 20
0.51673
 10
0.76924
 20
0.51256
 10
0.77008
 20
0.50837
 10
0.77032
 20
0.50628
 10
0.77123
 20
0.50419
 10
0.77171
 20
0.50314
 10
0.77235
 20
0.50209
 10
0.77326
 20
0.50104
 10
0.77567
 20
0.49995
 10
0.79811
 20
0.49838
 10
0.80066
 20
0.49912
 10
0.8017
 20
0.50004
 10
0.80248
 20
0.50099
 10
0.80311
 20
0.50196
 10
0.8043
 20
0.5039
 10
0.80482
 20
0.50594
 10
0.80625
 20
0.50997
 10
0.80801
 20
0.51394
 10
0.81004
 20
0.51786
 10
0.81232
 20
0.52173
 10
0.81482
 20
0.52556
 10
0.81752
 20
0.52933
 10
0.82041
 20
0.53305
 10
0.82349
 20
0.53672
 10
0.84931
 20
0.53029
 10
0.85031
 20
0.5256
 10
0.85112
 20
0.52095
 10
0.85173
 20
0.51635
 10
0.85214
 20
0.5118
 10
0.85233
 20
0.50731
 10
0.85228
 20
0.5029
 10
0.85198
 20
0.49857
 10
0.85134
 20
0.49434
 10
0.85085
 20
0.4923
 10
0.85099
 20
0.49002
 10
0.85109
 20
0.48887
 10
0.85133
 20
0.48766
 10
0.85182
 20
0.48636
 10
0.85372
 20
0.48452
 10
0.87427
 20
0.47537
 10
0.87691
 20
0.47519
 10
0.8782
 20
0.4757
 10
0.87926
 20
0.47633
 10
0.88018
 20
0.47702
 10
0.88197
 20
0.47844
 10
0.88316
 20
0.48018
 10
0.88587
 20
0.48347
 10
0.88888
 20
0.4866
 10
0.89214
 20
0.48959
 10
0.8956
 20
0.49245
 10
0.89925
 20
0.49519
 10
0.90308
 20
0.49782
 10
0.90708
 20
0.50033
 10
0.91123
 20
0.50272
 10
0.93329
 20
0.48784
 10
0.93262
 20
0.4831
 10
0.93179
 20
0.47845
 10
0.93079
 20
0.47392
 10
0.92962
 20
0.4695
 10
0.92827
 20
0.46522
 10
0.92671
 20
0.46109
 10
0.92494
 20
0.45712
 10
0.9229
 20
0.45337
 10
0.92174
 20
0.45162
 10
0.92109
 20
0.44943
 10
0.92079
 20
0.44831
 10
0.9206
 20
0.4471
 10
0.92062
 20
0.44571
 10
0.92177
 20
0.44333
 10
0.93796
 20
0.4277
 10
0.94038
 20
0.42663
 10
0.94177
 20
0.42666
 10
0.94297
 20
0.42689
 10
0.94408
 20
0.42723
 10
0.94624
 20
0.42795
 10
0.94796
 20
0.42918
 10
0.95163
 20
0.43135
 10
0.95553
 20
0.43326
 10
0.95961
 20
0.43495
 10
0.96385
 20
0.43645
 10
0.96822
 20
0.43778
 10
0.97271
 20
0.43894
 10
0.97732
 20
0.43993
 10
0.98204
 20
0.44076
 10
0.99768
 20
0.41923
 10
0.99543
 20
0.415
 10
0.99307
 20
0.41092
 10
0.99058
 20
0.407
 10
0.98797
 20
0.40326
 10
0.98523
 20
0.39969
 10
0.98235
 20
0.39634
 10
0.97933
 20
0.39322
 10
0.97614
 20
0.39039
 10
0.97444
 20
0.38914
 10
0.97308
 20
0.38731
 10
0.97242
 20
0.38636
 10
0.97183
 20
0.38528
 10
0.97137
 20
0.38397
 10
0.97164
 20
0.38134
 10
0.9815
 20
0.36112
 10
0.98341
 20
0.35929
 10
0.98473
 20
0.35884
 10
0.98594
 20
0.35864
 10
0.98709
 20
0.35858
 10
0.98937
 20
0.35852
 10
0.9914
 20
0.35909
 10
0.9956
 20
0.35987
 10
0.99992
 20
0.36033
 10
1.00433
 20
0.36053
 10
1.00882
 20
0.36049
 10
1.01338
 20
0.36024
 10
1.018
 20
0.35979
 10
1.02268
 20
0.35915
 10
1.02739
 20
0.35831
 10
1.03473
 20
0.33274
 10
1.03117
 20
0.32953
 10
1.02755
 20
0.32651
 10
1.02387
 20
0.32367
 10
1.02013
 20
0.32105
 10
1.01634
 20
0.31864
 10
1.01249
 20
0.31647
 10
1.00859
 20
0.31457
 10
1.00462
 20
0.313
 10
1.0026
 20
0.31241
 10
1.00069
 20
0.31115
 10
0.99975
 20
0.31049
 10
0.99882
 20
0.30968
 10
0.99794
 20
0.3086
 10
0.99729
 20
0.30604
 10
0.99965
 20
0.28366
 10
1.00081
 20
0.28129
 10
1.0019
 20
0.28042
 10
1.00297
 20
0.27982
 10
1.00403
 20
0.27937
 10
1.00616
 20
0.27853
 10
1.00826
 20
0.27837
 10
1.01247
 20
0.27767
 10
1.01668
 20
0.27662
 10
1.0209
 20
0.2753
 10
1.02511
 20
0.27373
 10
1.02931
 20
0.27194
 10
1.03349
 20
0.26993
 10
1.03766
 20
0.26773
 10
1.04181
 20
0.26533
 10
1.03996
 20
0.23879
 10
1.03551
 20
0.23699
 10
1.03108
 20
0.23539
 10
1.02665
 20
0.23399
 10
1.02224
 20
0.23279
 10
1.01786
 20
0.23183
 10
1.0135
 20
0.2311
 10
1.00918
 20
0.23065
 10
1.00491
 20
0.23054
 10
1.00281
 20
0.23068
 10
1.00059
 20
0.23014
 10
0.99948
 20
0.22985
 10
0.99833
 20
0.2294
 10
0.99714
 20
0.22869
 10
0.99565
 20
0.2265
 10
0.99021
 20
0.20467
 10
0.99049
 20
0.20204
 10
0.99121
 20
0.20085
 10
0.99202
 20
0.19992
 10
0.99286
 20
0.19913
 10
0.99457
 20
0.19762
 10
0.99649
 20
0.19675
 10
1.0002
 20
0.19465
 10
1.00381
 20
0.19223
 10
1.00731
 20
0.18954
 10
1.01073
 20
0.18663
 10
1.01407
 20
0.18351
 10
1.01732
 20
0.18019
 10
1.02048
 20
0.17669
 10
1.02356
 20
0.17302
 10
1.01274
 20
0.14872
 10
1.00795
 20
0.14855
 10
1.00323
 20
0.14856
 10
0.99859
 20
0.14875
 10
0.99404
 20
0.14914
 10
0.98959
 20
0.14973
 10
0.98525
 20
0.15054
 10
0.98103
 20
0.1516
 10
0.97699
 20
0.15295
 10
0.97506
 20
0.1538
 10
0.97279
 20
0.15406
 10
0.97164
 20
0.15416
 10
0.97041
 20
0.15413
 10
0.96904
 20
0.15387
 10
0.9669
 20
0.15232
 10
0.95432
 20
0.13367
 10
0.95369
 20
0.1311
 10
0.95396
 20
0.12974
 10
0.95439
 20
0.12859
 10
0.95492
 20
0.12756
 10
0.95601
 20
0.12556
 10
0.95751
 20
0.12408
 10
0.96029
 20
0.12084
 10
0.96284
 20
0.11733
 10
0.96522
 20
0.11361
 10
0.96744
 20
0.1097
 10
0.9695
 20
0.10562
 10
0.97142
 20
0.1014
 10
0.9732
 20
0.09703
 10
0.97484
 20
0.09252
 10
0.95635
 20
0.07339
 10
0.9518
 20
0.07486
 10
0.94737
 20
0.07649
 10
0.94308
 20
0.07826
 10
0.93893
 20
0.08018
 10
0.93495
 20
0.08226
 10
0.93115
 20
0.0845
 10
0.92755
 20
0.08694
 10
0.92421
 20
0.0896
 10
0.92268
 20
0.09105
 10
0.92064
 20
0.09207
 10
0.9196
 20
0.09256
 10
0.91843
 20
0.09295
 10
0.91706
 20
0.09317
 10
0.91451
 20
0.09245
 10
0.89631
 20
0.07923
 10
0.89484
 20
0.07703
 10
0.89463
 20
0.07566
 10
0.89465
 20
0.07443
 10
0.89479
 20
0.07328
 10
0.89513
 20
0.07102
 10
0.89604
 20
0.06913
 10
0.89753
 20
0.06513
 10
0.89873
 20
0.06096
 10
0.89969
 20
0.05664
 10
0.90044
 20
0.05221
 10
0.90099
 20
0.04768
 10
0.90135
 20
0.04305
 10
0.90152
 20
0.03834
 10
0.90152
 20
0.03355
 10
0.87761
 20
0.02188
 10
0.87383
 20
0.02483
 10
0.87022
 20
0.02787
 10
0.8668
 20
0.031
 10
0.86356
 20
0.03422
 10
0.86053
 20
0.03754
 10
0.85772
 20
0.04095
 10
0.85517
 20
0.04447
 10
0.85294
 20
0.04811
 10
0.85201
 20
0.04999
 10
0.85044
 20
0.05165
 10
0.84962
 20
0.05247
 10
0.84866
 20
0.05324
 10
0.84745
 20
0.05392
 10
0.84481
 20
0.05411
 10
0.82319
 20
0.04791
 10
0.82105
 20
0.04635
 10
0.82038
 20
0.04513
 10
0.81998
 20
0.04397
 10
0.81972
 20
0.04284
 10
0.81926
 20
0.04061
 10
0.81947
 20
0.03851
 10
0.81951
 20
0.03424
 10
0.81921
 20
0.02991
 10
0.81864
 20
0.02553
 10
0.81782
 20
0.02111
 10
0.81679
 20
0.01666
 10
0.81554
 20
0.01219
 10
0.81409
 20
0.0077
 10
0.81245
 20
0.0032
 10
0.78599
 20
0.00042
 10
0.78345
 20
0.00448
 10
0.7811
 20
0.00857
 10
0.77895
 20
0.01269
 10
0.77701
 20
0.01682
 10
0.7753
 20
0.02097
 10
0.77383
 20
0.02514
 10
0.77264
 20
0.02932
 10
0.77179
 20
0.0335
 10
0.77155
 20
0.03559
 10
0.77064
 20
0.03768
 10
0.77016
 20
0.03873
 10
0.76952
 20
0.03978
 10
0.76861
 20
0.04084
 10
0.7662
 20
0.04192
 10
0.74376
 20
0.04349
 10
0.74121
 20
0.04275
 10
0.74017
 20
0.04183
 10
0.73939
 20
0.04088
 10
0.73876
 20
0.03991
 10
0.73757
 20
0.03797
 10
0.73705
 20
0.03593
 10
0.73562
 20
0.0319
 10
0.73386
 20
0.02793
 10
0.73183
 20
0.02401
 10
0.72955
 20
0.02014
 10
0.72705
 20
0.01631
 10
0.72435
 20
0.01254
 10
0.72146
 20
0.00882
 10
0.71838
 20
0.00515
 10
0.69256
 20
0.01158
 10
0.69156
 20
0.01627
 10
0.69075
 20
0.02092
 10
0.69014
 20
0.02552
 10
0.68973
 20
0.03007
 10
0.68954
 20
0.03456
 10
0.68959
 20
0.03897
 10
0.68989
 20
0.04331
 10
0.69053
 20
0.04753
 10
0.69102
 20
0.04957
 10
0.69088
 20
0.05185
 10
0.69078
 20
0.053
 10
0.69054
 20
0.05421
 10
0.69005
 20
0.05551
 10
0.68815
 20
0.05735
 10
0.6676
 20
0.0665
 10
0.66496
 20
0.06668
 10
0.66367
 20
0.06617
 10
0.66261
 20
0.06555
 10
0.66169
 20
0.06485
 10
0.6599
 20
0.06343
 10
0.65871
 20
0.06169
 10
0.656
 20
0.0584
 10
0.65299
 20
0.05527
 10
0.64973
 20
0.05228
 10
0.64627
 20
0.04942
 10
0.64262
 20
0.04668
 10
0.63879
 20
0.04405
 10
0.63479
 20
0.04155
 10
0.63064
 20
0.03915
 10
0.60858
 20
0.05403
 10
0.60925
 20
0.05877
 10
0.61008
 20
0.06342
 10
0.61108
 20
0.06795
 10
0.61225
 20
0.07237
 10
0.61361
 20
0.07665
 10
0.61516
 20
0.08079
 10
0.61693
 20
0.08475
 10
0.61897
 20
0.0885
 10
0.62013
 20
0.09025
 10
0.62078
 20
0.09244
 10
0.62108
 20
0.09356
 10
0.62127
 20
0.09477
 10
0.62125
 20
0.09616
 10
0.6201
 20
0.09855
 10
0.60391
 20
0.11417
 10
0.60149
 20
0.11524
 10
0.6001
 20
0.11521
 10
0.5989
 20
0.11498
 10
0.59779
 20
0.11464
 10
0.59563
 20
0.11392
 10
0.59391
 20
0.11269
 10
0.59024
 20
0.11052
 10
0.58634
 20
0.10862
 10
0.58226
 20
0.10692
 10
0.57802
 20
0.10542
 10
0.57365
 20
0.10409
 10
0.56916
 20
0.10293
 10
0.56455
 20
0.10194
 10
0.55983
 20
0.10111
 10
0.54419
 20
0.12264
 10
0.54644
 20
0.12687
 10
0.5488
 20
0.13095
 10
0.55129
 20
0.13487
 10
0.5539
 20
0.13861
 10
0.55664
 20
0.14218
 10
0.55952
 20
0.14553
 10
0.56254
 20
0.14865
 10
0.56573
 20
0.15148
 10
0.56743
 20
0.15273
 10
0.56879
 20
0.15456
 10
0.56945
 20
0.15551
 10
0.57004
 20
0.15659
 10
0.5705
 20
0.1579
 10
0.57023
 20
0.16053
 10
0.56037
 20
0.18075
 10
0.55846
 20
0.18258
 10
0.55714
 20
0.18303
 10
0.55593
 20
0.18323
 10
0.55478
 20
0.18329
 10
0.5525
 20
0.18335
 10
0.55047
 20
0.18278
 10
0.54627
 20
0.182
 10
0.54195
 20
0.18154
 10
0.53754
 20
0.18134
 10
0.53305
 20
0.18138
 10
0.52849
 20
0.18163
 10
0.52387
 20
0.18208
 10
0.51919
 20
0.18272
 10
0.51448
 20
0.18356
 10
0.50714
 20
0.20913
 10
0.5107
 20
0.21234
 10
0.51432
 20
0.21536
 10
0.518
 20
0.2182
 10
0.52174
 20
0.22082
 10
0.52553
 20
0.22323
 10
0.52938
 20
0.2254
 10
0.53328
 20
0.2273
 10
0.53725
 20
0.22887
 10
0.53927
 20
0.22946
 10
0.54118
 20
0.23072
 10
0.54212
 20
0.23138
 10
0.54305
 20
0.23219
 10
0.54393
 20
0.23327
 10
0.54458
 20
0.23583
 0
CIRCLE
 8
profile
 10
0.77094
 20
0.27094
 40
0.0315
  0
ENDSEC
  0
EOF
