  999
DXF file created by gear template generator.  2011-12-20T12:36:09
  0
SECTION
  2
HEADER
  9
$ACADVER
  1
AC1006
  9
$INSBASE
  10
0.0
  20
0.0
  30
0.0
  9
$EXTMIN
  10
0.0
  20
0.0
  9
$EXTMAX
  10
10000.0
  20
10000.0
  0
ENDSEC
  0
SECTION
  2
ENTITIES
 0
LWPOLYLINE
 8
profile
 90
540
 70
1
 10
1.24639
 20
1.02174
 10
1.24937
 20
1.01726
 10
1.25214
 20
1.01572
 10
1.25487
 20
1.01473
 10
1.25759
 20
1.01403
 10
1.26298
 20
1.01323
 10
1.26835
 20
1.0129
 10
1.27912
 20
1.01151
 10
1.28993
 20
1.00917
 10
1.30076
 20
1.0061
 10
1.31159
 20
1.00237
 10
1.32241
 20
0.99806
 10
1.3332
 20
0.9932
 10
1.34396
 20
0.98781
 10
1.35468
 20
0.98192
 10
1.35143
 20
0.91548
 10
1.34019
 20
0.91066
 10
1.32895
 20
0.90635
 10
1.31774
 20
0.90256
 10
1.30655
 20
0.89933
 10
1.29541
 20
0.89668
 10
1.28433
 20
0.89468
 10
1.27335
 20
0.8934
 10
1.26249
 20
0.89307
 10
1.25712
 20
0.89326
 10
1.25167
 20
0.89299
 10
1.2489
 20
0.89257
 10
1.24608
 20
0.89184
 10
1.24317
 20
0.89058
 10
1.23977
 20
0.88642
 10
1.22575
 20
0.8247
 10
1.22702
 20
0.81947
 10
1.22909
 20
0.81708
 10
1.23132
 20
0.81521
 10
1.23364
 20
0.81363
 10
1.23843
 20
0.81103
 10
1.24337
 20
0.80889
 10
1.25301
 20
0.80389
 10
1.26237
 20
0.798
 10
1.27149
 20
0.7914
 10
1.28039
 20
0.7842
 10
1.28908
 20
0.77645
 10
1.29756
 20
0.76819
 10
1.30583
 20
0.75945
 10
1.31389
 20
0.75025
 10
1.28811
 20
0.68893
 10
1.2759
 20
0.68824
 10
1.26387
 20
0.68803
 10
1.25203
 20
0.68831
 10
1.24041
 20
0.6891
 10
1.22904
 20
0.69042
 10
1.21795
 20
0.69232
 10
1.20719
 20
0.69488
 10
1.19687
 20
0.69828
 10
1.19189
 20
0.7003
 10
1.18667
 20
0.70191
 10
1.18393
 20
0.70246
 10
1.18103
 20
0.70275
 10
1.17787
 20
0.70255
 10
1.17325
 20
0.6998
 10
1.13896
 20
0.6466
 10
1.13837
 20
0.64126
 10
1.1395
 20
0.6383
 10
1.14095
 20
0.63578
 10
1.14259
 20
0.6335
 10
1.14621
 20
0.62942
 10
1.15011
 20
0.62572
 10
1.15746
 20
0.61773
 10
1.16424
 20
0.60899
 10
1.17056
 20
0.59967
 10
1.17646
 20
0.58986
 10
1.18197
 20
0.5796
 10
1.18712
 20
0.56894
 10
1.1919
 20
0.5579
 10
1.19632
 20
0.54649
 10
1.15112
 20
0.49769
 10
1.13942
 20
0.50122
 10
1.12804
 20
0.50514
 10
1.11701
 20
0.50945
 10
1.10636
 20
0.51416
 10
1.09613
 20
0.51929
 10
1.08636
 20
0.52488
 10
1.07712
 20
0.53096
 10
1.06859
 20
0.53769
 10
1.0646
 20
0.54129
 10
1.06025
 20
0.54459
 10
1.05786
 20
0.54604
 10
1.05523
 20
0.5473
 10
1.05219
 20
0.5482
 10
1.04691
 20
0.54719
 10
0.9965
 20
0.50893
 10
0.99411
 20
0.50411
 10
0.99416
 20
0.50094
 10
0.99466
 20
0.49808
 10
0.99542
 20
0.49538
 10
0.99743
 20
0.49031
 10
0.99983
 20
0.48549
 10
1.00401
 20
0.47547
 10
1.00739
 20
0.46494
 10
1.01014
 20
0.45402
 10
1.01233
 20
0.44278
 10
1.014
 20
0.43126
 10
1.01519
 20
0.41948
 10
1.0159
 20
0.40747
 10
1.01616
 20
0.39524
 10
0.95699
 20
0.36484
 10
0.9472
 20
0.37216
 10
0.93785
 20
0.37973
 10
0.92896
 20
0.38756
 10
0.92057
 20
0.39563
 10
0.9127
 20
0.40395
 10
0.90543
 20
0.41254
 10
0.89884
 20
0.42142
 10
0.89312
 20
0.43065
 10
0.8906
 20
0.4354
 10
0.88764
 20
0.43999
 10
0.88589
 20
0.44217
 10
0.88385
 20
0.44425
 10
0.8813
 20
0.44614
 10
0.876
 20
0.447
 10
0.81554
 20
0.42828
 10
0.81164
 20
0.42458
 10
0.81061
 20
0.42158
 10
0.8101
 20
0.41871
 10
0.80989
 20
0.41592
 10
0.81004
 20
0.41047
 10
0.81065
 20
0.40512
 10
0.81115
 20
0.39427
 10
0.81072
 20
0.38322
 10
0.80957
 20
0.37202
 10
0.80779
 20
0.36071
 10
0.80542
 20
0.34931
 10
0.8025
 20
0.33784
 10
0.79907
 20
0.32631
 10
0.79513
 20
0.31473
 10
0.72913
 20
0.30639
 10
0.72244
 20
0.31662
 10
0.71624
 20
0.32694
 10
0.71056
 20
0.33733
 10
0.70543
 20
0.34778
 10
0.70089
 20
0.35829
 10
0.69699
 20
0.36885
 10
0.69383
 20
0.37945
 10
0.69162
 20
0.39009
 10
0.69087
 20
0.39541
 10
0.68966
 20
0.40073
 10
0.68877
 20
0.40339
 10
0.68756
 20
0.40604
 10
0.68581
 20
0.40868
 10
0.68112
 20
0.4113
 10
0.61791
 20
0.41439
 10
0.61298
 20
0.41224
 10
0.61098
 20
0.40978
 10
0.60953
 20
0.40726
 10
0.60838
 20
0.40471
 10
0.60665
 20
0.39953
 10
0.60539
 20
0.3943
 10
0.60215
 20
0.38394
 10
0.59797
 20
0.3737
 10
0.59306
 20
0.36357
 10
0.58751
 20
0.35355
 10
0.58139
 20
0.34365
 10
0.57473
 20
0.33386
 10
0.56755
 20
0.3242
 10
0.55989
 20
0.31467
 10
0.49502
 20
0.32941
 10
0.49223
 20
0.34131
 10
0.48994
 20
0.35313
 10
0.48815
 20
0.36483
 10
0.48691
 20
0.37641
 10
0.48624
 20
0.38784
 10
0.48618
 20
0.39909
 10
0.48684
 20
0.41013
 10
0.4884
 20
0.42088
 10
0.48952
 20
0.42614
 10
0.4902
 20
0.43156
 10
0.49026
 20
0.43436
 10
0.49004
 20
0.43726
 10
0.4893
 20
0.44034
 10
0.48579
 20
0.44441
 10
0.42744
 20
0.46894
 10
0.42208
 20
0.4686
 10
0.41936
 20
0.46697
 10
0.41713
 20
0.4651
 10
0.41517
 20
0.46309
 10
0.41178
 20
0.45882
 10
0.40881
 20
0.45434
 10
0.40222
 20
0.4457
 10
0.39479
 20
0.43751
 10
0.38671
 20
0.42967
 10
0.37807
 20
0.42216
 10
0.36893
 20
0.41495
 10
0.35932
 20
0.40803
 10
0.34928
 20
0.4014
 10
0.33882
 20
0.39507
 10
0.2829
 20
0.4311
 10
0.28435
 20
0.44325
 10
0.28624
 20
0.45513
 10
0.28856
 20
0.46674
 10
0.29136
 20
0.47804
 10
0.29463
 20
0.48902
 10
0.29843
 20
0.49961
 10
0.30282
 20
0.50976
 10
0.30796
 20
0.51933
 10
0.31082
 20
0.52389
 10
0.31331
 20
0.52874
 10
0.31433
 20
0.53135
 10
0.31511
 20
0.53416
 10
0.31547
 20
0.5373
 10
0.31356
 20
0.54233
 10
0.26712
 20
0.58533
 10
0.26197
 20
0.58685
 10
0.25885
 20
0.58625
 10
0.25612
 20
0.58525
 10
0.2536
 20
0.58404
 10
0.24895
 20
0.58118
 10
0.24462
 20
0.57799
 10
0.23547
 20
0.57213
 10
0.22569
 20
0.56697
 10
0.21542
 20
0.56237
 10
0.20473
 20
0.55826
 10
0.19367
 20
0.55461
 10
0.18228
 20
0.5514
 10
0.17057
 20
0.54861
 10
0.15858
 20
0.54623
 10
0.11836
 20
0.59922
 10
0.12387
 20
0.61013
 10
0.12971
 20
0.62066
 10
0.13587
 20
0.63077
 10
0.14236
 20
0.64043
 10
0.14919
 20
0.64962
 10
0.15638
 20
0.65828
 10
0.16398
 20
0.66631
 10
0.17208
 20
0.67355
 10
0.17633
 20
0.67686
 10
0.18033
 20
0.68057
 10
0.18218
 20
0.68267
 10
0.18387
 20
0.68504
 10
0.18528
 20
0.68787
 10
0.18521
 20
0.69325
 10
0.15628
 20
0.74954
 10
0.15195
 20
0.75273
 10
0.14882
 20
0.75323
 10
0.14591
 20
0.75323
 10
0.14313
 20
0.75295
 10
0.13778
 20
0.75186
 10
0.13262
 20
0.75033
 10
0.12202
 20
0.74796
 10
0.11107
 20
0.74646
 10
0.09984
 20
0.74565
 10
0.08839
 20
0.74544
 10
0.07675
 20
0.74579
 10
0.06495
 20
0.74667
 10
0.05299
 20
0.74805
 10
0.04091
 20
0.74992
 10
0.02124
 20
0.81347
 10
0.03015
 20
0.82184
 10
0.03923
 20
0.82973
 10
0.04848
 20
0.83713
 10
0.05788
 20
0.84399
 10
0.06745
 20
0.85029
 10
0.07717
 20
0.85596
 10
0.08706
 20
0.86092
 10
0.09714
 20
0.86494
 10
0.10226
 20
0.8666
 10
0.10729
 20
0.86872
 10
0.10975
 20
0.87006
 10
0.11215
 20
0.87171
 10
0.11445
 20
0.87389
 10
0.11622
 20
0.87896
 10
0.10828
 20
0.94176
 10
0.10531
 20
0.94623
 10
0.10254
 20
0.94777
 10
0.0998
 20
0.94877
 10
0.09709
 20
0.94946
 10
0.09169
 20
0.95026
 10
0.08632
 20
0.95059
 10
0.07555
 20
0.95199
 10
0.06474
 20
0.95432
 10
0.05392
 20
0.9574
 10
0.04309
 20
0.96112
 10
0.03227
 20
0.96543
 10
0.02148
 20
0.9703
 10
0.01072
 20
0.97568
 10
0
 20
0.98158
 10
0.00325
 20
1.04801
 10
0.01449
 20
1.05283
 10
0.02572
 20
1.05714
 10
0.03694
 20
1.06093
 10
0.04813
 20
1.06417
 10
0.05927
 20
1.06681
 10
0.07034
 20
1.06882
 10
0.08133
 20
1.07009
 10
0.09219
 20
1.07043
 10
0.09756
 20
1.07023
 10
0.10301
 20
1.0705
 10
0.10578
 20
1.07093
 10
0.1086
 20
1.07165
 10
0.1115
 20
1.07291
 10
0.1149
 20
1.07708
 10
0.12892
 20
1.1388
 10
0.12766
 20
1.14402
 10
0.12558
 20
1.14642
 10
0.12335
 20
1.14829
 10
0.12104
 20
1.14986
 10
0.11624
 20
1.15246
 10
0.11131
 20
1.15461
 10
0.10166
 20
1.1596
 10
0.09231
 20
1.1655
 10
0.08318
 20
1.17209
 10
0.07428
 20
1.17929
 10
0.06559
 20
1.18704
 10
0.05711
 20
1.19531
 10
0.04884
 20
1.20405
 10
0.04079
 20
1.21325
 10
0.06657
 20
1.27457
 10
0.07878
 20
1.27525
 10
0.09081
 20
1.27546
 10
0.10264
 20
1.27518
 10
0.11426
 20
1.2744
 10
0.12564
 20
1.27308
 10
0.13673
 20
1.27117
 10
0.14749
 20
1.26861
 10
0.1578
 20
1.26521
 10
0.16279
 20
1.26319
 10
0.168
 20
1.26158
 10
0.17075
 20
1.26103
 10
0.17365
 20
1.26075
 10
0.17681
 20
1.26094
 10
0.18142
 20
1.26369
 10
0.21571
 20
1.31689
 10
0.21631
 20
1.32224
 10
0.21518
 20
1.3252
 10
0.21372
 20
1.32772
 10
0.21209
 20
1.32999
 10
0.20847
 20
1.33407
 10
0.20457
 20
1.33778
 10
0.19721
 20
1.34577
 10
0.19043
 20
1.35451
 10
0.18412
 20
1.36383
 10
0.17822
 20
1.37364
 10
0.1727
 20
1.38389
 10
0.16756
 20
1.39456
 10
0.16278
 20
1.4056
 10
0.15836
 20
1.417
 10
0.20355
 20
1.46581
 10
0.21526
 20
1.46227
 10
0.22664
 20
1.45835
 10
0.23766
 20
1.45405
 10
0.24831
 20
1.44933
 10
0.25855
 20
1.4442
 10
0.26832
 20
1.43862
 10
0.27755
 20
1.43253
 10
0.28609
 20
1.42581
 10
0.29008
 20
1.4222
 10
0.29443
 20
1.41891
 10
0.29682
 20
1.41745
 10
0.29945
 20
1.4162
 10
0.30248
 20
1.41529
 10
0.30776
 20
1.4163
 10
0.35818
 20
1.45457
 10
0.36057
 20
1.45938
 10
0.36052
 20
1.46255
 10
0.36001
 20
1.46542
 10
0.35925
 20
1.46811
 10
0.35725
 20
1.47319
 10
0.35485
 20
1.478
 10
0.35067
 20
1.48803
 10
0.34729
 20
1.49856
 10
0.34454
 20
1.50947
 10
0.34235
 20
1.52071
 10
0.34068
 20
1.53224
 10
0.33949
 20
1.54402
 10
0.33878
 20
1.55603
 10
0.33852
 20
1.56825
 10
0.39768
 20
1.59866
 10
0.40747
 20
1.59133
 10
0.41683
 20
1.58376
 10
0.42571
 20
1.57594
 10
0.43411
 20
1.56787
 10
0.44197
 20
1.55955
 10
0.44925
 20
1.55096
 10
0.45584
 20
1.54208
 10
0.46156
 20
1.53284
 10
0.46408
 20
1.52809
 10
0.46704
 20
1.52351
 10
0.46879
 20
1.52132
 10
0.47083
 20
1.51924
 10
0.47337
 20
1.51736
 10
0.47868
 20
1.5165
 10
0.53914
 20
1.53521
 10
0.54303
 20
1.53892
 10
0.54407
 20
1.54191
 10
0.54457
 20
1.54478
 10
0.54478
 20
1.54757
 10
0.54463
 20
1.55303
 10
0.54403
 20
1.55837
 10
0.54353
 20
1.56922
 10
0.54395
 20
1.58028
 10
0.5451
 20
1.59147
 10
0.54689
 20
1.60278
 10
0.54926
 20
1.61418
 10
0.55217
 20
1.62566
 10
0.55561
 20
1.63719
 10
0.55955
 20
1.64877
 10
0.62554
 20
1.6571
 10
0.63224
 20
1.64687
 10
0.63844
 20
1.63656
 10
0.64411
 20
1.62617
 10
0.64924
 20
1.61571
 10
0.65379
 20
1.6052
 10
0.65768
 20
1.59464
 10
0.66084
 20
1.58404
 10
0.66306
 20
1.57341
 10
0.6638
 20
1.56808
 10
0.66501
 20
1.56276
 10
0.66591
 20
1.56011
 10
0.66711
 20
1.55746
 10
0.66886
 20
1.55482
 10
0.67355
 20
1.55219
 10
0.73677
 20
1.5491
 10
0.7417
 20
1.55125
 10
0.74369
 20
1.55371
 10
0.74515
 20
1.55623
 10
0.7463
 20
1.55879
 10
0.74803
 20
1.56396
 10
0.74928
 20
1.56919
 10
0.75253
 20
1.57956
 10
0.75671
 20
1.5898
 10
0.76162
 20
1.59993
 10
0.76716
 20
1.60994
 10
0.77329
 20
1.61985
 10
0.77995
 20
1.62963
 10
0.78713
 20
1.6393
 10
0.79479
 20
1.64883
 10
0.85965
 20
1.63409
 10
0.86245
 20
1.62218
 10
0.86474
 20
1.61037
 10
0.86652
 20
1.59867
 10
0.86777
 20
1.58709
 10
0.86844
 20
1.57566
 10
0.86849
 20
1.5644
 10
0.86784
 20
1.55336
 10
0.86628
 20
1.54261
 10
0.86516
 20
1.53735
 10
0.86448
 20
1.53194
 10
0.86441
 20
1.52914
 10
0.86464
 20
1.52624
 10
0.86537
 20
1.52315
 10
0.86889
 20
1.51909
 10
0.92723
 20
1.49456
 10
0.9326
 20
1.4949
 10
0.93531
 20
1.49653
 10
0.93755
 20
1.4984
 10
0.9395
 20
1.5004
 10
0.94289
 20
1.50467
 10
0.94586
 20
1.50916
 10
0.95246
 20
1.51779
 10
0.95989
 20
1.52598
 10
0.96796
 20
1.53382
 10
0.9766
 20
1.54134
 10
0.98574
 20
1.54855
 10
0.99535
 20
1.55547
 10
1.0054
 20
1.56209
 10
1.01586
 20
1.56843
 10
1.07177
 20
1.53239
 10
1.07032
 20
1.52025
 10
1.06844
 20
1.50836
 10
1.06611
 20
1.49676
 10
1.06332
 20
1.48545
 10
1.06004
 20
1.47448
 10
1.05624
 20
1.46389
 10
1.05185
 20
1.45374
 10
1.04671
 20
1.44417
 10
1.04386
 20
1.43961
 10
1.04137
 20
1.43475
 10
1.04035
 20
1.43214
 10
1.03957
 20
1.42934
 10
1.03921
 20
1.42619
 10
1.04111
 20
1.42117
 10
1.08755
 20
1.37816
 10
1.09271
 20
1.37665
 10
1.09582
 20
1.37725
 10
1.09856
 20
1.37824
 10
1.10108
 20
1.37946
 10
1.10573
 20
1.38231
 10
1.11005
 20
1.38551
 10
1.1192
 20
1.39137
 10
1.12899
 20
1.39653
 10
1.13926
 20
1.40113
 10
1.14994
 20
1.40524
 10
1.161
 20
1.40889
 10
1.1724
 20
1.4121
 10
1.1841
 20
1.41489
 10
1.1961
 20
1.41726
 10
1.23632
 20
1.36428
 10
1.2308
 20
1.35336
 10
1.22497
 20
1.34284
 10
1.21881
 20
1.33273
 10
1.21232
 20
1.32306
 10
1.20549
 20
1.31387
 10
1.19829
 20
1.30522
 10
1.19069
 20
1.29718
 10
1.18259
 20
1.28994
 10
1.17835
 20
1.28664
 10
1.17435
 20
1.28293
 10
1.1725
 20
1.28082
 10
1.17081
 20
1.27846
 10
1.16939
 20
1.27562
 10
1.16947
 20
1.27025
 10
1.1984
 20
1.21395
 10
1.20272
 20
1.21077
 10
1.20585
 20
1.21027
 10
1.20876
 20
1.21027
 10
1.21155
 20
1.21054
 10
1.21689
 20
1.21164
 10
1.22205
 20
1.21316
 10
1.23265
 20
1.21554
 10
1.24361
 20
1.21704
 10
1.25484
 20
1.21785
 10
1.26628
 20
1.21806
 10
1.27792
 20
1.2177
 10
1.28973
 20
1.21683
 10
1.30168
 20
1.21544
 10
1.31377
 20
1.21357
 10
1.33344
 20
1.15003
 10
1.32453
 20
1.14166
 10
1.31544
 20
1.13376
 10
1.3062
 20
1.12637
 10
1.29679
 20
1.1195
 10
1.28723
 20
1.1132
 10
1.27751
 20
1.10753
 10
1.26762
 20
1.10258
 10
1.25753
 20
1.09855
 10
1.25241
 20
1.09689
 10
1.24739
 20
1.09478
 10
1.24493
 20
1.09343
 10
1.24253
 20
1.09179
 10
1.24023
 20
1.08961
 10
1.23846
 20
1.08453
 0
CIRCLE
 8
profile
 10
0.67734
 20
0.98175
 40
0.0315
 0
LINE
 8
profile
 10
1.2478
 20
0.00415
 30
0
 11
1.2478
 21
-0.06523
 31
 0
 0
LINE
 8
profile
 10
1.2478
 20
-0.06523
 30
0
 11
1.35468
 21
-0.10413
 31
 0
 0
LINE
 8
profile
 10
1.35468
 20
-0.10413
 30
0
 11
1.35468
 21
-0.17512
 31
 0
 0
LINE
 8
profile
 10
1.35468
 20
-0.17512
 30
0
 11
1.2478
 21
-0.21402
 31
 0
 0
LINE
 8
profile
 10
1.2478
 20
0.22231
 30
0
 11
1.2478
 21
0.15293
 31
 0
 0
LINE
 8
profile
 10
1.2478
 20
0.15293
 30
0
 11
1.35468
 21
0.11403
 31
 0
 0
LINE
 8
profile
 10
1.35468
 20
0.11403
 30
0
 11
1.35468
 21
0.04305
 31
 0
 0
LINE
 8
profile
 10
1.35468
 20
0.04305
 30
0
 11
1.2478
 21
0.00415
 31
 0
 0
LINE
 8
profile
 10
1.2478
 20
0.44048
 30
0
 11
1.2478
 21
0.3711
 31
 0
 0
LINE
 8
profile
 10
1.2478
 20
0.3711
 30
0
 11
1.35468
 21
0.3322
 31
 0
 0
LINE
 8
profile
 10
1.35468
 20
0.3322
 30
0
 11
1.35468
 21
0.26121
 31
 0
 0
LINE
 8
profile
 10
1.35468
 20
0.26121
 30
0
 11
1.2478
 21
0.22231
 31
 0
 0
LINE
 8
profile
 10
1.2478
 20
0.65865
 30
0
 11
1.2478
 21
0.58927
 31
 0
 0
LINE
 8
profile
 10
1.2478
 20
0.58927
 30
0
 11
1.35468
 21
0.55036
 31
 0
 0
LINE
 8
profile
 10
1.35468
 20
0.55036
 30
0
 11
1.35468
 21
0.47938
 31
 0
 0
LINE
 8
profile
 10
1.35468
 20
0.47938
 30
0
 11
1.2478
 21
0.44048
 31
 0
 0
LINE
 8
profile
 10
1.2478
 20
0.87681
 30
0
 11
1.2478
 21
0.80743
 31
 0
 0
LINE
 8
profile
 10
1.2478
 20
0.80743
 30
0
 11
1.35468
 21
0.76853
 31
 0
 0
LINE
 8
profile
 10
1.35468
 20
0.76853
 30
0
 11
1.35468
 21
0.69755
 31
 0
 0
LINE
 8
profile
 10
1.35468
 20
0.69755
 30
0
 11
1.2478
 21
0.65865
 31
 0
 0
LINE
 8
profile
 10
1.2478
 20
1.09498
 30
0
 11
1.2478
 21
1.0256
 31
 0
 0
LINE
 8
profile
 10
1.2478
 20
1.0256
 30
0
 11
1.35468
 21
0.9867
 31
 0
 0
LINE
 8
profile
 10
1.35468
 20
0.9867
 30
0
 11
1.35468
 21
0.91571
 31
 0
 0
LINE
 8
profile
 10
1.35468
 20
0.91571
 30
0
 11
1.2478
 21
0.87681
 31
 0
 0
LINE
 8
profile
 10
1.2478
 20
1.31314
 30
0
 11
1.2478
 21
1.24376
 31
 0
 0
LINE
 8
profile
 10
1.2478
 20
1.24376
 30
0
 11
1.35468
 21
1.20486
 31
 0
 0
LINE
 8
profile
 10
1.35468
 20
1.20486
 30
0
 11
1.35468
 21
1.13388
 31
 0
 0
LINE
 8
profile
 10
1.35468
 20
1.13388
 30
0
 11
1.2478
 21
1.09498
 31
 0
 0
LINE
 8
profile
 10
1.2478
 20
1.53131
 30
0
 11
1.2478
 21
1.46193
 31
 0
 0
LINE
 8
profile
 10
1.2478
 20
1.46193
 30
0
 11
1.35468
 21
1.42303
 31
 0
 0
LINE
 8
profile
 10
1.35468
 20
1.42303
 30
0
 11
1.35468
 21
1.35204
 31
 0
 0
LINE
 8
profile
 10
1.35468
 20
1.35204
 30
0
 11
1.2478
 21
1.31314
 31
 0
 0
LINE
 8
profile
 10
1.2478
 20
1.74948
 30
0
 11
1.2478
 21
1.6801
 31
 0
 0
LINE
 8
profile
 10
1.2478
 20
1.6801
 30
0
 11
1.35468
 21
1.64119
 31
 0
 0
LINE
 8
profile
 10
1.35468
 20
1.64119
 30
0
 11
1.35468
 21
1.57021
 31
 0
 0
LINE
 8
profile
 10
1.35468
 20
1.57021
 30
0
 11
1.2478
 21
1.53131
 31
 0
 0
LINE
 8
profile
 10
1.2478
 20
1.96764
 30
0
 11
1.2478
 21
1.89826
 31
 0
 0
LINE
 8
profile
 10
1.2478
 20
1.89826
 30
0
 11
1.35468
 21
1.85936
 31
 0
 0
LINE
 8
profile
 10
1.35468
 20
1.85936
 30
0
 11
1.35468
 21
1.78838
 31
 0
 0
LINE
 8
profile
 10
1.35468
 20
1.78838
 30
0
 11
1.2478
 21
1.74948
 31
 0
  0
ENDSEC
  0
EOF
