  999
DXF file created by gear template generator.  2011-12-20T12:38:52
  0
SECTION
  2
HEADER
  9
$ACADVER
  1
AC1006
  9
$INSBASE
  10
0.0
  20
0.0
  30
0.0
  9
$EXTMIN
  10
0.0
  20
0.0
  9
$EXTMAX
  10
10000.0
  20
10000.0
  0
ENDSEC
  0
SECTION
  2
ENTITIES
 0
LWPOLYLINE
 8
profile
 90
540
 70
1
 10
1.24808
 20
0.7242
 10
1.25123
 20
0.71723
 10
1.25403
 20
0.71467
 10
1.25676
 20
0.71289
 10
1.25946
 20
0.71154
 10
1.26487
 20
0.70864
 10
1.27012
 20
0.70835
 10
1.28068
 20
0.70681
 10
1.29127
 20
0.70442
 10
1.30188
 20
0.70133
 10
1.31248
 20
0.69763
 10
1.32307
 20
0.69337
 10
1.33364
 20
0.68858
 10
1.34418
 20
0.68328
 10
1.35468
 20
0.67751
 10
1.35143
 20
0.61107
 10
1.34042
 20
0.60635
 10
1.32942
 20
0.60211
 10
1.31843
 20
0.59837
 10
1.30747
 20
0.59516
 10
1.29656
 20
0.59252
 10
1.2857
 20
0.59048
 10
1.27493
 20
0.58913
 10
1.26427
 20
0.58863
 10
1.25901
 20
0.58885
 10
1.25335
 20
0.58649
 10
1.25053
 20
0.58541
 10
1.24763
 20
0.58391
 10
1.2446
 20
0.58163
 10
1.24078
 20
0.575
 10
1.22969
 20
0.52617
 10
1.23027
 20
0.51854
 10
1.23202
 20
0.51518
 10
1.23398
 20
0.51257
 10
1.23606
 20
0.51038
 10
1.24014
 20
0.50581
 10
1.24498
 20
0.50373
 10
1.25438
 20
0.49868
 10
1.26351
 20
0.49281
 10
1.27242
 20
0.48628
 10
1.28112
 20
0.47917
 10
1.28961
 20
0.47155
 10
1.29791
 20
0.46343
 10
1.306
 20
0.45485
 10
1.31389
 20
0.44584
 10
1.28811
 20
0.38452
 10
1.27615
 20
0.38384
 10
1.26436
 20
0.38362
 10
1.25276
 20
0.38387
 10
1.24136
 20
0.3846
 10
1.2302
 20
0.38585
 10
1.2193
 20
0.38764
 10
1.20872
 20
0.39006
 10
1.19853
 20
0.39324
 10
1.19367
 20
0.39524
 10
1.18754
 20
0.39496
 10
1.18452
 20
0.39492
 10
1.18129
 20
0.39449
 10
1.17766
 20
0.39339
 10
1.1718
 20
0.38846
 10
1.14468
 20
0.34637
 10
1.14261
 20
0.33901
 10
1.1431
 20
0.33525
 10
1.14405
 20
0.33213
 10
1.14526
 20
0.32936
 10
1.14753
 20
0.32366
 10
1.15137
 20
0.32006
 10
1.15847
 20
0.31209
 10
1.16505
 20
0.30345
 10
1.17118
 20
0.29427
 10
1.17693
 20
0.28462
 10
1.1823
 20
0.27455
 10
1.18732
 20
0.26408
 10
1.19199
 20
0.25325
 10
1.19632
 20
0.24208
 10
1.15112
 20
0.19328
 10
1.13966
 20
0.19674
 10
1.1285
 20
0.20056
 10
1.11768
 20
0.20476
 10
1.10723
 20
0.20935
 10
1.09716
 20
0.21434
 10
1.08754
 20
0.21975
 10
1.07842
 20
0.22564
 10
1.06993
 20
0.23211
 10
1.06605
 20
0.23566
 10
1.06019
 20
0.23749
 10
1.05734
 20
0.23848
 10
1.05416
 20
0.23919
 10
1.05037
 20
0.2394
 10
1.04318
 20
0.23677
 10
1.0033
 20
0.20649
 10
0.99883
 20
0.20028
 10
0.99801
 20
0.19658
 10
0.99784
 20
0.19332
 10
0.99802
 20
0.1903
 10
0.99821
 20
0.18417
 10
1.00059
 20
0.17947
 10
1.00454
 20
0.16956
 10
1.00776
 20
0.1592
 10
1.01039
 20
0.14847
 10
1.01248
 20
0.13743
 10
1.01409
 20
0.12613
 10
1.01522
 20
0.11458
 10
1.01591
 20
0.10281
 10
1.01616
 20
0.09083
 10
0.95699
 20
0.06043
 10
0.9474
 20
0.0676
 10
0.93823
 20
0.07501
 10
0.9295
 20
0.08266
 10
0.92124
 20
0.09054
 10
0.91349
 20
0.09867
 10
0.90629
 20
0.10705
 10
0.89974
 20
0.1157
 10
0.89398
 20
0.12469
 10
0.89154
 20
0.12935
 10
0.88667
 20
0.13308
 10
0.88432
 20
0.13498
 10
0.88158
 20
0.13674
 10
0.87809
 20
0.13822
 10
0.87043
 20
0.13821
 10
0.8226
 20
0.12341
 10
0.81628
 20
0.11909
 10
0.81424
 20
0.11589
 10
0.81296
 20
0.11289
 10
0.81211
 20
0.11
 10
0.81019
 20
0.10417
 10
0.81081
 20
0.09894
 10
0.81114
 20
0.08828
 10
0.81062
 20
0.07743
 10
0.80942
 20
0.06645
 10
0.80761
 20
0.05537
 10
0.80525
 20
0.0442
 10
0.80237
 20
0.03295
 10
0.79899
 20
0.02166
 10
0.79513
 20
0.01032
 10
0.72913
 20
0.00198
 10
0.72257
 20
0.012
 10
0.71648
 20
0.0221
 10
0.7109
 20
0.03228
 10
0.70583
 20
0.04251
 10
0.70133
 20
0.0528
 10
0.69744
 20
0.06313
 10
0.69424
 20
0.07351
 10
0.6919
 20
0.08392
 10
0.6912
 20
0.08914
 10
0.6879
 20
0.0943
 10
0.68634
 20
0.0969
 10
0.68436
 20
0.09948
 10
0.68159
 20
0.10207
 10
0.6744
 20
0.10468
 10
0.62438
 20
0.10713
 10
0.61697
 20
0.10524
 10
0.61396
 20
0.10293
 10
0.61173
 20
0.10054
 10
0.60994
 20
0.09812
 10
0.60614
 20
0.0933
 10
0.60494
 20
0.08817
 10
0.6016
 20
0.07804
 10
0.5974
 20
0.06803
 10
0.59252
 20
0.05812
 10
0.58703
 20
0.04832
 10
0.58099
 20
0.03863
 10
0.57444
 20
0.02905
 10
0.5674
 20
0.01959
 10
0.55989
 20
0.01026
 10
0.49502
 20
0.025
 10
0.49228
 20
0.03666
 10
0.49002
 20
0.04823
 10
0.48825
 20
0.0597
 10
0.48699
 20
0.07105
 10
0.48628
 20
0.08226
 10
0.48615
 20
0.0933
 10
0.4867
 20
0.10415
 10
0.48806
 20
0.11473
 10
0.48919
 20
0.11987
 10
0.48785
 20
0.12585
 10
0.48728
 20
0.12882
 10
0.4863
 20
0.13193
 10
0.48458
 20
0.13531
 10
0.47872
 20
0.14022
 10
0.43255
 20
0.15963
 10
0.42494
 20
0.16038
 10
0.42132
 20
0.15925
 10
0.41841
 20
0.15777
 10
0.4159
 20
0.1561
 10
0.41068
 20
0.15287
 10
0.4078
 20
0.14847
 10
0.40119
 20
0.14009
 10
0.39382
 20
0.13211
 10
0.38585
 20
0.12447
 10
0.37734
 20
0.11714
 10
0.36835
 20
0.1101
 10
0.35892
 20
0.10334
 10
0.34907
 20
0.09686
 10
0.33882
 20
0.09066
 10
0.2829
 20
0.12669
 10
0.28432
 20
0.13859
 10
0.28615
 20
0.15024
 10
0.28841
 20
0.16162
 10
0.29111
 20
0.17271
 10
0.29427
 20
0.18349
 10
0.29793
 20
0.19391
 10
0.30215
 20
0.20392
 10
0.30705
 20
0.21339
 10
0.30987
 20
0.21784
 10
0.31066
 20
0.22392
 10
0.31114
 20
0.2269
 10
0.31128
 20
0.23016
 10
0.31082
 20
0.23393
 10
0.30699
 20
0.24055
 10
0.27025
 20
0.27457
 10
0.26335
 20
0.27789
 10
0.25956
 20
0.27805
 10
0.25633
 20
0.27766
 10
0.25339
 20
0.27695
 10
0.24739
 20
0.2757
 10
0.24317
 20
0.27255
 10
0.2341
 20
0.26694
 10
0.22444
 20
0.26196
 10
0.21434
 20
0.25751
 10
0.20383
 20
0.25353
 10
0.19298
 20
0.24999
 10
0.1818
 20
0.24686
 10
0.17033
 20
0.24414
 10
0.15858
 20
0.24182
 10
0.11836
 20
0.29481
 10
0.12376
 20
0.3055
 10
0.12946
 20
0.31582
 10
0.13548
 20
0.32574
 10
0.14181
 20
0.33525
 10
0.14847
 20
0.34429
 10
0.15547
 20
0.35283
 10
0.16286
 20
0.36079
 10
0.1707
 20
0.36802
 10
0.17487
 20
0.37123
 10
0.17769
 20
0.37668
 10
0.17916
 20
0.37932
 10
0.18041
 20
0.38233
 10
0.18127
 20
0.38602
 10
0.17993
 20
0.39356
 10
0.15705
 20
0.43809
 10
0.1517
 20
0.44357
 10
0.1482
 20
0.44502
 10
0.14502
 20
0.44576
 10
0.14202
 20
0.4461
 10
0.13595
 20
0.44698
 10
0.13091
 20
0.44545
 10
0.12046
 20
0.44328
 10
0.10969
 20
0.44191
 10
0.09867
 20
0.44119
 10
0.08744
 20
0.44104
 10
0.07603
 20
0.44142
 10
0.06446
 20
0.44231
 10
0.05274
 20
0.44368
 10
0.04091
 20
0.44551
 10
0.02124
 20
0.50906
 10
0.02997
 20
0.51726
 10
0.03886
 20
0.52501
 10
0.0479
 20
0.53227
 10
0.0571
 20
0.53904
 10
0.06645
 20
0.54526
 10
0.07596
 20
0.55089
 10
0.08562
 20
0.55584
 10
0.09546
 20
0.55995
 10
0.10048
 20
0.56155
 10
0.105
 20
0.5657
 10
0.10728
 20
0.56768
 10
0.10948
 20
0.57008
 10
0.11155
 20
0.57326
 10
0.11287
 20
0.58079
 10
0.1066
 20
0.63047
 10
0.10344
 20
0.63745
 10
0.10065
 20
0.64001
 10
0.09792
 20
0.64179
 10
0.09521
 20
0.64314
 10
0.08981
 20
0.64603
 10
0.08455
 20
0.64633
 10
0.07399
 20
0.64786
 10
0.0634
 20
0.65026
 10
0.0528
 20
0.65335
 10
0.04219
 20
0.65705
 10
0.0316
 20
0.66131
 10
0.02103
 20
0.6661
 10
0.01049
 20
0.67139
 10
0
 20
0.67717
 10
0.00325
 20
0.7436
 10
0.01426
 20
0.74833
 10
0.02526
 20
0.75257
 10
0.03625
 20
0.7563
 10
0.04721
 20
0.75951
 10
0.05812
 20
0.76216
 10
0.06898
 20
0.7642
 10
0.07975
 20
0.76555
 10
0.09041
 20
0.76604
 10
0.09567
 20
0.76583
 10
0.10133
 20
0.76818
 10
0.10415
 20
0.76926
 10
0.10704
 20
0.77076
 10
0.11008
 20
0.77304
 10
0.11389
 20
0.77967
 10
0.12499
 20
0.8285
 10
0.12441
 20
0.83613
 10
0.12266
 20
0.8395
 10
0.1207
 20
0.84211
 10
0.11862
 20
0.8443
 10
0.11453
 20
0.84887
 10
0.1097
 20
0.85094
 10
0.1003
 20
0.856
 10
0.09117
 20
0.86187
 10
0.08226
 20
0.8684
 10
0.07356
 20
0.8755
 10
0.06506
 20
0.88313
 10
0.05677
 20
0.89125
 10
0.04868
 20
0.89982
 10
0.04079
 20
0.90884
 10
0.06657
 20
0.97016
 10
0.07853
 20
0.97083
 10
0.09032
 20
0.97105
 10
0.10192
 20
0.97081
 10
0.11331
 20
0.97007
 10
0.12447
 20
0.96883
 10
0.13537
 20
0.96703
 10
0.14596
 20
0.96462
 10
0.15614
 20
0.96144
 10
0.16101
 20
0.95943
 10
0.16714
 20
0.95971
 10
0.17016
 20
0.95976
 10
0.17339
 20
0.96018
 10
0.17702
 20
0.96129
 10
0.18288
 20
0.96621
 10
0.21
 20
1.0083
 10
0.21207
 20
1.01567
 10
0.21157
 20
1.01943
 10
0.21062
 20
1.02255
 10
0.20942
 20
1.02532
 10
0.20714
 20
1.03102
 10
0.20331
 20
1.03462
 10
0.1962
 20
1.04258
 10
0.18963
 20
1.05122
 10
0.18349
 20
1.0604
 10
0.17775
 20
1.07006
 10
0.17237
 20
1.08013
 10
0.16735
 20
1.09059
 10
0.16268
 20
1.10142
 10
0.15836
 20
1.11259
 10
0.20355
 20
1.1614
 10
0.21502
 20
1.15794
 10
0.22617
 20
1.15411
 10
0.23699
 20
1.14991
 10
0.24745
 20
1.14533
 10
0.25751
 20
1.14034
 10
0.26714
 20
1.13493
 10
0.27626
 20
1.12903
 10
0.28474
 20
1.12256
 10
0.28863
 20
1.11901
 10
0.29448
 20
1.11718
 10
0.29734
 20
1.11619
 10
0.30052
 20
1.11548
 10
0.30431
 20
1.11528
 10
0.3115
 20
1.11791
 10
0.35138
 20
1.14818
 10
0.35584
 20
1.1544
 10
0.35667
 20
1.1581
 10
0.35684
 20
1.16136
 10
0.35665
 20
1.16437
 10
0.35646
 20
1.1705
 10
0.35409
 20
1.1752
 10
0.35014
 20
1.18511
 10
0.34692
 20
1.19548
 10
0.34429
 20
1.20621
 10
0.34219
 20
1.21724
 10
0.34059
 20
1.22855
 10
0.33945
 20
1.2401
 10
0.33877
 20
1.25187
 10
0.33852
 20
1.26384
 10
0.39768
 20
1.29425
 10
0.40728
 20
1.28708
 10
0.41645
 20
1.27967
 10
0.42518
 20
1.27202
 10
0.43344
 20
1.26414
 10
0.44119
 20
1.25601
 10
0.44838
 20
1.24763
 10
0.45494
 20
1.23897
 10
0.46069
 20
1.22999
 10
0.46313
 20
1.22532
 10
0.46801
 20
1.2216
 10
0.47035
 20
1.2197
 10
0.4731
 20
1.21794
 10
0.47659
 20
1.21645
 10
0.48424
 20
1.21646
 10
0.53208
 20
1.23127
 10
0.5384
 20
1.23559
 10
0.54043
 20
1.23878
 10
0.54171
 20
1.24179
 10
0.54257
 20
1.24468
 10
0.54449
 20
1.25051
 10
0.54386
 20
1.25573
 10
0.54354
 20
1.2664
 10
0.54406
 20
1.27724
 10
0.54526
 20
1.28822
 10
0.54706
 20
1.29931
 10
0.54942
 20
1.31048
 10
0.5523
 20
1.32172
 10
0.55569
 20
1.33302
 10
0.55955
 20
1.34436
 10
0.62554
 20
1.35269
 10
0.63211
 20
1.34267
 10
0.63819
 20
1.33257
 10
0.64378
 20
1.3224
 10
0.64884
 20
1.31217
 10
0.65335
 20
1.30188
 10
0.65724
 20
1.29154
 10
0.66044
 20
1.28117
 10
0.66278
 20
1.27076
 10
0.66347
 20
1.26554
 10
0.66678
 20
1.26037
 10
0.66833
 20
1.25778
 10
0.67031
 20
1.25519
 10
0.67308
 20
1.2526
 10
0.68028
 20
1.24999
 10
0.73029
 20
1.24755
 10
0.73771
 20
1.24944
 10
0.74072
 20
1.25175
 10
0.74294
 20
1.25413
 10
0.74474
 20
1.25656
 10
0.74853
 20
1.26138
 10
0.74974
 20
1.2665
 10
0.75308
 20
1.27664
 10
0.75728
 20
1.28665
 10
0.76216
 20
1.29656
 10
0.76765
 20
1.30636
 10
0.77368
 20
1.31605
 10
0.78024
 20
1.32563
 10
0.78728
 20
1.33508
 10
0.79479
 20
1.34442
 10
0.85965
 20
1.32968
 10
0.86239
 20
1.31802
 10
0.86466
 20
1.30645
 10
0.86643
 20
1.29498
 10
0.86768
 20
1.28363
 10
0.8684
 20
1.27242
 10
0.86852
 20
1.26137
 10
0.86798
 20
1.25053
 10
0.86662
 20
1.23995
 10
0.86549
 20
1.23481
 10
0.86683
 20
1.22882
 10
0.8674
 20
1.22586
 10
0.86838
 20
1.22274
 10
0.87009
 20
1.21936
 10
0.87596
 20
1.21445
 10
0.92212
 20
1.19505
 10
0.92974
 20
1.19429
 10
0.93335
 20
1.19543
 10
0.93626
 20
1.19691
 10
0.93878
 20
1.19858
 10
0.94399
 20
1.20181
 10
0.94688
 20
1.20621
 10
0.95348
 20
1.21459
 10
0.96085
 20
1.22256
 10
0.96883
 20
1.2302
 10
0.97734
 20
1.23753
 10
0.98633
 20
1.24458
 10
0.99576
 20
1.25134
 10
1.00561
 20
1.25782
 10
1.01586
 20
1.26402
 10
1.07177
 20
1.22798
 10
1.07036
 20
1.21609
 10
1.06853
 20
1.20444
 10
1.06627
 20
1.19306
 10
1.06357
 20
1.18196
 10
1.0604
 20
1.17118
 10
1.05674
 20
1.16076
 10
1.05253
 20
1.15076
 10
1.04763
 20
1.14128
 10
1.04481
 20
1.13684
 10
1.04402
 20
1.13075
 10
1.04354
 20
1.12777
 10
1.04339
 20
1.12451
 10
1.04385
 20
1.12075
 10
1.04769
 20
1.11413
 10
1.08443
 20
1.0801
 10
1.09132
 20
1.07679
 10
1.09511
 20
1.07662
 10
1.09835
 20
1.07702
 10
1.10129
 20
1.07772
 10
1.10729
 20
1.07898
 10
1.11151
 20
1.08213
 10
1.12058
 20
1.08774
 10
1.13023
 20
1.09271
 10
1.14034
 20
1.09716
 10
1.15084
 20
1.10114
 10
1.1617
 20
1.10469
 10
1.17287
 20
1.10781
 10
1.18435
 20
1.11053
 10
1.1961
 20
1.11285
 10
1.23632
 20
1.05987
 10
1.23092
 20
1.04918
 10
1.22521
 20
1.03886
 10
1.2192
 20
1.02893
 10
1.21287
 20
1.01943
 10
1.20621
 20
1.01039
 10
1.1992
 20
1.00185
 10
1.19182
 20
0.99389
 10
1.18397
 20
0.98666
 10
1.1798
 20
0.98344
 10
1.17698
 20
0.978
 10
1.17551
 20
0.97536
 10
1.17426
 20
0.97235
 10
1.1734
 20
0.96865
 10
1.17474
 20
0.96112
 10
1.19763
 20
0.91658
 10
1.20298
 20
0.91111
 10
1.20648
 20
0.90966
 10
1.20966
 20
0.90892
 10
1.21266
 20
0.90858
 10
1.21873
 20
0.9077
 10
1.22377
 20
0.90922
 10
1.23422
 20
0.91139
 10
1.24499
 20
0.91276
 10
1.25601
 20
0.91349
 10
1.26724
 20
0.91364
 10
1.27865
 20
0.91325
 10
1.29022
 20
0.91237
 10
1.30193
 20
0.911
 10
1.31377
 20
0.90916
 10
1.33344
 20
0.84562
 10
1.32471
 20
0.83742
 10
1.31582
 20
0.82967
 10
1.30677
 20
0.8224
 10
1.29757
 20
0.81564
 10
1.28822
 20
0.80942
 10
1.27872
 20
0.80379
 10
1.26906
 20
0.79883
 10
1.25921
 20
0.79472
 10
1.25419
 20
0.79313
 10
1.24968
 20
0.78898
 10
1.2474
 20
0.787
 10
1.24519
 20
0.7846
 10
1.24312
 20
0.78142
 10
1.2418
 20
0.77388
 0
CIRCLE
 8
profile
 10
0.67734
 20
0.67734
 40
0.0315
 0
LWPOLYLINE
 8
profile
 90
414
 70
1
 10
1.35468
 20
0.67747
 10
1.353
 20
0.68332
 10
1.35132
 20
0.68562
 10
1.34963
 20
0.6873
 10
1.34794
 20
0.68864
 10
1.34624
 20
0.68975
 10
1.34454
 20
0.6907
 10
1.34112
 20
0.69222
 10
1.33769
 20
0.69337
 10
1.33425
 20
0.69422
 10
1.32732
 20
0.69524
 10
1.32035
 20
0.69568
 10
1.31347
 20
0.69737
 10
1.30665
 20
0.69985
 10
1.29989
 20
0.70291
 10
1.29319
 20
0.70649
 10
1.28657
 20
0.71052
 10
1.28002
 20
0.715
 10
1.27358
 20
0.71988
 10
1.26723
 20
0.72516
 10
1.261
 20
0.73082
 10
1.25489
 20
0.73685
 10
1.26146
 20
0.76807
 10
1.27074
 20
0.79859
 10
1.279
 20
0.80094
 10
1.28719
 20
0.80289
 10
1.29529
 20
0.80446
 10
1.3033
 20
0.80564
 10
1.31118
 20
0.8064
 10
1.31893
 20
0.80675
 10
1.32652
 20
0.80666
 10
1.33393
 20
0.80608
 10
1.3411
 20
0.80497
 10
1.34794
 20
0.80313
 10
1.35426
 20
0.80017
 10
1.36082
 20
0.79772
 10
1.36425
 20
0.7968
 10
1.36781
 20
0.79616
 10
1.37153
 20
0.79584
 10
1.37348
 20
0.79586
 10
1.37551
 20
0.79602
 10
1.37764
 20
0.79638
 10
1.37992
 20
0.79703
 10
1.38251
 20
0.79824
 10
1.38679
 20
0.80256
 10
1.40017
 20
0.82432
 10
1.41563
 20
0.84467
 10
1.4181
 20
0.85023
 10
1.41829
 20
0.85307
 10
1.41808
 20
0.85544
 10
1.41764
 20
0.85755
 10
1.41706
 20
0.8595
 10
1.41637
 20
0.86132
 10
1.41473
 20
0.86468
 10
1.41284
 20
0.86776
 10
1.41075
 20
0.87063
 10
1.40609
 20
0.87586
 10
1.40104
 20
0.88068
 10
1.39685
 20
0.8864
 10
1.39322
 20
0.89268
 10
1.39001
 20
0.89938
 10
1.38718
 20
0.90642
 10
1.3847
 20
0.91377
 10
1.38256
 20
0.9214
 10
1.38076
 20
0.92929
 10
1.37929
 20
0.93741
 10
1.37816
 20
0.94575
 10
1.37735
 20
0.9543
 10
1.40246
 20
0.97399
 10
1.42918
 20
0.99141
 10
1.43702
 20
0.98789
 10
1.44455
 20
0.98413
 10
1.45177
 20
0.98012
 10
1.45865
 20
0.97587
 10
1.46519
 20
0.97139
 10
1.47135
 20
0.96668
 10
1.4771
 20
0.96173
 10
1.4824
 20
0.95653
 10
1.48718
 20
0.95107
 10
1.49125
 20
0.94526
 10
1.49418
 20
0.93893
 10
1.49763
 20
0.93283
 10
1.49967
 20
0.92993
 10
1.50198
 20
0.92714
 10
1.50463
 20
0.92451
 10
1.50613
 20
0.92327
 10
1.50779
 20
0.92209
 10
1.50965
 20
0.921
 10
1.51182
 20
0.92003
 10
1.51457
 20
0.91929
 10
1.52063
 20
0.91985
 10
1.54488
 20
0.92792
 10
1.56979
 20
0.93357
 10
1.57526
 20
0.93624
 10
1.57723
 20
0.93829
 10
1.57859
 20
0.94025
 10
1.57962
 20
0.94215
 10
1.58042
 20
0.94401
 10
1.58106
 20
0.94585
 10
1.58197
 20
0.94948
 10
1.5825
 20
0.95306
 10
1.58274
 20
0.9566
 10
1.58254
 20
0.9636
 10
1.58176
 20
0.97053
 10
1.58224
 20
0.97761
 10
1.58349
 20
0.98475
 10
1.58533
 20
0.99195
 10
1.58769
 20
0.99916
 10
1.59052
 20
1.00639
 10
1.59378
 20
1.0136
 10
1.59747
 20
1.0208
 10
1.60157
 20
1.02797
 10
1.60606
 20
1.03509
 10
1.61094
 20
1.04216
 10
1.64283
 20
1.0411
 10
1.6745
 20
1.03727
 10
1.67824
 20
1.02954
 10
1.68159
 20
1.02181
 10
1.68454
 20
1.0141
 10
1.68709
 20
1.00642
 10
1.68921
 20
0.99879
 10
1.6909
 20
0.99122
 10
1.69213
 20
0.98373
 10
1.69285
 20
0.97634
 10
1.69299
 20
0.96908
 10
1.69238
 20
0.96202
 10
1.69055
 20
0.95529
 10
1.68928
 20
0.9484
 10
1.68898
 20
0.94486
 10
1.68895
 20
0.94125
 10
1.6893
 20
0.93752
 10
1.68965
 20
0.93561
 10
1.69015
 20
0.93364
 10
1.69088
 20
0.93161
 10
1.69192
 20
0.92947
 10
1.69356
 20
0.92713
 10
1.69855
 20
0.92366
 10
1.72231
 20
0.91426
 10
1.74503
 20
0.90258
 10
1.75094
 20
0.90111
 10
1.75377
 20
0.90141
 10
1.75607
 20
0.90204
 10
1.75807
 20
0.90283
 10
1.75989
 20
0.90374
 10
1.76156
 20
0.90474
 10
1.76459
 20
0.90694
 10
1.76729
 20
0.90934
 10
1.76975
 20
0.91189
 10
1.7741
 20
0.91739
 10
1.77796
 20
0.9232
 10
1.78287
 20
0.92831
 10
1.78843
 20
0.93298
 10
1.79446
 20
0.93731
 10
1.80091
 20
0.94132
 10
1.80771
 20
0.94504
 10
1.81486
 20
0.94847
 10
1.82231
 20
0.95161
 10
1.83006
 20
0.95446
 10
1.83808
 20
0.95703
 10
1.84635
 20
0.95931
 10
1.8701
 20
0.938
 10
1.8919
 20
0.91471
 10
1.8898
 20
0.90638
 10
1.8874
 20
0.89831
 10
1.8847
 20
0.89051
 10
1.88172
 20
0.88299
 10
1.87844
 20
0.87578
 10
1.87487
 20
0.86889
 10
1.87099
 20
0.86237
 10
1.86679
 20
0.85624
 10
1.86224
 20
0.85059
 10
1.85723
 20
0.84558
 10
1.8515
 20
0.84159
 10
1.8461
 20
0.83713
 10
1.84359
 20
0.83462
 10
1.84125
 20
0.83186
 10
1.83912
 20
0.82879
 10
1.83816
 20
0.8271
 10
1.83728
 20
0.82527
 10
1.83653
 20
0.82324
 10
1.83595
 20
0.82093
 10
1.83571
 20
0.81809
 10
1.8373
 20
0.81222
 10
1.84946
 20
0.78975
 10
1.85936
 20
0.7662
 10
1.86293
 20
0.76127
 10
1.8653
 20
0.75969
 10
1.86746
 20
0.75869
 10
1.86951
 20
0.75801
 10
1.87148
 20
0.75754
 10
1.87341
 20
0.75723
 10
1.87714
 20
0.75696
 10
1.88075
 20
0.75706
 10
1.88428
 20
0.75744
 10
1.89114
 20
0.75886
 10
1.89783
 20
0.76082
 10
1.90488
 20
0.76159
 10
1.91214
 20
0.76159
 10
1.91954
 20
0.76103
 10
1.92706
 20
0.75996
 10
1.93466
 20
0.75843
 10
1.94234
 20
0.75646
 10
1.95007
 20
0.75408
 10
1.95784
 20
0.75129
 10
1.96563
 20
0.7481
 10
1.97344
 20
0.74452
 10
1.97793
 20
0.71294
 10
1.97966
 20
0.68108
 10
1.9727
 20
0.67606
 10
1.96567
 20
0.67142
 10
1.95859
 20
0.66717
 10
1.95147
 20
0.66333
 10
1.94432
 20
0.65991
 10
1.93716
 20
0.65694
 10
1.93
 20
0.65443
 10
1.92284
 20
0.65243
 10
1.91572
 20
0.65103
 10
1.90866
 20
0.65041
 10
1.90171
 20
0.65104
 10
1.89471
 20
0.6511
 10
1.89117
 20
0.65078
 10
1.88761
 20
0.65018
 10
1.884
 20
0.64919
 10
1.88217
 20
0.64852
 10
1.88033
 20
0.64767
 10
1.87845
 20
0.64661
 10
1.87652
 20
0.64521
 10
1.87451
 20
0.64319
 10
1.87196
 20
0.63767
 10
1.86683
 20
0.61264
 10
1.85927
 20
0.58823
 10
1.85884
 20
0.58216
 10
1.85963
 20
0.57943
 10
1.86065
 20
0.57727
 10
1.86178
 20
0.57543
 10
1.86299
 20
0.57381
 10
1.86427
 20
0.57233
 10
1.86695
 20
0.56973
 10
1.86979
 20
0.56748
 10
1.87273
 20
0.5655
 10
1.8789
 20
0.56218
 10
1.88529
 20
0.55938
 10
1.89118
 20
0.55544
 10
1.89674
 20
0.55078
 10
1.90205
 20
0.54559
 10
1.90712
 20
0.53994
 10
1.91196
 20
0.53388
 10
1.91658
 20
0.52744
 10
1.92097
 20
0.52064
 10
1.92513
 20
0.51351
 10
1.92905
 20
0.50606
 10
1.93273
 20
0.4983
 10
1.91587
 20
0.47122
 10
1.89671
 20
0.44571
 10
1.88815
 20
0.44633
 10
1.87978
 20
0.44729
 10
1.87163
 20
0.44859
 10
1.86371
 20
0.45022
 10
1.85604
 20
0.4522
 10
1.84864
 20
0.45452
 10
1.84154
 20
0.45721
 10
1.83478
 20
0.46028
 10
1.82842
 20
0.46378
 10
1.82261
 20
0.46785
 10
1.81769
 20
0.47279
 10
1.81236
 20
0.47734
 10
1.80945
 20
0.47937
 10
1.80633
 20
0.4812
 10
1.80294
 20
0.48276
 10
1.8011
 20
0.48342
 10
1.79914
 20
0.48396
 10
1.79702
 20
0.48435
 10
1.79465
 20
0.48452
 10
1.79181
 20
0.48427
 10
1.7863
 20
0.48167
 10
1.76628
 20
0.4658
 10
1.74481
 20
0.45197
 10
1.74058
 20
0.44759
 10
1.73943
 20
0.44498
 10
1.73882
 20
0.44268
 10
1.7385
 20
0.44055
 10
1.73839
 20
0.43852
 10
1.73841
 20
0.43657
 10
1.7388
 20
0.43285
 10
1.73953
 20
0.42931
 10
1.74051
 20
0.4259
 10
1.7431
 20
0.41939
 10
1.7462
 20
0.41314
 10
1.74817
 20
0.40633
 10
1.74944
 20
0.39918
 10
1.75017
 20
0.39179
 10
1.75042
 20
0.38421
 10
1.75023
 20
0.37645
 10
1.74963
 20
0.36855
 10
1.74863
 20
0.36053
 10
1.74723
 20
0.35239
 10
1.74544
 20
0.34416
 10
1.74327
 20
0.33585
 10
1.71295
 20
0.32594
 10
1.68188
 20
0.31871
 10
1.67572
 20
0.3247
 10
1.66993
 20
0.33081
 10
1.66452
 20
0.33704
 10
1.6595
 20
0.34339
 10
1.65489
 20
0.34983
 10
1.65072
 20
0.35637
 10
1.647
 20
0.36299
 10
1.6438
 20
0.36969
 10
1.64118
 20
0.37646
 10
1.63934
 20
0.3833
 10
1.63875
 20
0.39026
 10
1.63759
 20
0.39716
 10
1.63667
 20
0.40059
 10
1.63545
 20
0.404
 10
1.63386
 20
0.40738
 10
1.63288
 20
0.40906
 10
1.63172
 20
0.41073
 10
1.63035
 20
0.4124
 10
1.62864
 20
0.41405
 10
1.6263
 20
0.41568
 10
1.62042
 20
0.41724
 10
1.59488
 20
0.41794
 10
1.56953
 20
0.42115
 10
1.56348
 20
0.42052
 10
1.56092
 20
0.41926
 10
1.55898
 20
0.41789
 10
1.55736
 20
0.41645
 10
1.55597
 20
0.41498
 10
1.55474
 20
0.41347
 10
1.55265
 20
0.41037
 10
1.55092
 20
0.40719
 10
1.54949
 20
0.40394
 10
1.54728
 20
0.3973
 10
1.54564
 20
0.39051
 10
1.54278
 20
0.38403
 10
1.53915
 20
0.37774
 10
1.53496
 20
0.37161
 10
1.53028
 20
0.36564
 10
1.52515
 20
0.35982
 10
1.51961
 20
0.35415
 10
1.51368
 20
0.34865
 10
1.50738
 20
0.34332
 10
1.50072
 20
0.33816
 10
1.49372
 20
0.33319
 10
1.46412
 20
0.34509
 10
1.43567
 20
0.35952
 10
1.4348
 20
0.36806
 10
1.43429
 20
0.37647
 10
1.43416
 20
0.38472
 10
1.43439
 20
0.39281
 10
1.435
 20
0.40071
 10
1.43601
 20
0.4084
 10
1.43742
 20
0.41586
 10
1.43927
 20
0.42305
 10
1.44161
 20
0.42992
 10
1.44461
 20
0.43634
 10
1.44863
 20
0.44205
 10
1.45218
 20
0.44808
 10
1.45367
 20
0.4513
 10
1.45493
 20
0.45469
 10
1.45588
 20
0.45831
 10
1.45621
 20
0.46023
 10
1.4564
 20
0.46225
 10
1.45642
 20
0.46441
 10
1.45617
 20
0.46678
 10
1.45543
 20
0.46953
 10
1.45192
 20
0.4745
 10
1.43281
 20
0.49146
 10
1.41546
 20
0.51021
 10
1.41041
 20
0.51361
 10
1.40765
 20
0.51429
 10
1.40528
 20
0.51449
 10
1.40312
 20
0.51443
 10
1.4011
 20
0.5142
 10
1.39919
 20
0.51383
 10
1.39559
 20
0.5128
 10
1.39223
 20
0.51147
 10
1.38904
 20
0.50991
 10
1.38308
 20
0.50624
 10
1.37746
 20
0.5021
 10
1.3711
 20
0.49897
 10
1.36428
 20
0.49648
 10
1.35713
 20
0.49448
 10
1.3497
 20
0.49291
 10
1.34203
 20
0.49175
 10
1.33415
 20
0.49097
 10
1.32607
 20
0.49057
 10
1.31782
 20
0.49053
 10
1.3094
 20
0.49086
 10
1.30084
 20
0.49156
 10
1.28582
 20
0.5197
 10
1.2733
 20
0.54904
 10
1.27812
 20
0.55615
 10
1.28314
 20
0.56291
 10
1.28834
 20
0.56932
 10
1.29372
 20
0.57537
 10
1.29926
 20
0.58102
 10
1.30498
 20
0.58627
 10
1.31085
 20
0.59108
 10
1.31689
 20
0.5954
 10
1.3231
 20
0.59915
 10
1.32953
 20
0.60215
 10
1.33627
 20
0.60393
 10
1.34287
 20
0.60628
 10
1.34609
 20
0.60778
 10
1.34923
 20
0.60957
 10
1.35228
 20
0.61173
 10
1.35377
 20
0.61299
 10
1.35521
 20
0.61441
 10
1.35661
 20
0.61606
 10
1.35794
 20
0.61803
 10
1.35915
 20
0.62061
 10
1.35966
 20
0.62668
 10
1.35592
 20
0.65195
 0
CIRCLE
 8
profile
 10
1.61484
 20
0.67734
 40
0.0315
  0
ENDSEC
  0
EOF
