  999
DXF file created by gear template generator.  2011-12-20T12:33:31
  0
SECTION
  2
HEADER
  9
$ACADVER
  1
AC1006
  9
$INSBASE
  10
0.0
  20
0.0
  30
0.0
  9
$EXTMIN
  10
0.0
  20
0.0
  9
$EXTMAX
  10
10000.0
  20
10000.0
  0
ENDSEC
  0
SECTION
  2
ENTITIES
 0
LWPOLYLINE
 8
profile
 90
540
 70
1
 10
1.49567
 20
1.22609
 10
1.49924
 20
1.22071
 10
1.50256
 20
1.21887
 10
1.50585
 20
1.21767
 10
1.5091
 20
1.21684
 10
1.51558
 20
1.21588
 10
1.52202
 20
1.21548
 10
1.53495
 20
1.21381
 10
1.54792
 20
1.21101
 10
1.56091
 20
1.20731
 10
1.57391
 20
1.20285
 10
1.58689
 20
1.19767
 10
1.59984
 20
1.19184
 10
1.61275
 20
1.18537
 10
1.62561
 20
1.1783
 10
1.62171
 20
1.09858
 10
1.60822
 20
1.0928
 10
1.59474
 20
1.08762
 10
1.58128
 20
1.08308
 10
1.56786
 20
1.07919
 10
1.55449
 20
1.07602
 10
1.5412
 20
1.07361
 10
1.52802
 20
1.07208
 10
1.51499
 20
1.07168
 10
1.50854
 20
1.07191
 10
1.502
 20
1.07159
 10
1.49868
 20
1.07108
 10
1.49529
 20
1.07021
 10
1.49181
 20
1.0687
 10
1.48773
 20
1.0637
 10
1.4709
 20
0.98964
 10
1.47242
 20
0.98337
 10
1.47491
 20
0.9805
 10
1.47759
 20
0.97825
 10
1.48036
 20
0.97636
 10
1.48612
 20
0.97324
 10
1.49204
 20
0.97066
 10
1.50361
 20
0.96467
 10
1.51484
 20
0.9576
 10
1.52579
 20
0.94968
 10
1.53647
 20
0.94104
 10
1.5469
 20
0.93174
 10
1.55708
 20
0.92183
 10
1.567
 20
0.91134
 10
1.57666
 20
0.90029
 10
1.54573
 20
0.82671
 10
1.53108
 20
0.82589
 10
1.51664
 20
0.82564
 10
1.50244
 20
0.82597
 10
1.4885
 20
0.82692
 10
1.47485
 20
0.8285
 10
1.46154
 20
0.83079
 10
1.44863
 20
0.83386
 10
1.43625
 20
0.83794
 10
1.43026
 20
0.84036
 10
1.42401
 20
0.8423
 10
1.42071
 20
0.84296
 10
1.41724
 20
0.84329
 10
1.41344
 20
0.84307
 10
1.4079
 20
0.83976
 10
1.36676
 20
0.77592
 10
1.36604
 20
0.76951
 10
1.3674
 20
0.76596
 10
1.36914
 20
0.76293
 10
1.37111
 20
0.7602
 10
1.37545
 20
0.75531
 10
1.38013
 20
0.75086
 10
1.38896
 20
0.74127
 10
1.39709
 20
0.73078
 10
1.40467
 20
0.7196
 10
1.41175
 20
0.70783
 10
1.41837
 20
0.69552
 10
1.42454
 20
0.68273
 10
1.43028
 20
0.66947
 10
1.43558
 20
0.65579
 10
1.38135
 20
0.59723
 10
1.3673
 20
0.60147
 10
1.35365
 20
0.60617
 10
1.34042
 20
0.61134
 10
1.32764
 20
0.61699
 10
1.31535
 20
0.62315
 10
1.30363
 20
0.62985
 10
1.29255
 20
0.63716
 10
1.28231
 20
0.64522
 10
1.27751
 20
0.64955
 10
1.2723
 20
0.6535
 10
1.26943
 20
0.65525
 10
1.26628
 20
0.65676
 10
1.26263
 20
0.65784
 10
1.2563
 20
0.65663
 10
1.1958
 20
0.61071
 10
1.19293
 20
0.60494
 10
1.19299
 20
0.60113
 10
1.1936
 20
0.59769
 10
1.19451
 20
0.59446
 10
1.19691
 20
0.58837
 10
1.19979
 20
0.58259
 10
1.20481
 20
0.57056
 10
1.20886
 20
0.55792
 10
1.21216
 20
0.54483
 10
1.21479
 20
0.53134
 10
1.2168
 20
0.51751
 10
1.21822
 20
0.50338
 10
1.21908
 20
0.48896
 10
1.21939
 20
0.47429
 10
1.14839
 20
0.4378
 10
1.13664
 20
0.44659
 10
1.12542
 20
0.45568
 10
1.11475
 20
0.46507
 10
1.10468
 20
0.47475
 10
1.09524
 20
0.48474
 10
1.08652
 20
0.49504
 10
1.0786
 20
0.5057
 10
1.07174
 20
0.51678
 10
1.06872
 20
0.52248
 10
1.06517
 20
0.52798
 10
1.06306
 20
0.53061
 10
1.06062
 20
0.5331
 10
1.05756
 20
0.53537
 10
1.0512
 20
0.5364
 10
0.97864
 20
0.51394
 10
0.97397
 20
0.50949
 10
0.97273
 20
0.5059
 10
0.97212
 20
0.50246
 10
0.97187
 20
0.4991
 10
0.97205
 20
0.49256
 10
0.97278
 20
0.48615
 10
0.97338
 20
0.47313
 10
0.97287
 20
0.45986
 10
0.97149
 20
0.44643
 10
0.96934
 20
0.43286
 10
0.9665
 20
0.41918
 10
0.963
 20
0.40541
 10
0.95888
 20
0.39157
 10
0.95415
 20
0.37768
 10
0.87496
 20
0.36767
 10
0.86692
 20
0.37995
 10
0.85949
 20
0.39233
 10
0.85267
 20
0.4048
 10
0.84652
 20
0.41734
 10
0.84107
 20
0.42995
 10
0.83639
 20
0.44262
 10
0.8326
 20
0.45534
 10
0.82994
 20
0.4681
 10
0.82905
 20
0.4745
 10
0.8276
 20
0.48088
 10
0.82652
 20
0.48406
 10
0.82507
 20
0.48724
 10
0.82298
 20
0.49042
 10
0.81735
 20
0.49356
 10
0.74149
 20
0.49727
 10
0.73558
 20
0.49469
 10
0.73318
 20
0.49174
 10
0.73143
 20
0.48871
 10
0.73005
 20
0.48565
 10
0.72798
 20
0.47944
 10
0.72647
 20
0.47316
 10
0.72258
 20
0.46072
 10
0.71756
 20
0.44843
 10
0.71167
 20
0.43628
 10
0.70502
 20
0.42426
 10
0.69767
 20
0.41238
 10
0.68967
 20
0.40063
 10
0.68106
 20
0.38904
 10
0.67187
 20
0.3776
 10
0.59403
 20
0.39529
 10
0.59068
 20
0.40957
 10
0.58792
 20
0.42375
 10
0.58578
 20
0.4378
 10
0.58429
 20
0.45169
 10
0.58348
 20
0.46541
 10
0.58342
 20
0.47891
 10
0.58421
 20
0.49216
 10
0.58607
 20
0.50506
 10
0.58742
 20
0.51137
 10
0.58824
 20
0.51787
 10
0.58832
 20
0.52123
 10
0.58805
 20
0.52471
 10
0.58716
 20
0.52841
 10
0.58295
 20
0.53329
 10
0.51293
 20
0.56272
 10
0.5065
 20
0.56232
 10
0.50323
 20
0.56036
 10
0.50056
 20
0.55812
 10
0.49821
 20
0.55571
 10
0.49414
 20
0.55059
 10
0.49057
 20
0.5452
 10
0.48266
 20
0.53484
 10
0.47375
 20
0.52501
 10
0.46405
 20
0.51561
 10
0.45369
 20
0.50659
 10
0.44272
 20
0.49793
 10
0.43119
 20
0.48963
 10
0.41913
 20
0.48169
 10
0.40658
 20
0.47408
 10
0.33949
 20
0.51732
 10
0.34122
 20
0.53189
 10
0.34348
 20
0.54616
 10
0.34628
 20
0.56009
 10
0.34963
 20
0.57365
 10
0.35356
 20
0.58682
 10
0.35812
 20
0.59953
 10
0.36339
 20
0.61171
 10
0.36956
 20
0.6232
 10
0.37298
 20
0.62867
 10
0.37597
 20
0.63449
 10
0.37719
 20
0.63762
 10
0.37813
 20
0.64099
 10
0.37856
 20
0.64476
 10
0.37627
 20
0.65079
 10
0.32055
 20
0.7024
 10
0.31436
 20
0.70422
 10
0.31063
 20
0.7035
 10
0.30734
 20
0.7023
 10
0.30431
 20
0.70085
 10
0.29874
 20
0.69742
 10
0.29355
 20
0.69358
 10
0.28257
 20
0.68655
 10
0.27083
 20
0.68036
 10
0.2585
 20
0.67484
 10
0.24568
 20
0.66991
 10
0.23241
 20
0.66553
 10
0.21873
 20
0.66168
 10
0.20469
 20
0.65833
 10
0.19029
 20
0.65548
 10
0.14203
 20
0.71906
 10
0.14865
 20
0.73216
 10
0.15565
 20
0.74479
 10
0.16304
 20
0.75692
 10
0.17083
 20
0.76852
 10
0.17903
 20
0.77955
 10
0.18766
 20
0.78993
 10
0.19678
 20
0.79958
 10
0.2065
 20
0.80826
 10
0.21159
 20
0.81223
 10
0.21639
 20
0.81668
 10
0.21861
 20
0.8192
 10
0.22064
 20
0.82205
 10
0.22234
 20
0.82545
 10
0.22225
 20
0.8319
 10
0.18753
 20
0.89945
 10
0.18234
 20
0.90328
 10
0.17859
 20
0.90388
 10
0.1751
 20
0.90388
 10
0.17175
 20
0.90354
 10
0.16534
 20
0.90223
 10
0.15915
 20
0.9004
 10
0.14643
 20
0.89755
 10
0.13328
 20
0.89575
 10
0.11981
 20
0.89477
 10
0.10607
 20
0.89453
 10
0.0921
 20
0.89495
 10
0.07793
 20
0.896
 10
0.06359
 20
0.89766
 10
0.04909
 20
0.89991
 10
0.02548
 20
0.97616
 10
0.03618
 20
0.98621
 10
0.04708
 20
0.99568
 10
0.05817
 20
1.00455
 10
0.06946
 20
1.01279
 10
0.08094
 20
1.02035
 10
0.0926
 20
1.02716
 10
0.10447
 20
1.0331
 10
0.11657
 20
1.03793
 10
0.12271
 20
1.03992
 10
0.12875
 20
1.04246
 10
0.1317
 20
1.04408
 10
0.13458
 20
1.04605
 10
0.13734
 20
1.04867
 10
0.13946
 20
1.05476
 10
0.12994
 20
1.13011
 10
0.12637
 20
1.13548
 10
0.12305
 20
1.13733
 10
0.11977
 20
1.13852
 10
0.11651
 20
1.13935
 10
0.11003
 20
1.14031
 10
0.10359
 20
1.14071
 10
0.09066
 20
1.14238
 10
0.07769
 20
1.14519
 10
0.0647
 20
1.14888
 10
0.0517
 20
1.15335
 10
0.03872
 20
1.15852
 10
0.02577
 20
1.16436
 10
0.01286
 20
1.17082
 10
0
 20
1.17789
 10
0.0039
 20
1.25762
 10
0.01739
 20
1.2634
 10
0.03087
 20
1.26857
 10
0.04433
 20
1.27312
 10
0.05775
 20
1.277
 10
0.07112
 20
1.28018
 10
0.08441
 20
1.28258
 10
0.09759
 20
1.28411
 10
0.11062
 20
1.28451
 10
0.11707
 20
1.28428
 10
0.12361
 20
1.2846
 10
0.12693
 20
1.28511
 10
0.13032
 20
1.28598
 10
0.13381
 20
1.2875
 10
0.13788
 20
1.29249
 10
0.15471
 20
1.36656
 10
0.15319
 20
1.37282
 10
0.1507
 20
1.3757
 10
0.14803
 20
1.37794
 10
0.14525
 20
1.37984
 10
0.13949
 20
1.38295
 10
0.13357
 20
1.38553
 10
0.122
 20
1.39152
 10
0.11077
 20
1.3986
 10
0.09982
 20
1.40651
 10
0.08914
 20
1.41515
 10
0.07871
 20
1.42445
 10
0.06854
 20
1.43437
 10
0.05861
 20
1.44486
 10
0.04895
 20
1.4559
 10
0.07988
 20
1.52948
 10
0.09453
 20
1.5303
 10
0.10897
 20
1.53056
 10
0.12317
 20
1.53022
 10
0.13711
 20
1.52928
 10
0.15076
 20
1.52769
 10
0.16407
 20
1.52541
 10
0.17698
 20
1.52233
 10
0.18937
 20
1.51826
 10
0.19535
 20
1.51583
 10
0.2016
 20
1.5139
 10
0.2049
 20
1.51324
 10
0.20837
 20
1.5129
 10
0.21217
 20
1.51313
 10
0.21771
 20
1.51643
 10
0.25885
 20
1.58027
 10
0.25957
 20
1.58668
 10
0.25821
 20
1.59023
 10
0.25647
 20
1.59326
 10
0.25451
 20
1.59599
 10
0.25016
 20
1.60089
 10
0.24548
 20
1.60533
 10
0.23665
 20
1.61492
 10
0.22852
 20
1.62541
 10
0.22094
 20
1.63659
 10
0.21386
 20
1.64836
 10
0.20724
 20
1.66067
 10
0.20107
 20
1.67347
 10
0.19533
 20
1.68672
 10
0.19003
 20
1.7004
 10
0.24426
 20
1.75897
 10
0.25831
 20
1.75473
 10
0.27196
 20
1.75003
 10
0.2852
 20
1.74485
 10
0.29797
 20
1.7392
 10
0.31026
 20
1.73304
 10
0.32198
 20
1.72634
 10
0.33306
 20
1.71904
 10
0.3433
 20
1.71097
 10
0.3481
 20
1.70665
 10
0.35331
 20
1.70269
 10
0.35618
 20
1.70094
 10
0.35934
 20
1.69944
 10
0.36298
 20
1.69835
 10
0.36932
 20
1.69956
 10
0.42981
 20
1.74548
 10
0.43268
 20
1.75126
 10
0.43262
 20
1.75506
 10
0.43201
 20
1.7585
 10
0.4311
 20
1.76174
 10
0.4287
 20
1.76782
 10
0.42582
 20
1.7736
 10
0.4208
 20
1.78564
 10
0.41675
 20
1.79827
 10
0.41345
 20
1.81137
 10
0.41082
 20
1.82486
 10
0.40881
 20
1.83868
 10
0.40739
 20
1.85282
 10
0.40653
 20
1.86723
 10
0.40623
 20
1.8819
 10
0.47722
 20
1.91839
 10
0.48897
 20
1.9096
 10
0.50019
 20
1.90051
 10
0.51086
 20
1.89113
 10
0.52093
 20
1.88144
 10
0.53037
 20
1.87146
 10
0.5391
 20
1.86115
 10
0.54701
 20
1.8505
 10
0.55387
 20
1.83941
 10
0.5569
 20
1.83371
 10
0.56045
 20
1.82821
 10
0.56255
 20
1.82559
 10
0.56499
 20
1.82309
 10
0.56805
 20
1.82083
 10
0.57441
 20
1.8198
 10
0.64697
 20
1.84226
 10
0.65164
 20
1.8467
 10
0.65288
 20
1.8503
 10
0.65349
 20
1.85374
 10
0.65374
 20
1.85709
 10
0.65356
 20
1.86363
 10
0.65283
 20
1.87005
 10
0.65223
 20
1.88307
 10
0.65274
 20
1.89633
 10
0.65413
 20
1.90977
 10
0.65627
 20
1.92334
 10
0.65911
 20
1.93702
 10
0.66261
 20
1.95079
 10
0.66673
 20
1.96463
 10
0.67146
 20
1.97852
 10
0.75065
 20
1.98852
 10
0.75869
 20
1.97624
 10
0.76613
 20
1.96387
 10
0.77294
 20
1.9514
 10
0.77909
 20
1.93885
 10
0.78454
 20
1.92624
 10
0.78922
 20
1.91357
 10
0.79301
 20
1.90085
 10
0.79567
 20
1.88809
 10
0.79656
 20
1.8817
 10
0.79802
 20
1.87532
 10
0.79909
 20
1.87213
 10
0.80054
 20
1.86895
 10
0.80263
 20
1.86578
 10
0.80826
 20
1.86263
 10
0.88412
 20
1.85892
 10
0.89003
 20
1.8615
 10
0.89243
 20
1.86446
 10
0.89418
 20
1.86748
 10
0.89556
 20
1.87055
 10
0.89763
 20
1.87676
 10
0.89914
 20
1.88303
 10
0.90303
 20
1.89547
 10
0.90805
 20
1.90776
 10
0.91394
 20
1.91991
 10
0.9206
 20
1.93193
 10
0.92794
 20
1.94382
 10
0.93594
 20
1.95556
 10
0.94455
 20
1.96715
 10
0.95375
 20
1.97859
 10
1.03158
 20
1.96091
 10
1.03493
 20
1.94662
 10
1.03769
 20
1.93244
 10
1.03983
 20
1.9184
 10
1.04132
 20
1.90451
 10
1.04213
 20
1.89079
 10
1.04219
 20
1.87728
 10
1.0414
 20
1.86404
 10
1.03954
 20
1.85113
 10
1.03819
 20
1.84482
 10
1.03737
 20
1.83833
 10
1.03729
 20
1.83497
 10
1.03756
 20
1.83148
 10
1.03845
 20
1.82779
 10
1.04266
 20
1.8229
 10
1.11268
 20
1.79347
 10
1.11912
 20
1.79388
 10
1.12238
 20
1.79583
 10
1.12505
 20
1.79807
 10
1.1274
 20
1.80048
 10
1.13147
 20
1.80561
 10
1.13504
 20
1.81099
 10
1.14295
 20
1.82135
 10
1.15186
 20
1.83118
 10
1.16156
 20
1.84059
 10
1.17192
 20
1.84961
 10
1.18289
 20
1.85826
 10
1.19442
 20
1.86656
 10
1.20648
 20
1.87451
 10
1.21903
 20
1.88211
 10
1.28613
 20
1.83887
 10
1.28439
 20
1.8243
 10
1.28213
 20
1.81004
 10
1.27933
 20
1.79611
 10
1.27598
 20
1.78254
 10
1.27205
 20
1.76938
 10
1.26749
 20
1.75666
 10
1.26222
 20
1.74448
 10
1.25606
 20
1.733
 10
1.25263
 20
1.72753
 10
1.24964
 20
1.7217
 10
1.24842
 20
1.71857
 10
1.24748
 20
1.71521
 10
1.24705
 20
1.71143
 10
1.24934
 20
1.7054
 10
1.30507
 20
1.6538
 10
1.31125
 20
1.65198
 10
1.31499
 20
1.6527
 10
1.31827
 20
1.65389
 10
1.3213
 20
1.65535
 10
1.32687
 20
1.65878
 10
1.33207
 20
1.66261
 10
1.34304
 20
1.66964
 10
1.35478
 20
1.67583
 10
1.36711
 20
1.68135
 10
1.37993
 20
1.68628
 10
1.3932
 20
1.69066
 10
1.40688
 20
1.69452
 10
1.42092
 20
1.69787
 10
1.43532
 20
1.70072
 10
1.48358
 20
1.63714
 10
1.47696
 20
1.62404
 10
1.46996
 20
1.61141
 10
1.46257
 20
1.59927
 10
1.45478
 20
1.58767
 10
1.44659
 20
1.57665
 10
1.43795
 20
1.56626
 10
1.42883
 20
1.55662
 10
1.41911
 20
1.54793
 10
1.41402
 20
1.54397
 10
1.40922
 20
1.53951
 10
1.407
 20
1.53699
 10
1.40497
 20
1.53415
 10
1.40327
 20
1.53075
 10
1.40336
 20
1.5243
 10
1.43808
 20
1.45675
 10
1.44327
 20
1.45292
 10
1.44702
 20
1.45232
 10
1.45052
 20
1.45232
 10
1.45386
 20
1.45265
 10
1.46027
 20
1.45397
 10
1.46646
 20
1.4558
 10
1.47918
 20
1.45865
 10
1.49233
 20
1.46045
 10
1.5058
 20
1.46142
 10
1.51954
 20
1.46167
 10
1.53351
 20
1.46124
 10
1.54768
 20
1.46019
 10
1.56202
 20
1.45853
 10
1.57652
 20
1.45629
 10
1.60013
 20
1.38003
 10
1.58943
 20
1.36999
 10
1.57853
 20
1.36052
 10
1.56744
 20
1.35164
 10
1.55615
 20
1.3434
 10
1.54468
 20
1.33585
 10
1.53301
 20
1.32904
 10
1.52114
 20
1.32309
 10
1.50904
 20
1.31826
 10
1.5029
 20
1.31627
 10
1.49686
 20
1.31373
 10
1.49391
 20
1.31212
 10
1.49103
 20
1.31014
 10
1.48827
 20
1.30753
 10
1.48615
 20
1.30144
 0
CIRCLE
 8
profile
 10
0.81281
 20
1.1781
 40
0.0315
 0
LINE
 8
profile
 10
1.49736
 20
0.00498
 30
0
 11
1.49736
 21
-0.07828
 31
 0
 0
LINE
 8
profile
 10
1.49736
 20
-0.07828
 30
0
 11
1.62561
 21
-0.12496
 31
 0
 0
LINE
 8
profile
 10
1.62561
 20
-0.12496
 30
0
 11
1.62561
 21
-0.21014
 31
 0
 0
LINE
 8
profile
 10
1.62561
 20
-0.21014
 30
0
 11
1.49736
 21
-0.25682
 31
 0
 0
LINE
 8
profile
 10
1.49736
 20
0.26678
 30
0
 11
1.49736
 21
0.18352
 31
 0
 0
LINE
 8
profile
 10
1.49736
 20
0.18352
 30
0
 11
1.62561
 21
0.13684
 31
 0
 0
LINE
 8
profile
 10
1.62561
 20
0.13684
 30
0
 11
1.62561
 21
0.05166
 31
 0
 0
LINE
 8
profile
 10
1.62561
 20
0.05166
 30
0
 11
1.49736
 21
0.00498
 31
 0
 0
LINE
 8
profile
 10
1.49736
 20
0.52857
 30
0
 11
1.49736
 21
0.44532
 31
 0
 0
LINE
 8
profile
 10
1.49736
 20
0.44532
 30
0
 11
1.62561
 21
0.39864
 31
 0
 0
LINE
 8
profile
 10
1.62561
 20
0.39864
 30
0
 11
1.62561
 21
0.31346
 31
 0
 0
LINE
 8
profile
 10
1.62561
 20
0.31346
 30
0
 11
1.49736
 21
0.26678
 31
 0
 0
LINE
 8
profile
 10
1.49736
 20
0.79037
 30
0
 11
1.49736
 21
0.70712
 31
 0
 0
LINE
 8
profile
 10
1.49736
 20
0.70712
 30
0
 11
1.62561
 21
0.66044
 31
 0
 0
LINE
 8
profile
 10
1.62561
 20
0.66044
 30
0
 11
1.62561
 21
0.57526
 31
 0
 0
LINE
 8
profile
 10
1.62561
 20
0.57526
 30
0
 11
1.49736
 21
0.52857
 31
 0
 0
LINE
 8
profile
 10
1.49736
 20
1.05217
 30
0
 11
1.49736
 21
0.96892
 31
 0
 0
LINE
 8
profile
 10
1.49736
 20
0.96892
 30
0
 11
1.62561
 21
0.92224
 31
 0
 0
LINE
 8
profile
 10
1.62561
 20
0.92224
 30
0
 11
1.62561
 21
0.83706
 31
 0
 0
LINE
 8
profile
 10
1.62561
 20
0.83706
 30
0
 11
1.49736
 21
0.79037
 31
 0
 0
LINE
 8
profile
 10
1.49736
 20
1.31397
 30
0
 11
1.49736
 21
1.23072
 31
 0
 0
LINE
 8
profile
 10
1.49736
 20
1.23072
 30
0
 11
1.62561
 21
1.18404
 31
 0
 0
LINE
 8
profile
 10
1.62561
 20
1.18404
 30
0
 11
1.62561
 21
1.09885
 31
 0
 0
LINE
 8
profile
 10
1.62561
 20
1.09885
 30
0
 11
1.49736
 21
1.05217
 31
 0
 0
LINE
 8
profile
 10
1.49736
 20
1.57577
 30
0
 11
1.49736
 21
1.49252
 31
 0
 0
LINE
 8
profile
 10
1.49736
 20
1.49252
 30
0
 11
1.62561
 21
1.44584
 31
 0
 0
LINE
 8
profile
 10
1.62561
 20
1.44584
 30
0
 11
1.62561
 21
1.36065
 31
 0
 0
LINE
 8
profile
 10
1.62561
 20
1.36065
 30
0
 11
1.49736
 21
1.31397
 31
 0
 0
LINE
 8
profile
 10
1.49736
 20
1.83757
 30
0
 11
1.49736
 21
1.75432
 31
 0
 0
LINE
 8
profile
 10
1.49736
 20
1.75432
 30
0
 11
1.62561
 21
1.70763
 31
 0
 0
LINE
 8
profile
 10
1.62561
 20
1.70763
 30
0
 11
1.62561
 21
1.62245
 31
 0
 0
LINE
 8
profile
 10
1.62561
 20
1.62245
 30
0
 11
1.49736
 21
1.57577
 31
 0
 0
LINE
 8
profile
 10
1.49736
 20
2.09937
 30
0
 11
1.49736
 21
2.01612
 31
 0
 0
LINE
 8
profile
 10
1.49736
 20
2.01612
 30
0
 11
1.62561
 21
1.96943
 31
 0
 0
LINE
 8
profile
 10
1.62561
 20
1.96943
 30
0
 11
1.62561
 21
1.88425
 31
 0
 0
LINE
 8
profile
 10
1.62561
 20
1.88425
 30
0
 11
1.49736
 21
1.83757
 31
 0
 0
LINE
 8
profile
 10
1.49736
 20
2.36117
 30
0
 11
1.49736
 21
2.27791
 31
 0
 0
LINE
 8
profile
 10
1.49736
 20
2.27791
 30
0
 11
1.62561
 21
2.23123
 31
 0
 0
LINE
 8
profile
 10
1.62561
 20
2.23123
 30
0
 11
1.62561
 21
2.14605
 31
 0
 0
LINE
 8
profile
 10
1.62561
 20
2.14605
 30
0
 11
1.49736
 21
2.09937
 31
 0
  0
ENDSEC
  0
EOF
